<svg width="100" height="101" viewBox="0 0 100 101" fill="none" xmlns="http://www.w3.org/2000/svg">
<path opacity="0.05" d="M53.334 2.37305L96.9287 52.8436L47.4675 97.3279L3.87286 46.8574L53.334 2.37305Z" fill="#1D92FF"/>
<path opacity="0.3" d="M52.9123 1.29292L97.7834 53.2412L46.8747 99.0275L2.00355 47.0793L52.9123 1.29292Z" stroke="#002547" stroke-width="0.3"/>
<ellipse opacity="0.3" cx="52.778" cy="1.75" rx="1.66667" ry="1.70068" fill="#002547"/>
<ellipse opacity="0.3" cx="47.0017" cy="98.9155" rx="1.11111" ry="1.13379" fill="#002547"/>
<ellipse opacity="0.3" cx="1.66667" cy="47.1016" rx="1.66667" ry="1.70068" fill="#002547"/>
<ellipse opacity="0.3" cx="98.3327" cy="52.7705" rx="1.66667" ry="1.70068" fill="#002547"/>
<path d="M69.0685 34H30.9315C29.8665 34 29 34.7633 29 35.7016V57.7133C29 58.6516 29.8665 59.4149 30.9315 59.4149H43.9225L42.9597 62.3836H40.137C39.7965 62.3836 39.5205 62.6267 39.5205 62.9266C39.5205 63.2265 39.7965 63.4697 40.137 63.4697H43.4227C43.4234 63.4697 43.4242 63.4698 43.425 63.4698C43.4256 63.4698 43.4263 63.4697 43.427 63.4697H51.3151C51.6555 63.4697 51.9315 63.2265 51.9315 62.9266C51.9315 62.6267 51.6555 62.3836 51.3151 62.3836H44.2419L45.2047 59.4149H51.3151C51.6555 59.4149 51.9315 59.1717 51.9315 58.8718C51.9315 58.5719 51.6555 58.3288 51.3151 58.3288H30.9315C30.5463 58.3288 30.2329 58.0527 30.2329 57.7133V35.7016C30.2329 35.3622 30.5463 35.0861 30.9315 35.0861H69.0685C69.4537 35.0861 69.7671 35.3622 69.7671 35.7016V57.7133C69.7671 58.0132 70.0431 58.2564 70.3836 58.2564C70.724 58.2564 71 58.0132 71 57.7133V35.7016C71 34.7633 70.1335 34 69.0685 34Z" fill="#012547"/>
<path d="M67.7541 36.3169H32.2473C31.9069 36.3169 31.6309 36.56 31.6309 36.8599V56.5547C31.6309 56.8546 31.9069 57.0977 32.2473 57.0977H51.3158C51.6562 57.0977 51.9322 56.8546 51.9322 56.5547C51.9322 56.2548 51.6562 56.0116 51.3158 56.0116H32.8637V42.0371H67.1377V44.3903C67.1377 44.6902 67.4137 44.9333 67.7541 44.9333C68.0946 44.9333 68.3706 44.6902 68.3706 44.3903V36.8599C68.3706 36.56 68.0946 36.3169 67.7541 36.3169ZM32.8637 40.9509V37.403H67.1377V40.9509H32.8637Z" fill="#012547"/>
<path d="M61.1784 38.6343H41.4524C41.1119 38.6343 40.8359 38.8774 40.8359 39.1773C40.8359 39.4772 41.1119 39.7204 41.4524 39.7204H61.1784C61.5188 39.7204 61.7948 39.4772 61.7948 39.1773C61.7948 38.8774 61.5188 38.6343 61.1784 38.6343Z" fill="#7CCCDB"/>
<path d="M65.1229 38.6343H63.8078C63.4674 38.6343 63.1914 38.8774 63.1914 39.1773C63.1914 39.4772 63.4674 39.7204 63.8078 39.7204H65.1229C65.4634 39.7204 65.7394 39.4772 65.7394 39.1773C65.7394 38.8774 65.4634 38.6343 65.1229 38.6343Z" fill="#7CCCDB"/>
<path d="M34.8762 38.6343C34.7143 38.6343 34.5548 38.6922 34.4406 38.7936C34.3255 38.8942 34.2598 39.0347 34.2598 39.1773C34.2598 39.32 34.3255 39.4604 34.4406 39.5611C34.5548 39.6625 34.7143 39.7204 34.8762 39.7204C35.0381 39.7204 35.1976 39.6625 35.3118 39.5611C35.4269 39.4604 35.4926 39.32 35.4926 39.1773C35.4926 39.0347 35.4269 38.8942 35.3118 38.7936C35.1976 38.6922 35.0381 38.6343 34.8762 38.6343Z" fill="#7CCCDB"/>
<path d="M36.8489 38.6343C36.6861 38.6343 36.5275 38.6922 36.4132 38.7936C36.2982 38.8942 36.2324 39.034 36.2324 39.1773C36.2324 39.32 36.2982 39.4604 36.4132 39.5611C36.5275 39.6625 36.6869 39.7204 36.8489 39.7204C37.0108 39.7204 37.1702 39.6625 37.2845 39.5611C37.3995 39.4604 37.4653 39.32 37.4653 39.1773C37.4653 39.034 37.3995 38.8942 37.2845 38.7936C37.1702 38.6922 37.0116 38.6343 36.8489 38.6343Z" fill="#7CCCDB"/>
<path d="M38.8215 38.6343C38.6596 38.6343 38.5001 38.6922 38.3859 38.7936C38.2708 38.8942 38.2051 39.0347 38.2051 39.1773C38.2051 39.32 38.2708 39.4604 38.3859 39.5611C38.5001 39.6625 38.6596 39.7204 38.8215 39.7204C38.9843 39.7204 39.1429 39.6625 39.2571 39.5611C39.3722 39.4604 39.438 39.32 39.438 39.1773C39.438 39.0347 39.3722 38.8942 39.2571 38.7936C39.1429 38.6922 38.9843 38.6343 38.8215 38.6343Z" fill="#7CCCDB"/>
<path d="M66.4377 46.1646H55.2596C54.1946 46.1646 53.3281 46.9279 53.3281 47.8661V65.8231C53.3281 66.7613 54.1946 67.5246 55.2596 67.5246H66.4377C67.5028 67.5246 68.3692 66.7613 68.3692 65.8231V47.8661C68.3692 46.9279 67.5028 46.1646 66.4377 46.1646ZM54.561 49.5677H67.1363V51.9571H54.561V49.5677ZM54.561 53.0432H67.1363V64.1215H54.561V53.0432ZM55.2596 47.2507H66.4377C66.8229 47.2507 67.1363 47.5267 67.1363 47.8661V48.4816H54.561V47.8661C54.561 47.5267 54.8744 47.2507 55.2596 47.2507ZM66.4377 66.4385H55.2596C54.8744 66.4385 54.561 66.1624 54.561 65.8231V65.2076H67.1363V65.8231C67.1363 66.1624 66.8229 66.4385 66.4377 66.4385Z" fill="#012547"/>
<path d="M63.1501 50.2192H55.9172C55.5768 50.2192 55.3008 50.4624 55.3008 50.7623C55.3008 51.0622 55.5768 51.3053 55.9172 51.3053H63.1501C63.4905 51.3053 63.7665 51.0622 63.7665 50.7623C63.7665 50.4624 63.4905 50.2192 63.1501 50.2192Z" fill="#7CCCDB"/>
<path d="M65.7818 50.2192H65.1243C64.7838 50.2192 64.5078 50.4624 64.5078 50.7623C64.5078 51.0622 64.7838 51.3053 65.1243 51.3053H65.7818C66.1222 51.3053 66.3982 51.0622 66.3982 50.7623C66.3982 50.4624 66.1222 50.2192 65.7818 50.2192Z" fill="#7CCCDB"/>
<path d="M36.1919 43.8472C35.4894 43.8472 34.918 44.3506 34.918 44.9695V52.4998C34.918 53.1187 35.4894 53.6221 36.1919 53.6221H46.055C46.7574 53.6221 47.3289 53.1187 47.3289 52.4998V44.9695C47.3289 44.3506 46.7574 43.8472 46.055 43.8472H36.1919ZM42.0552 48.7346L46.0961 45.5936V51.8757L42.0552 48.7346ZM41.1234 48.0104L37.1648 44.9333H45.0821L41.1234 48.0104ZM36.1508 51.8757V45.5936L40.1917 48.7346L36.1508 51.8757ZM41.1234 49.4589L45.0821 52.536H37.1648L41.1234 49.4589Z" fill="#7CCCDB"/>
<path d="M49.9993 44.9333H65.1225C65.463 44.9333 65.739 44.6901 65.739 44.3902C65.739 44.0903 65.463 43.8472 65.1225 43.8472H49.9993C49.6588 43.8472 49.3828 44.0903 49.3828 44.3902C49.3828 44.6901 49.6588 44.9333 49.9993 44.9333Z" fill="#7CCCDB"/>
<path d="M51.3143 46.7437H49.9993C49.6588 46.7437 49.3828 46.9868 49.3828 47.2867C49.3828 47.5866 49.6588 47.8298 49.9993 47.8298H51.3143C51.6548 47.8298 51.9308 47.5866 51.9308 47.2867C51.9308 46.9868 51.6548 46.7437 51.3143 46.7437Z" fill="#7CCCDB"/>
<path d="M51.3143 49.6401H49.9993C49.6588 49.6401 49.3828 49.8833 49.3828 50.1832C49.3828 50.4831 49.6588 50.7262 49.9993 50.7262H51.3143C51.6548 50.7262 51.9308 50.4831 51.9308 50.1832C51.9308 49.8833 51.6548 49.6401 51.3143 49.6401Z" fill="#7CCCDB"/>
<path d="M51.3143 52.5361H49.9993C49.6588 52.5361 49.3828 52.7793 49.3828 53.0792C49.3828 53.3791 49.6588 53.6222 49.9993 53.6222H51.3143C51.6548 53.6222 51.9308 53.3791 51.9308 53.0792C51.9308 52.7793 51.6548 52.5361 51.3143 52.5361Z" fill="#7CCCDB"/>
<path d="M64.4658 54.2739H57.233C56.5305 54.2739 55.959 54.7774 55.959 55.3962V59.451C55.959 60.0699 56.5305 60.5733 57.233 60.5733H64.4658C65.1683 60.5733 65.7398 60.0699 65.7398 59.451V55.3962C65.7398 54.7774 65.1683 54.2739 64.4658 54.2739ZM61.9976 57.4236L64.5069 56.0169V58.8304L61.9976 57.4236ZM60.8494 56.7799L58.3166 55.36H63.3822L60.8494 56.7799ZM57.1919 58.8304V56.0169L59.7012 57.4236L57.1919 58.8304ZM60.8494 58.0673L63.3822 59.4872H58.3166L60.8494 58.0673Z" fill="#7CCCDB"/>
<path d="M65.1234 61.8042H56.5754C56.235 61.8042 55.959 62.0473 55.959 62.3473C55.959 62.6472 56.235 62.8903 56.5754 62.8903H65.1234C65.4638 62.8903 65.7398 62.6472 65.7398 62.3473C65.7398 62.0473 65.4638 61.8042 65.1234 61.8042Z" fill="#7CCCDB"/>
</svg>
