<svg width="100" height="101" viewBox="0 0 100 101" fill="none" xmlns="http://www.w3.org/2000/svg">
<path opacity="0.05" d="M53.334 2.37305L96.9287 52.8436L47.4675 97.3279L3.87287 46.8574L53.334 2.37305Z" fill="#1D92FF"/>
<path opacity="0.3" d="M52.9123 1.29292L97.7834 53.2412L46.8747 99.0275L2.00355 47.0793L52.9123 1.29292Z" stroke="#002547" stroke-width="0.3"/>
<ellipse opacity="0.3" cx="52.778" cy="1.75" rx="1.66667" ry="1.70068" fill="#002547"/>
<ellipse opacity="0.3" cx="47.0017" cy="98.9155" rx="1.11111" ry="1.13379" fill="#002547"/>
<ellipse opacity="0.3" cx="1.66667" cy="47.1016" rx="1.66667" ry="1.70068" fill="#002547"/>
<ellipse opacity="0.3" cx="98.3327" cy="52.7705" rx="1.66667" ry="1.70068" fill="#002547"/>
<path d="M55.9352 53.6186H55.1512C54.8563 53.6191 54.5925 53.4351 54.4912 53.1581C54.4042 52.9301 54.3109 52.707 54.2104 52.486C54.0855 52.2173 54.1425 51.8992 54.3529 51.6906L54.9117 51.1311C55.7412 50.2943 55.7397 48.9448 54.9081 48.1099L52.894 46.0958C52.058 45.2648 50.708 45.2648 49.872 46.0958L49.3132 46.6539C49.1042 46.8635 48.7866 46.9204 48.5178 46.7964C48.2969 46.6959 48.0738 46.6026 47.845 46.5113C47.5667 46.4107 47.3815 46.146 47.3825 45.8499V45.0659C47.3825 43.885 46.4253 42.9277 45.2444 42.9277H42.3935C41.2126 42.9277 40.2553 43.885 40.2553 45.0659V45.8499C40.2558 46.1448 40.0718 46.4086 39.7949 46.5099C39.5668 46.5969 39.3437 46.6902 39.1227 46.7907C38.854 46.915 38.5363 46.8581 38.3273 46.6482L37.7679 46.0894C36.932 45.2589 35.5825 45.2589 34.7467 46.0894L32.7325 48.1099C31.9015 48.9458 31.9015 50.2959 32.7325 51.1318L33.2906 51.6906C33.501 51.8992 33.558 52.2173 33.4331 52.486C33.3326 52.707 33.2392 52.9301 33.1516 53.1588C33.0496 53.4374 32.7833 53.6216 32.4866 53.6186H31.7026C30.5217 53.6186 29.5645 54.5758 29.5645 55.7567V58.6076C29.5645 59.7885 30.5217 60.7457 31.7026 60.7457H32.4866C32.7815 60.7452 33.0453 60.9292 33.1466 61.2062C33.2335 61.4342 33.3269 61.6573 33.4274 61.8783C33.5523 62.147 33.4953 62.4651 33.2849 62.6737L32.7261 63.2332C31.8956 64.069 31.8956 65.4186 32.7261 66.2544L34.7402 68.2686C35.5762 69.0996 36.9262 69.0996 37.7622 68.2686L38.3209 67.7105C38.5299 67.5009 38.8475 67.4439 39.1163 67.568C39.3373 67.6685 39.5604 67.7618 39.7891 67.8531C40.069 67.9525 40.2558 68.2175 40.2553 68.5145V69.2985C40.2553 70.4794 41.2126 71.4366 42.3935 71.4366H45.2444C46.4253 71.4366 47.3825 70.4794 47.3825 69.2985V68.5145C47.382 68.2196 47.566 67.9558 47.8429 67.8545C48.0709 67.7675 48.294 67.6742 48.515 67.5737C48.7838 67.4494 49.1015 67.5063 49.3104 67.7162L49.8699 68.275C50.7069 69.1042 52.0561 69.1026 52.8911 68.2714L54.9053 66.2573C55.7363 65.4213 55.7363 64.0712 54.9053 63.2353L54.3472 62.6765C54.1368 62.468 54.0798 62.1498 54.2047 61.8811C54.3052 61.6602 54.3985 61.4371 54.4898 61.2083C54.5904 60.9299 54.8551 60.7447 55.1512 60.7457H55.9352C57.1161 60.7457 58.0734 59.7885 58.0734 58.6076V55.7567C58.0734 54.5758 57.1161 53.6186 55.9352 53.6186ZM56.6479 58.6076C56.6479 59.0012 56.3288 59.3204 55.9352 59.3204H55.1512C54.2652 59.3237 53.4723 59.8712 53.1555 60.6987C53.08 60.8983 52.9983 61.0947 52.9104 61.2881C52.5439 62.0971 52.7139 63.0482 53.338 63.68L53.8954 64.2381C54.1739 64.5162 54.1741 64.9676 53.8959 65.2461C53.8957 65.2463 53.8955 65.2464 53.8954 65.2466L51.8812 67.2608C51.6029 67.539 51.1517 67.539 50.8734 67.2608L50.3146 66.7027C49.683 66.0781 48.7316 65.908 47.9227 66.2751C47.7296 66.3627 47.5329 66.4447 47.3348 66.5203C46.5079 66.8369 45.9607 67.6291 45.9571 68.5145V69.2985C45.9571 69.6921 45.638 70.0112 45.2444 70.0112H42.3935C41.9999 70.0112 41.6807 69.6921 41.6807 69.2985V68.5145C41.6774 67.6285 41.1298 66.8355 40.3023 66.5188C40.1027 66.4433 39.9063 66.3616 39.7129 66.2736C38.9039 65.9074 37.9529 66.0775 37.321 66.7013L36.7629 67.2586C36.4848 67.5371 36.0334 67.5374 35.7549 67.2592C35.7548 67.259 35.7546 67.2588 35.7544 67.2586L33.7403 65.2466C33.4621 64.9683 33.4621 64.5171 33.7403 64.2388L34.2984 63.68C34.9225 63.0482 35.0925 62.0971 34.726 61.2881C34.6383 61.095 34.5564 60.8983 34.4808 60.7001C34.1649 59.8724 33.3725 59.3243 32.4866 59.3204H31.7026C31.309 59.3204 30.9899 59.0012 30.9899 58.6076V55.7567C30.9899 55.3631 31.309 55.044 31.7026 55.044H32.4866C33.3726 55.0407 34.1655 54.4931 34.4822 53.6656C34.5578 53.466 34.6395 53.2696 34.7274 53.0762C35.0939 52.2672 34.9238 51.3161 34.2998 50.6843L33.7396 50.1262C33.4611 49.848 33.4608 49.3967 33.739 49.1182C33.7392 49.118 33.7394 49.1179 33.7396 49.1177L35.7537 47.1036C36.032 46.8254 36.4832 46.8254 36.7615 47.1036L37.3203 47.6616C37.9518 48.2862 38.9033 48.4563 39.7122 48.0892C39.9053 48.0016 40.102 47.9196 40.3002 47.844C41.1282 47.5285 41.6767 46.736 41.6807 45.8499V45.0659C41.6807 44.6723 41.9999 44.3532 42.3935 44.3532H45.2444C45.638 44.3532 45.9571 44.6723 45.9571 45.0659V45.8499C45.9604 46.7359 46.508 47.5287 47.3355 47.8455C47.5351 47.921 47.7315 48.0027 47.9248 48.0906C48.7337 48.4577 49.6852 48.2876 50.3168 47.663L50.8748 47.1057C51.1542 46.8294 51.6039 46.8294 51.8833 47.1057L53.8975 49.1198C54.1757 49.3981 54.1757 49.8493 53.8975 50.1276L53.3394 50.6864C52.7154 51.3182 52.5454 52.2694 52.9118 53.0783C52.9995 53.2715 53.0814 53.4682 53.157 53.6663C53.4736 54.4932 54.2658 55.0404 55.1512 55.044H55.9352C56.3288 55.044 56.6479 55.3631 56.6479 55.7567V58.6076Z" fill="#012547"/>
<path d="M50.2188 56.8961C50.2117 56.725 50.1996 56.5547 50.1789 56.385C50.1561 56.2026 50.129 56.0215 50.0913 55.8441C50.0663 55.7279 50.0335 55.6131 50.0022 55.4977C49.9623 55.3509 49.9174 55.2062 49.8675 55.0636C49.8325 54.9646 49.7962 54.8662 49.7591 54.7686C49.6674 54.5403 49.5624 54.3175 49.4448 54.1015C49.4355 54.0851 49.4298 54.0672 49.4206 54.0509C49.2352 53.7209 49.0205 53.4081 48.7791 53.1165C48.7585 53.0908 48.7349 53.0666 48.7136 53.0416C48.6152 52.9255 48.514 52.8128 48.4078 52.7052C48.3522 52.6475 48.2938 52.5933 48.2353 52.5377C48.164 52.4714 48.0928 52.4059 48.0215 52.3432C47.935 52.2681 47.8469 52.1954 47.7571 52.1251L47.6402 52.0381C46.5373 51.2121 45.1965 50.7659 43.8186 50.7666C43.7474 50.7666 43.6761 50.7773 43.6048 50.7801C43.453 50.7844 43.3005 50.793 43.1472 50.8087C43.0667 50.8172 42.9855 50.8265 42.9049 50.8379C42.6726 50.8684 42.442 50.9116 42.2143 50.9669C38.7824 51.8537 36.7192 55.3548 37.6061 58.7867C38.1905 61.0481 39.9573 62.8135 42.2193 63.396C42.2307 63.396 42.2428 63.3996 42.2549 63.4025C42.5011 63.4638 42.7504 63.5115 43.0018 63.545C43.1679 63.5657 43.334 63.5699 43.5008 63.5778C43.6119 63.5835 43.7146 63.5999 43.8307 63.5999C44.0339 63.5999 44.2448 63.5863 44.4601 63.565C44.4829 63.565 44.5057 63.5585 44.5314 63.5557C44.7046 63.5364 44.8799 63.5108 45.0588 63.4752C45.1301 63.4616 45.1963 63.4438 45.2648 63.4281C45.3902 63.3989 45.5149 63.3682 45.6432 63.3305C45.743 63.3005 45.8399 63.2656 45.9376 63.2314C46.0352 63.1972 46.1363 63.1601 46.2375 63.1216C46.3387 63.0832 46.4236 63.039 46.5155 62.9962C46.6352 62.9413 46.7543 62.8872 46.8719 62.823H46.8761C47.5413 62.4669 48.1557 62.0232 48.7029 61.5038C48.8507 61.3658 48.9792 61.2085 49.0849 61.0362C49.6412 60.1444 50.0066 59.1471 50.1583 58.107C50.1782 57.9694 50.196 57.8319 50.2067 57.6915C50.2167 57.5625 50.2238 57.4342 50.2267 57.3059C50.2267 57.2653 50.2324 57.2268 50.2324 57.1861C50.2331 57.0856 50.2231 56.993 50.2188 56.8961ZM48.7984 57.3629C48.7984 57.4221 48.7934 57.4812 48.7898 57.5396C48.777 57.7121 48.7549 57.8846 48.7257 58.0578C48.4593 59.5397 47.5392 60.8225 46.2212 61.5501C46.1329 61.5964 46.0459 61.6399 45.959 61.6798L45.8998 61.7083C45.4857 61.8963 45.0486 62.0286 44.5998 62.1017C44.5684 62.1067 44.5363 62.1124 44.5043 62.1167C44.4152 62.1295 44.3275 62.1402 44.2406 62.1481C44.1258 62.158 44.0104 62.1637 43.8928 62.1659C43.8429 62.1659 43.7937 62.1659 43.7438 62.1659C43.5751 62.1639 43.4068 62.1535 43.2392 62.1345L43.1537 62.1245C42.9577 62.0989 42.7633 62.0623 42.5714 62.0148C39.902 61.3315 38.292 58.6138 38.9751 55.9445C39.4265 54.1807 40.803 52.8028 42.5664 52.3496V52.3489C42.9758 52.2456 43.3963 52.1929 43.8186 52.1921C44.0224 52.1932 44.226 52.207 44.428 52.2334C44.4822 52.2398 44.5356 52.2498 44.5891 52.2576C44.743 52.2819 44.8956 52.3125 45.0459 52.351C45.0951 52.3638 45.1443 52.3752 45.1928 52.3888C45.5718 52.4982 45.9366 52.6518 46.2796 52.8463C46.3345 52.8784 46.3879 52.9119 46.4421 52.9454C46.5547 53.0167 46.6638 53.088 46.7714 53.1692C46.8291 53.2113 46.8875 53.2526 46.9431 53.2975C47.083 53.4092 47.2169 53.5282 47.3444 53.6539C47.395 53.7052 47.4413 53.7615 47.4905 53.8149C47.5725 53.904 47.6523 53.9953 47.7286 54.0915C47.7813 54.1578 47.8319 54.2262 47.8818 54.2953C47.9531 54.3979 48.0243 54.5049 48.0885 54.6132C48.1241 54.6723 48.1598 54.7301 48.1961 54.7907C48.2881 54.9598 48.3699 55.1343 48.4413 55.3131C48.4698 55.3844 48.494 55.4556 48.5197 55.5269C48.566 55.6581 48.6059 55.7906 48.6409 55.9246C48.6587 55.9959 48.6786 56.0593 48.6936 56.1285C48.7352 56.3211 48.7654 56.516 48.7841 56.7122C48.7884 56.7642 48.7884 56.8169 48.792 56.869C48.8019 57.0329 48.8048 57.1975 48.7984 57.3629Z" fill="#012547"/>
<path d="M70.189 43.64H67.9475C67.6486 43.6431 67.3812 43.4548 67.2832 43.1725C67.0622 42.5105 66.7947 41.8647 66.4828 41.2403C66.3504 40.9706 66.4056 40.6464 66.6196 40.4356L68.209 38.8441C69.0433 38.0092 69.0433 36.6563 68.209 35.8214L65.1785 32.796C64.3436 31.9617 62.9907 31.9617 62.1558 32.796L60.5672 34.3839C60.3566 34.5979 60.033 34.6533 59.7633 34.5214C59.1388 34.2079 58.4929 33.9391 57.8304 33.7168C57.5469 33.6198 57.3573 33.3521 57.36 33.0525V30.811C57.36 29.6301 56.4027 28.6729 55.2218 28.6729H50.9454C49.7645 28.6729 48.8073 29.6301 48.8073 30.811V33.0525C48.8103 33.3514 48.6221 33.6188 48.3397 33.7168C47.6777 33.939 47.0319 34.2077 46.4076 34.5207C46.1379 34.6536 45.8135 34.5984 45.6029 34.3839L44.0114 32.7945C43.1755 31.9627 41.8246 31.9627 40.9887 32.7945L37.9639 35.8193C37.1292 36.6542 37.1292 38.0077 37.9639 38.8427L40.3009 41.184C40.5836 41.4578 41.0349 41.4507 41.3087 41.1679C41.5759 40.8921 41.5765 40.4541 41.3102 40.1776L38.9717 37.837C38.6935 37.5587 38.6935 37.1075 38.9717 36.8292L41.9965 33.8045C42.2748 33.5262 42.726 33.5262 43.0043 33.8045L44.5966 35.3938C45.2408 36.0418 46.2279 36.2038 47.0455 35.7958C47.6101 35.5131 48.1937 35.2704 48.7923 35.0695C49.6563 34.777 50.2364 33.9647 50.2327 33.0525V30.811C50.2327 30.4174 50.5518 30.0983 50.9454 30.0983H55.2218C55.6154 30.0983 55.9345 30.4174 55.9345 30.811V33.0525C55.9309 33.9645 56.511 34.7766 57.3749 35.0688C57.9738 35.2698 58.5578 35.5126 59.1226 35.7958C59.9402 36.2017 60.926 36.0395 61.5707 35.3931L63.1629 33.8045C63.4412 33.5262 63.8924 33.5262 64.1707 33.8045L67.1955 36.8299C67.4733 37.1082 67.4733 37.5588 67.1955 37.837L65.6061 39.4292C64.9587 40.0738 64.7968 41.0605 65.2042 41.8782C65.4869 42.4427 65.7295 43.0265 65.9304 43.6251C66.2227 44.4893 67.0352 45.0694 67.9475 45.0655H70.189C70.5826 45.0655 70.9017 45.3846 70.9017 45.7782V50.0545C70.9017 50.4481 70.5826 50.7672 70.189 50.7672H67.9475C67.0354 50.7636 66.2234 51.3437 65.9311 52.2076C65.7302 52.8065 65.4873 53.3905 65.2042 53.9553C64.7976 54.7729 64.9598 55.7591 65.6069 56.4035L67.1962 57.9957C67.4745 58.274 67.4745 58.7252 67.1962 59.0034L64.17 62.0282C63.8918 62.306 63.4411 62.306 63.1629 62.0282L60.8209 59.6912C60.547 59.4084 60.0958 59.4013 59.8132 59.6752C59.5304 59.949 59.5233 60.4003 59.7972 60.683C59.8028 60.6888 59.8087 60.6947 59.8146 60.7004L62.1558 63.0374C62.9907 63.8717 64.3436 63.8717 65.1785 63.0374L68.2033 60.0133C69.038 59.1784 69.038 57.825 68.2033 56.99L66.6161 55.4C66.4023 55.1893 66.3469 54.8657 66.4785 54.596C66.792 53.9715 67.0609 53.3256 67.2832 52.6631C67.3802 52.3796 67.6478 52.19 67.9475 52.1927H70.189C71.3699 52.1927 72.3271 51.2354 72.3271 50.0545V45.7782C72.3271 44.5973 71.3699 43.64 70.189 43.64Z" fill="#7CCCDB"/>
<path d="M59.6328 41.3649C56.0124 37.7521 50.1506 37.7521 46.5301 41.3649C46.2567 41.648 46.2645 42.0993 46.5477 42.3727C46.8239 42.6394 47.2617 42.6394 47.5379 42.3727C50.579 39.2905 55.5429 39.2573 58.6251 42.2984C61.7072 45.3395 61.7404 50.3034 58.6994 53.3855C58.6748 53.4104 58.65 53.4352 58.6251 53.4598C58.342 53.7333 58.3341 54.1844 58.6076 54.4676C58.8811 54.7507 59.3322 54.7585 59.6153 54.485C59.6212 54.4793 59.6271 54.4735 59.6328 54.4676C63.2457 50.8471 63.2457 44.9854 59.6328 41.3649Z" fill="#7CCCDB"/>
</svg>
