<svg width="100" height="101" viewBox="0 0 100 101" fill="none" xmlns="http://www.w3.org/2000/svg">
<path opacity="0.05" d="M53.334 2.37305L96.9287 52.8436L47.4675 97.3279L3.87287 46.8574L53.334 2.37305Z" fill="#1D92FF"/>
<path opacity="0.3" d="M52.9123 1.29292L97.7834 53.2412L46.8747 99.0275L2.00355 47.0793L52.9123 1.29292Z" stroke="#002547" stroke-width="0.3"/>
<ellipse opacity="0.3" cx="52.778" cy="1.75" rx="1.66667" ry="1.70068" fill="#002547"/>
<ellipse opacity="0.3" cx="47.0017" cy="98.9155" rx="1.11111" ry="1.13379" fill="#002547"/>
<ellipse opacity="0.3" cx="1.66667" cy="47.1016" rx="1.66667" ry="1.70068" fill="#002547"/>
<ellipse opacity="0.3" cx="98.3327" cy="52.7705" rx="1.66667" ry="1.70068" fill="#002547"/>
<g clip-path="url(#clip0_69_86)">
<path d="M31.9372 37.1411H31.9298C31.7182 37.1411 31.5508 37.2983 31.5508 37.4927C31.5508 37.6871 31.7261 37.8443 31.9373 37.8443C32.1489 37.8443 32.3201 37.6871 32.3201 37.4927C32.3201 37.2983 32.1488 37.1411 31.9372 37.1411Z" fill="#012547"/>
<path d="M33.4686 37.1411H33.461C33.2495 37.1411 33.082 37.2983 33.082 37.4927C33.082 37.6871 33.2573 37.8443 33.4686 37.8443C33.6802 37.8443 33.8514 37.6871 33.8514 37.4927C33.8514 37.2983 33.6802 37.1411 33.4686 37.1411Z" fill="#012547"/>
<path d="M34.9997 37.1411H34.9923C34.7807 37.1411 34.6133 37.2983 34.6133 37.4927C34.6133 37.6871 34.7886 37.8443 34.9998 37.8443C35.2114 37.8443 35.3826 37.6871 35.3826 37.4927C35.3826 37.2983 35.2113 37.1411 34.9997 37.1411Z" fill="#012547"/>
<path d="M69.4293 36.438H31.1484C30.5151 36.438 30 36.9112 30 37.4927V38.1959C30 38.3902 30.1713 38.5474 30.3828 38.5474H70.1947C70.4064 38.5474 70.5776 38.3902 70.5776 38.1959V37.4927C70.5776 36.9111 70.0625 36.438 69.4293 36.438ZM69.812 37.8443H30.7656V37.4927C30.7656 37.299 30.9372 37.1411 31.1484 37.1411H69.4293C69.6362 37.1411 69.812 37.3018 69.812 37.4927V37.8443Z" fill="#012547"/>
<path d="M70.1952 37.8442C69.9838 37.8442 69.8125 38.0015 69.8125 38.1958V44.5238C69.8125 44.7182 69.9838 44.8754 70.1952 44.8754C70.4069 44.8754 70.5782 44.7181 70.5782 44.5238V38.1958C70.5782 38.0015 70.4069 37.8442 70.1952 37.8442Z" fill="#012547"/>
<path d="M30.3828 37.8442C30.1713 37.8442 30 38.0015 30 38.1958V64.2109C30 64.4052 30.1713 64.5624 30.3828 64.5624C30.5944 64.5624 30.7656 64.4052 30.7657 64.2109V38.1958C30.7657 38.0015 30.5944 37.8442 30.3828 37.8442Z" fill="#012547"/>
<path d="M67.1323 63.8594H30.3828C30.1713 63.8594 30 64.0167 30 64.2109C30 64.4052 30.1713 64.5625 30.3828 64.5625H67.1323C67.344 64.5625 67.5152 64.4052 67.5152 64.2109C67.5152 64.0167 67.344 63.8594 67.1323 63.8594Z" fill="#012547"/>
<path d="M78.1094 56.2388C77.9526 56.1069 77.711 56.1166 77.5681 56.2615L69.9121 63.9737C69.77 64.1172 69.7812 64.3396 69.9376 64.4701C70.0108 64.5319 70.1028 64.5621 70.1954 64.5621C70.2993 64.5621 70.4025 64.5237 70.478 64.4474L78.1341 56.7352C78.2769 56.5917 78.2657 56.3692 78.1094 56.2388Z" fill="#760505"/>
<path d="M74.1949 56.8651C74.0049 56.7773 73.776 56.8494 73.6813 57.0224L69.8532 64.0536C69.7582 64.2272 69.8352 64.438 70.0245 64.5252C70.079 64.5506 70.1371 64.5623 70.1948 64.5623C70.3354 64.5623 70.4708 64.4909 70.5381 64.368L74.3661 57.3369C74.4601 57.1632 74.3839 56.9524 74.1949 56.8651Z" fill="#760505"/>
<path d="M78.2271 56.4321C78.1867 56.2412 77.9872 56.1169 77.7785 56.1533L73.9504 56.8345C73.7435 56.8715 73.6073 57.0563 73.6477 57.2464C73.6836 57.4146 73.8435 57.5314 74.023 57.5314C74.0469 57.5314 74.0716 57.5293 74.0963 57.5252L77.9244 56.8441C78.1321 56.807 78.2675 56.6222 78.2271 56.4321Z" fill="#760505"/>
<path d="M78.123 56.2509L74.2951 52.7133C74.1456 52.5746 73.9033 52.5753 73.7539 52.7119C73.6035 52.8485 73.6028 53.0711 73.7523 53.209L77.5802 56.7466C77.655 56.8159 77.753 56.8503 77.8517 56.8503C77.9489 56.8503 78.0467 56.8159 78.1215 56.748C78.2711 56.6113 78.2719 56.3888 78.123 56.2509Z" fill="#760505"/>
<path d="M74.0234 52.6094C73.8117 52.6094 73.6406 52.7667 73.6406 52.961V57.1796C73.6406 57.374 73.8117 57.5312 74.0234 57.5312C74.2349 57.5312 74.4061 57.374 74.4061 57.1796V52.961C74.4061 52.7667 74.235 52.6094 74.0234 52.6094Z" fill="#760505"/>
<path d="M74.3176 56.9545L70.4895 52.7359C70.3542 52.5875 70.1133 52.567 69.9505 52.6912C69.7881 52.8155 69.7657 53.0373 69.9011 53.1863L73.7291 57.405C73.8052 57.4881 73.9137 57.5313 74.0236 57.5313C74.1103 57.5313 74.1971 57.5045 74.269 57.4496C74.4311 57.3253 74.4528 57.1034 74.3176 56.9545Z" fill="#760505"/>
<path d="M70.4408 52.6912C70.277 52.567 70.0371 52.5875 69.901 52.7359L66.0729 56.9545C65.9375 57.1034 65.96 57.3253 66.1223 57.4496C66.1941 57.5045 66.2809 57.5313 66.3669 57.5313C66.4767 57.5313 66.5858 57.488 66.6614 57.405L70.4894 53.1863C70.6248 53.0373 70.6031 52.8155 70.4408 52.6912Z" fill="#760505"/>
<path d="M74.0233 56.8281H66.3673C66.1556 56.8281 65.9844 56.9853 65.9844 57.1796C65.9844 57.374 66.1556 57.5312 66.3673 57.5312H74.0233C74.2349 57.5312 74.4061 57.374 74.4061 57.1796C74.4061 56.9853 74.235 56.8281 74.0233 56.8281Z" fill="#760505"/>
<path d="M70.538 64.0536L66.7099 57.0224C66.615 56.8494 66.3848 56.7773 66.1963 56.8651C66.0071 56.9524 65.9301 57.1631 66.0251 57.3369L69.8531 64.368C69.9204 64.4909 70.055 64.5623 70.1955 64.5623C70.2531 64.5623 70.3114 64.5506 70.3667 64.5252C70.556 64.438 70.6322 64.2273 70.538 64.0536Z" fill="#760505"/>
<path d="M66.6371 52.7119C66.4868 52.5759 66.2447 52.5753 66.0958 52.7133L62.2678 56.2508C62.1184 56.3888 62.1192 56.6112 62.2693 56.7479C62.3441 56.8159 62.4413 56.8502 62.5393 56.8502C62.6372 56.8502 62.7359 56.8158 62.8106 56.7465L66.6386 53.2089C66.7874 53.071 66.7866 52.8486 66.6371 52.7119Z" fill="#760505"/>
<path d="M66.44 56.8342L62.612 56.153C62.404 56.1194 62.2036 56.2416 62.1634 56.4318C62.123 56.6221 62.2589 56.8068 62.4661 56.8439L66.2941 57.525C66.3188 57.5291 66.3435 57.5311 66.3675 57.5311C66.5475 57.5311 66.7076 57.4143 66.7427 57.2462C66.7831 57.0559 66.6478 56.8712 66.44 56.8342Z" fill="#760505"/>
<path d="M70.4779 63.9737L62.8217 56.2615C62.6805 56.1172 62.4367 56.1076 62.2812 56.2388C62.125 56.3692 62.1138 56.5916 62.2557 56.7352L69.9119 64.4474C69.9875 64.5236 70.0914 64.5621 70.1952 64.5621C70.2872 64.5621 70.38 64.5319 70.4532 64.4701C70.6095 64.3396 70.6207 64.1173 70.4779 63.9737Z" fill="#760505"/>
<path d="M66.3673 52.6094C66.1556 52.6094 65.9844 52.7667 65.9844 52.961V57.1796C65.9844 57.374 66.1556 57.5312 66.3673 57.5312C66.5788 57.5312 66.75 57.374 66.75 57.1796V52.961C66.75 52.7667 66.5788 52.6094 66.3673 52.6094Z" fill="#760505"/>
<path d="M74.0233 52.6094H66.3673C66.1556 52.6094 65.9844 52.7667 65.9844 52.9609C65.9844 53.1552 66.1556 53.3125 66.3673 53.3125H74.0233C74.2349 53.3125 74.4061 53.1552 74.4061 52.9609C74.4061 52.7667 74.235 52.6094 74.0233 52.6094Z" fill="#760505"/>
<path d="M70.1952 46.2812C69.9838 46.2812 69.8125 46.4385 69.8125 46.6328V50.8515C69.8125 51.0458 69.9838 51.203 70.1952 51.203C70.4069 51.203 70.5782 51.0458 70.5782 50.8515V46.6328C70.5782 46.4385 70.4069 46.2812 70.1952 46.2812Z" fill="#002547"/>
<path d="M65.1065 51.306L62.044 48.4936C61.8945 48.3563 61.6522 48.3563 61.5028 48.4936C61.3532 48.631 61.3532 48.8535 61.5028 48.9908L64.5652 51.8033C64.6398 51.8719 64.7378 51.9062 64.8357 51.9062C64.9337 51.9062 65.0317 51.8719 65.1065 51.8032C65.2559 51.6659 65.2559 51.4434 65.1065 51.306Z" fill="#002547"/>
<path d="M78.8885 48.4936C78.7389 48.3563 78.4967 48.3563 78.3472 48.4936L75.284 51.306C75.1345 51.4434 75.1345 51.6659 75.284 51.8032C75.3588 51.8718 75.4568 51.9062 75.5547 51.9062C75.6525 51.9062 75.7505 51.8718 75.8253 51.8033L78.8885 48.9908C79.038 48.8535 79.038 48.6309 78.8885 48.4936Z" fill="#002547"/>
<path d="M31.9141 37.8442C31.7024 37.8442 31.5312 38.0015 31.5312 38.1958V64.2109C31.5312 64.4052 31.7024 64.5624 31.9141 64.5624C32.1256 64.5624 32.2968 64.4052 32.2969 64.2109V38.1958C32.2969 38.0015 32.1256 37.8442 31.9141 37.8442Z" fill="#012547"/>
<path d="M31.1484 40.6567H30.3828C30.1713 40.6567 30 40.814 30 41.0083C30 41.2026 30.1713 41.3599 30.3828 41.3599H31.1484C31.3599 41.3599 31.5312 41.2026 31.5312 41.0083C31.5312 40.814 31.3599 40.6567 31.1484 40.6567Z" fill="#012547"/>
<path d="M31.1484 42.7656H30.3828C30.1713 42.7656 30 42.9228 30 43.1172C30 43.3116 30.1713 43.4688 30.3828 43.4688H31.1484C31.3599 43.4688 31.5312 43.3116 31.5312 43.1172C31.5312 42.9228 31.3599 42.7656 31.1484 42.7656Z" fill="#012547"/>
<path d="M31.1484 44.875H30.3828C30.1713 44.875 30 45.0323 30 45.2266C30 45.4209 30.1713 45.5781 30.3828 45.5781H31.1484C31.3599 45.5781 31.5312 45.4209 31.5312 45.2266C31.5312 45.0323 31.3599 44.875 31.1484 44.875Z" fill="#012547"/>
<path d="M31.1484 46.9844H30.3828C30.1713 46.9844 30 47.1417 30 47.3359C30 47.5303 30.1713 47.6875 30.3828 47.6875H31.1484C31.3599 47.6875 31.5312 47.5303 31.5312 47.3359C31.5312 47.1417 31.3599 46.9844 31.1484 46.9844Z" fill="#012547"/>
<path d="M31.1484 49.0938H30.3828C30.1713 49.0938 30 49.251 30 49.4453C30 49.6396 30.1713 49.7969 30.3828 49.7969H31.1484C31.3599 49.7969 31.5312 49.6397 31.5312 49.4453C31.5312 49.251 31.3599 49.0938 31.1484 49.0938Z" fill="#012547"/>
<path d="M31.1484 51.2031H30.3828C30.1713 51.2031 30 51.3603 30 51.5546C30 51.749 30.1713 51.9062 30.3828 51.9062H31.1484C31.3599 51.9062 31.5312 51.749 31.5312 51.5546C31.5312 51.3603 31.3599 51.2031 31.1484 51.2031Z" fill="#012547"/>
<path d="M31.1484 53.3125H30.3828C30.1713 53.3125 30 53.4698 30 53.6641C30 53.8584 30.1713 54.0156 30.3828 54.0156H31.1484C31.3599 54.0156 31.5312 53.8584 31.5312 53.6641C31.5312 53.4698 31.3599 53.3125 31.1484 53.3125Z" fill="#012547"/>
<path d="M31.1484 55.4219H30.3828C30.1713 55.4219 30 55.5792 30 55.7734C30 55.9677 30.1713 56.125 30.3828 56.125H31.1484C31.3599 56.125 31.5312 55.9677 31.5312 55.7734C31.5312 55.5792 31.3599 55.4219 31.1484 55.4219Z" fill="#012547"/>
<path d="M31.1484 57.5312H30.3828C30.1713 57.5312 30 57.6884 30 57.8828C30 58.0771 30.1713 58.2343 30.3828 58.2343H31.1484C31.3599 58.2343 31.5312 58.0771 31.5312 57.8828C31.5312 57.6884 31.3599 57.5312 31.1484 57.5312Z" fill="#012547"/>
<path d="M31.1484 59.6406H30.3828C30.1713 59.6406 30 59.7978 30 59.9921C30 60.1865 30.1713 60.3437 30.3828 60.3437H31.1484C31.3599 60.3437 31.5312 60.1865 31.5312 59.9921C31.5312 59.7978 31.3599 59.6406 31.1484 59.6406Z" fill="#012547"/>
<path d="M31.1484 61.75H30.3828C30.1713 61.75 30 61.9072 30 62.1015C30 62.2959 30.1713 62.4531 30.3828 62.4531H31.1484C31.3599 62.4531 31.5312 62.2959 31.5312 62.1015C31.5312 61.9072 31.3599 61.75 31.1484 61.75Z" fill="#012547"/>
<path d="M37.2734 40.6567H34.211C33.9994 40.6567 33.8281 40.814 33.8281 41.0083C33.8281 41.2026 33.9994 41.3599 34.211 41.3599H37.2734C37.485 41.3599 37.6562 41.2026 37.6562 41.0083C37.6562 40.814 37.4849 40.6567 37.2734 40.6567Z" fill="#7CCCDB"/>
<path d="M50.2889 42.7656H40.336C40.1244 42.7656 39.9531 42.9228 39.9531 43.1172C39.9531 43.3116 40.1244 43.4688 40.336 43.4688H50.2889C50.5004 43.4688 50.6717 43.3116 50.6717 43.1172C50.6717 42.9228 50.5004 42.7656 50.2889 42.7656Z" fill="#7CCCDB"/>
<path d="M38.8046 42.7656H34.9766C34.7649 42.7656 34.5938 42.9228 34.5938 43.1172C34.5938 43.3116 34.765 43.4688 34.9766 43.4688H38.8045C39.0161 43.4688 39.1875 43.3116 39.1875 43.1172C39.1875 42.9228 39.0162 42.7656 38.8046 42.7656Z" fill="#7CCCDB"/>
<path d="M59.4767 44.875H49.5235C49.3119 44.875 49.1406 45.0323 49.1406 45.2266C49.1406 45.4209 49.3119 45.5781 49.5235 45.5781H59.4767C59.6884 45.5781 59.8595 45.4209 59.8595 45.2266C59.8595 45.0323 59.6884 44.875 59.4767 44.875Z" fill="#7CCCDB"/>
<path d="M47.992 44.875H35.7422C35.5306 44.875 35.3594 45.0323 35.3594 45.2266C35.3594 45.4209 35.5306 45.5781 35.7422 45.5781H47.992C48.2035 45.5781 48.3748 45.4209 48.3748 45.2266C48.3748 45.0323 48.2035 44.875 47.992 44.875Z" fill="#7CCCDB"/>
<path d="M38.0391 49.0938H35.7422C35.5306 49.0938 35.3594 49.251 35.3594 49.4453C35.3594 49.6396 35.5306 49.7969 35.7422 49.7969H38.0391C38.2506 49.7969 38.4218 49.6397 38.4219 49.4453C38.4219 49.251 38.2506 49.0938 38.0391 49.0938Z" fill="#7CCCDB"/>
<path d="M50.1692 49.0938H39.5703C39.3587 49.0938 39.1875 49.251 39.1875 49.4453C39.1875 49.6396 39.3588 49.7969 39.5703 49.7969H50.1692C50.3808 49.7969 50.552 49.6397 50.552 49.4453C50.552 49.251 50.3808 49.0938 50.1692 49.0938Z" fill="#7CCCDB"/>
<path d="M38.0391 57.5312H35.7422C35.5306 57.5312 35.3594 57.6884 35.3594 57.8828C35.3594 58.0771 35.5306 58.2343 35.7422 58.2343H38.0391C38.2506 58.2343 38.4218 58.0771 38.4219 57.8828C38.4219 57.6884 38.2506 57.5312 38.0391 57.5312Z" fill="#7CCCDB"/>
<path d="M50.1692 57.5312H39.5703C39.3587 57.5312 39.1875 57.6884 39.1875 57.8828C39.1875 58.0771 39.3588 58.2343 39.5703 58.2343H50.1692C50.3808 58.2343 50.552 58.0771 50.552 57.8828C50.552 57.6884 50.3808 57.5312 50.1692 57.5312Z" fill="#7CCCDB"/>
<path d="M53.3512 46.9844H36.5078C36.2962 46.9844 36.125 47.1417 36.125 47.3359C36.125 47.5303 36.2963 47.6875 36.5078 47.6875H53.3512C53.5628 47.6875 53.734 47.5303 53.734 47.3359C53.734 47.1417 53.5629 46.9844 53.3512 46.9844Z" fill="#7CCCDB"/>
<path d="M52.5858 51.2031H45.6953C45.4837 51.2031 45.3125 51.3603 45.3125 51.5546C45.3125 51.749 45.4838 51.9062 45.6953 51.9062H52.5858C52.7974 51.9062 52.9686 51.749 52.9686 51.5546C52.9686 51.3603 52.7974 51.2031 52.5858 51.2031Z" fill="#7CCCDB"/>
<path d="M47.2263 53.3125H34.9766C34.7649 53.3125 34.5938 53.4698 34.5938 53.6641C34.5938 53.8584 34.765 54.0156 34.9766 54.0156H47.2263C47.4379 54.0156 47.6092 53.8584 47.6092 53.6641C47.6092 53.4698 47.4379 53.3125 47.2263 53.3125Z" fill="#7CCCDB"/>
<path d="M43.3983 59.6406H34.9766C34.7649 59.6406 34.5938 59.7978 34.5938 59.9921C34.5938 60.1865 34.765 60.3437 34.9766 60.3437H43.3983C43.6098 60.3437 43.7811 60.1865 43.7811 59.9921C43.7811 59.7978 43.6098 59.6406 43.3983 59.6406Z" fill="#7CCCDB"/>
<path d="M55.6485 55.4219H44.9297C44.7181 55.4219 44.5469 55.5792 44.5469 55.7734C44.5469 55.9677 44.7181 56.125 44.9297 56.125H55.6485C55.8602 56.125 56.0315 55.9677 56.0315 55.7734C56.0315 55.5792 55.8602 55.4219 55.6485 55.4219Z" fill="#7CCCDB"/>
<path d="M43.3983 55.4219H35.7422C35.5306 55.4219 35.3594 55.5792 35.3594 55.7734C35.3594 55.9677 35.5306 56.125 35.7422 56.125H43.3983C43.6099 56.125 43.7812 55.9677 43.7812 55.7734C43.7812 55.5792 43.6099 55.4219 43.3983 55.4219Z" fill="#7CCCDB"/>
<path d="M37.2734 61.75H34.211C33.9994 61.75 33.8281 61.9072 33.8281 62.1015C33.8281 62.2959 33.9994 62.4531 34.211 62.4531H37.2734C37.485 62.4531 37.6562 62.2959 37.6562 62.1015C37.6562 61.9072 37.4849 61.75 37.2734 61.75Z" fill="#7CCCDB"/>
<path d="M53.3515 53.3125H48.7578C48.5462 53.3125 48.375 53.4698 48.375 53.6641C48.375 53.8584 48.5463 54.0156 48.7578 54.0156H53.3515C53.563 54.0156 53.7343 53.8584 53.7343 53.6641C53.7343 53.4698 53.5631 53.3125 53.3515 53.3125Z" fill="#7CCCDB"/>
<path d="M44.1639 51.2031H35.7422C35.5306 51.2031 35.3594 51.3603 35.3594 51.5546C35.3594 51.749 35.5306 51.9062 35.7422 51.9062H44.1639C44.3756 51.9062 44.5467 51.749 44.5467 51.5546C44.5467 51.3603 44.3755 51.2031 44.1639 51.2031Z" fill="#7CCCDB"/>
</g>
<defs>
<clipPath id="clip0_69_86">
<rect width="49" height="45" fill="white" transform="translate(30 28)"/>
</clipPath>
</defs>
</svg>
