<svg width="100" height="101" viewBox="0 0 100 101" fill="none" xmlns="http://www.w3.org/2000/svg">
<path opacity="0.05" d="M53.334 2.32959L96.9287 52.9259L47.4675 97.5212L3.87287 46.9248L53.334 2.32959Z" fill="#1D92FF"/>
<path opacity="0.3" d="M52.9123 1.24631L97.7837 53.3244L46.8747 99.2251L2.00329 47.147L52.9123 1.24631Z" stroke="#002547" stroke-width="0.3"/>
<ellipse opacity="0.3" cx="52.778" cy="1.70492" rx="1.66667" ry="1.70492" fill="#002547"/>
<ellipse opacity="0.3" cx="47.0017" cy="99.1127" rx="1.11111" ry="1.13661" fill="#002547"/>
<ellipse opacity="0.3" cx="1.66667" cy="47.1693" rx="1.66667" ry="1.70492" fill="#002547"/>
<ellipse opacity="0.3" cx="98.3327" cy="52.8524" rx="1.66667" ry="1.70492" fill="#002547"/>
<path d="M62.3812 54.3975L58.074 56.7804C57.5296 56.0007 56.505 55.4813 55.3626 55.4813H51.5594C50.7409 55.4813 50.3577 54.984 49.973 54.7529C47.0331 52.6203 42.5998 52.6203 39.6615 54.7516L38.8311 55.3506H30.7812C30.3497 55.3506 30 55.6432 30 56.0043V63.8477C30 64.2087 30.3497 64.5014 30.7812 64.5014H38.8922L52.8905 66.4533C53.0966 66.4822 53.3092 66.4405 53.4791 66.3369L69.6789 56.4613C70.0259 56.2493 70.104 55.8424 69.8524 55.5506C68.1374 53.561 64.8576 53.0532 62.3812 54.3975ZM52.824 65.1187L39.0853 63.203C39.043 63.1971 39 63.194 38.9569 63.194H31.5625V56.6579H39.1217C39.5956 56.6579 39.7305 56.3765 40.6836 55.7405C43.0398 54.0314 46.5935 54.0314 48.9499 55.7407C49.2775 55.9256 50.0453 56.7887 51.5594 56.7887H55.3626C56.2107 56.7887 56.9251 57.3503 56.9251 58.0599C56.9251 58.7646 56.2245 59.3378 55.3626 59.3378H45.9876C45.5567 59.3378 45.2067 59.6304 45.2067 59.9915C45.2067 60.3523 45.5567 60.6451 45.9876 60.6451H55.3626C57.0618 60.6451 58.4486 59.5173 58.4869 58.1192L63.2373 55.491C64.7839 54.6513 66.7715 54.8211 68.0679 55.8258L52.824 65.1187Z" fill="#012547"/>
<path d="M55.4688 45.8069C55.4688 46.168 55.1188 46.4606 54.6871 46.4606C54.2562 46.4606 53.9062 46.168 53.9062 45.8069C53.9062 45.4459 54.2562 45.1533 54.6871 45.1533C55.1188 45.1533 55.4688 45.4459 55.4688 45.8069Z" fill="#7CCCDB"/>
<path d="M45.2324 49.0753H63.9824C64.414 49.0753 64.7633 48.7826 64.7633 48.4218V45.8706L67.1298 35.74C67.1898 35.481 67.0582 35.217 66.7958 35.0707C66.5333 34.9244 66.192 34.9244 65.9296 35.0707L59.548 38.63L55.2943 33.2911C55.149 33.1093 54.9053 33 54.6443 33C54.3833 33 54.1389 33.1093 53.9943 33.2911L49.7399 38.6298L43.359 35.0707C43.0972 34.9247 42.7567 34.9242 42.4942 35.0695C42.2321 35.2147 42.0997 35.4774 42.1582 35.7361L44.4515 45.8686V48.4218C44.4515 48.7826 44.8007 49.0753 45.2324 49.0753ZM49.5237 40.0803C49.8823 40.2805 50.3675 40.1992 50.6068 39.899L54.6443 34.832L58.6818 39.899C58.9211 40.1992 59.4055 40.2805 59.7649 40.0803L65.2369 37.0283L63.3389 45.1536H58.2009C57.7693 45.1536 57.42 45.4463 57.42 45.8073C57.42 46.1683 57.7693 46.4609 58.2009 46.4609H63.2008V47.7682H46.014V46.4609H51.17C51.6017 46.4609 51.9517 46.1683 51.9517 45.8073C51.9517 45.4463 51.6017 45.1536 51.17 45.1536H45.8795L44.0394 37.0212L49.5237 40.0803Z" fill="#7CCCDB"/>
</svg>
