<svg width="42" height="42" viewBox="0 0 42 42" fill="none" xmlns="http://www.w3.org/2000/svg">
<path fill-rule="evenodd" clip-rule="evenodd" d="M21 42C32.598 42 42 32.598 42 21C42 9.40202 32.598 0 21 0C9.40202 0 0 9.40202 0 21C0 32.598 9.40202 42 21 42ZM17.21 25.02V12.06H13.01V24.99C13.01 26.77 13.38 28.28 14.12 29.52C14.86 30.74 15.86 31.66 17.12 32.28C18.4 32.9 19.82 33.21 21.38 33.21C22.96 33.21 24.39 32.9 25.67 32.28C26.97 31.66 28 30.74 28.76 29.52C29.54 28.28 29.93 26.77 29.93 24.99V12.06H25.7V25.02C25.7 26.44 25.33 27.53 24.59 28.29C23.85 29.03 22.8 29.4 21.44 29.4C20.1 29.4 19.06 29.03 18.32 28.29C17.58 27.53 17.21 26.44 17.21 25.02Z" fill="white"/>
</svg>
