<svg width="45" height="45" viewBox="0 0 45 45" fill="none" xmlns="http://www.w3.org/2000/svg">
<g clip-path="url(#clip0_13402_84)">
<path d="M27.2461 16.6992C26.7609 16.6992 26.3672 17.0929 26.3672 17.5781C26.3672 18.0632 26.7609 18.4569 27.2461 18.4569C27.7312 18.4569 28.125 18.0632 28.125 17.5781C28.125 17.0929 27.7312 16.6992 27.2461 16.6992Z" fill="#7CCCDB"/>
<path d="M43.9701 38.9987L32.2383 27.2671C34.1496 24.3883 35.1562 21.0546 35.1562 17.5781C35.1562 7.88555 27.2707 0 17.5781 0C7.88555 0 0 7.88555 0 17.5781C0 27.2707 7.88555 35.1562 17.5781 35.1562C21.0547 35.1562 24.3884 34.1495 27.2671 32.2385L30.5098 35.4811C30.5102 35.4816 30.5107 35.4821 30.5112 35.4826L38.9987 43.9701C39.6629 44.6341 40.5456 45 41.4844 45C42.4232 45 43.3059 44.6342 43.9697 43.9703C44.6342 43.3064 45 42.4236 45 41.4844C45 40.5451 44.6341 39.6623 43.9701 38.9987ZM26.8538 30.3861C26.8538 30.3862 26.8536 30.3862 26.8535 30.3864C24.1407 32.3568 20.9333 33.3984 17.5781 33.3984C8.85481 33.3984 1.75781 26.3015 1.75781 17.5781C1.75781 8.85481 8.85481 1.75781 17.5781 1.75781C26.3015 1.75781 33.3984 8.85481 33.3984 17.5781C33.3984 20.9333 32.3568 24.1407 30.3863 26.8536C29.4004 28.2118 28.212 29.4004 26.8538 30.3861ZM28.6977 31.183C29.6074 30.4388 30.4389 29.6073 31.183 28.6977L33.6765 31.1912C32.9182 32.0862 32.0862 32.9183 31.1912 33.6765L28.6977 31.183ZM42.727 42.727C42.3948 43.0593 41.9535 43.2422 41.4844 43.2422C41.0153 43.2422 40.5739 43.0593 40.2417 42.727L32.4375 34.9228C33.3276 34.1589 34.1589 33.3276 34.9227 32.4376L42.7273 40.242C43.0593 40.5737 43.2422 41.0149 43.2422 41.4844C43.2422 41.9538 43.0593 42.3951 42.727 42.727Z" fill="#042749"/>
<path d="M17.5781 3.51562C9.82397 3.51562 3.51562 9.82397 3.51562 17.5781C3.51562 25.3323 9.82397 31.6406 17.5781 31.6406C25.3323 31.6406 31.6406 25.3323 31.6406 17.5781C31.6406 9.82397 25.3323 3.51562 17.5781 3.51562ZM17.5781 29.8828C10.7933 29.8828 5.27344 24.3629 5.27344 17.5781C5.27344 10.7933 10.7933 5.27344 17.5781 5.27344C24.3629 5.27344 29.8828 10.7933 29.8828 17.5781C29.8828 24.3629 24.3629 29.8828 17.5781 29.8828Z" fill="#7CCCDB"/>
<path d="M27.4276 13.8052C26.6707 11.8354 25.3529 10.1513 23.6166 8.93496C21.8389 7.68956 19.7508 7.03125 17.5781 7.03125C17.0927 7.03125 16.6992 7.42482 16.6992 7.91016C16.6992 8.39549 17.0927 8.78906 17.5781 8.78906C21.1903 8.78906 24.4889 11.0582 25.7867 14.4358C25.921 14.7852 26.2541 14.9996 26.6073 14.9996C26.7121 14.9996 26.8187 14.9807 26.9223 14.941C27.3754 14.7669 27.6016 14.2584 27.4276 13.8052Z" fill="#042749"/>
</g>
<defs>
<clipPath id="clip0_13402_84">
<rect width="45" height="45" fill="white"/>
</clipPath>
</defs>
</svg>
