<svg width="100" height="101" viewBox="0 0 100 101" fill="none" xmlns="http://www.w3.org/2000/svg">
<path opacity="0.05" d="M53.334 2.37305L96.9287 52.8436L47.4675 97.3279L3.87287 46.8574L53.334 2.37305Z" fill="#1D92FF"/>
<path opacity="0.3" d="M52.9123 1.29292L97.7834 53.2412L46.8747 99.0275L2.00355 47.0793L52.9123 1.29292Z" stroke="#002547" stroke-width="0.3"/>
<ellipse opacity="0.3" cx="52.778" cy="1.75" rx="1.66667" ry="1.70068" fill="#002547"/>
<ellipse opacity="0.3" cx="47.0017" cy="98.9155" rx="1.11111" ry="1.13379" fill="#002547"/>
<ellipse opacity="0.3" cx="1.66667" cy="47.1016" rx="1.66667" ry="1.70068" fill="#002547"/>
<ellipse opacity="0.3" cx="98.3327" cy="52.7705" rx="1.66667" ry="1.70068" fill="#002547"/>
<path d="M66.2094 42.7355C66.2094 34.045 59.6239 27 51.5002 27C43.3765 27 36.791 34.045 36.791 42.7355C34.6908 43.0152 32.7051 44.4838 32.7051 47.8932V56.1106C32.7051 59.9571 35.222 61.3558 37.6082 61.3558H39.978C40.4293 61.3558 40.7952 60.9643 40.7952 60.4816V43.5572C40.7952 43.0744 40.4293 42.683 39.978 42.683H38.4253C38.4253 34.9582 44.2792 28.6959 51.5002 28.6959C58.7212 28.6959 64.5751 34.9582 64.5751 42.683H63.0224C62.5712 42.683 62.2053 43.0744 62.2053 43.5572V60.4553C62.2053 60.9381 62.5712 61.3295 63.0224 61.3295H64.5751C64.3463 67.3352 61.6496 68.7427 56.2644 68.9962V68.4105C56.2644 67.4448 55.5327 66.6621 54.63 66.6621H49.49C48.5873 66.6621 47.8556 67.4448 47.8556 68.4105V71.2516C47.8556 72.2173 48.5873 73 49.49 73H54.6464C55.549 73 56.2807 72.2173 56.2807 71.2516V70.7446C61.4616 70.4911 65.9398 69.3459 66.2094 61.2771C68.3096 60.9973 70.2953 59.5287 70.2953 56.1193V47.9019C70.2953 44.4751 68.3178 43.0152 66.2094 42.7355ZM39.1608 44.3702V59.5811H37.5673C36.3579 59.5811 34.2986 59.1266 34.2986 56.0844V47.867C34.2986 44.851 36.3334 44.3702 37.5673 44.3702H39.1608ZM54.6464 69.9316V71.2604H49.49V68.4192H54.6464V69.9316ZM68.661 56.1106C68.661 59.1266 66.6262 59.6074 65.3923 59.6074H63.8396V44.4314H65.4331C66.6426 44.4314 68.7018 44.886 68.7018 47.9282L68.661 56.1106Z" fill="#012547"/>
</svg>
