<svg width="37" height="52" viewBox="0 0 37 52" fill="none" xmlns="http://www.w3.org/2000/svg">
<path d="M36 13.5V38.5C36 48.5 33.8125 51 25.0625 51H11.9375C3.1875 51 1 48.5 1 38.5V13.5C1 3.5 3.1875 1 11.9375 1H25.0625C33.8125 1 36 3.5 36 13.5Z" stroke="#042749" stroke-width="1.5" stroke-linecap="round" stroke-linejoin="round"/>
<path d="M22.875 9.75H14.125" stroke="#042749" stroke-width="1.5" stroke-linecap="round" stroke-linejoin="round"/>
<path d="M18.5 47C20.433 47 22 45.6569 22 44C22 42.3431 20.433 41 18.5 41C16.567 41 15 42.3431 15 44C15 45.6569 16.567 47 18.5 47Z" stroke="#042749" stroke-width="1.5" stroke-linecap="round" stroke-linejoin="round"/>
<path d="M26.54 20.5397L23.47 17.4697C22.53 16.5297 21.26 16.0098 19.93 16.0098H15C12 16.0098 10 18.0098 10 21.0098V31.0098C10 34.0098 12 36.0098 15 36.0098H23C26 36.0098 28 34.0098 28 31.0098V24.0798C28 22.7398 27.47 21.4697 26.54 20.5397Z" stroke="#7CCCDB" stroke-width="1.5" stroke-linecap="round" stroke-linejoin="round"/>
<path d="M16.5 28L14.5 30L16.5 32" stroke="#7CCCDB" stroke-width="1.5" stroke-linecap="round" stroke-linejoin="round"/>
<path d="M21.5 28L23.5 30L21.5 32" stroke="#7CCCDB" stroke-width="1.5" stroke-linecap="round" stroke-linejoin="round"/>
</svg>
