<svg width="100" height="101" viewBox="0 0 100 101" fill="none" xmlns="http://www.w3.org/2000/svg">
<path opacity="0.05" d="M53.334 2.37305L96.9287 52.8436L47.4675 97.3279L3.87287 46.8574L53.334 2.37305Z" fill="#1D92FF"/>
<path opacity="0.3" d="M52.9123 1.29292L97.7834 53.2412L46.8747 99.0275L2.00355 47.0793L52.9123 1.29292Z" stroke="#002547" stroke-width="0.3"/>
<ellipse opacity="0.3" cx="52.778" cy="1.75" rx="1.66667" ry="1.70068" fill="#002547"/>
<ellipse opacity="0.3" cx="47.0017" cy="98.9155" rx="1.11111" ry="1.13379" fill="#002547"/>
<ellipse opacity="0.3" cx="1.66667" cy="47.1016" rx="1.66667" ry="1.70068" fill="#002547"/>
<ellipse opacity="0.3" cx="98.3327" cy="52.7705" rx="1.66667" ry="1.70068" fill="#002547"/>
<path d="M62.6316 36.5093C62.2827 36.5093 62 36.7638 62 37.0777V37.1535C62 37.4674 62.2828 37.7219 62.6316 37.7219C62.9803 37.7219 63.2631 37.4674 63.2631 37.1535V37.0777C63.2631 36.7637 62.9804 36.5093 62.6316 36.5093Z" fill="#7CCCDB"/>
<path d="M55.1884 56.2969C53.6263 56.2969 52.3555 57.4406 52.3555 58.8465C52.3555 60.2523 53.6263 61.3961 55.1884 61.3961C56.7504 61.3961 58.0213 60.2524 58.0213 58.8465C58.0213 57.4406 56.7505 56.2969 55.1884 56.2969ZM55.1884 60.2593C54.3228 60.2593 53.6186 59.6255 53.6186 58.8465C53.6186 58.0675 54.3227 57.4337 55.1884 57.4337C56.054 57.4337 56.7581 58.0674 56.7581 58.8465C56.7582 59.6255 56.054 60.2593 55.1884 60.2593Z" fill="#7CCCDB"/>
<path d="M65.157 36.5093C64.8081 36.5093 64.5254 36.7638 64.5254 37.0777V37.1535C64.5254 37.4674 64.8082 37.7219 65.157 37.7219C65.5058 37.7219 65.7885 37.4674 65.7885 37.1535V37.0777C65.7885 36.7637 65.5058 36.5093 65.157 36.5093Z" fill="#7CCCDB"/>
<path d="M66 34.2737H46.421V34.0842C46.421 32.9349 45.3823 32 44.1052 32H37.3684C36.0915 32 35.0527 32.9349 35.0527 34.0842V34.2737H34C31.7945 34.2737 30 35.8887 30 37.8737V60.6105C30 62.5955 31.7945 64.2105 34 64.2105H47.1674C48.0453 64.7833 49.2518 64.875 50.2498 64.3564L50.8384 64.0506C51.3078 64.3691 51.8155 64.6333 52.3551 64.8399V65.4503C52.3551 66.8562 53.6259 67.9999 55.188 67.9999C56.7501 67.9999 58.0209 66.8562 58.0209 65.4503V64.8399C58.5605 64.6334 59.0682 64.3692 59.5376 64.0506L60.1262 64.3564C61.1242 64.875 62.3305 64.7832 63.2084 64.2105H65.9998C68.2054 64.2105 69.9998 62.5955 69.9998 60.6105V37.8737C70 35.8887 68.2055 34.2737 66 34.2737ZM36.3158 34.0842C36.3158 33.5618 36.788 33.1368 37.3684 33.1368H44.1053C44.6858 33.1368 45.158 33.5618 45.158 34.0842V38.821H36.3158V34.0842ZM31.2631 37.8737C31.2631 36.5155 32.4909 35.4105 34 35.4105H35.0527V38.821H31.2631V37.8737ZM62.9022 62.8547C62.4694 63.5293 61.5074 63.7614 60.7578 63.3718L59.795 62.8716C59.5632 62.751 59.272 62.7752 59.0686 62.9319C58.5076 63.364 57.8718 63.6948 57.1788 63.9153C56.9265 63.9956 56.7577 64.2104 56.7577 64.4513V65.4503C56.7577 66.2294 56.0536 66.8631 55.188 66.8631C54.3224 66.8631 53.6182 66.2294 53.6182 65.4503V64.4513C53.6182 64.2103 53.4495 63.9956 53.1972 63.9153C52.5042 63.6949 51.8684 63.364 51.3074 62.9319C51.1902 62.8417 51.0439 62.7954 50.8966 62.7954C50.7883 62.7954 50.6793 62.8205 50.5809 62.8716L49.6181 63.3718C49.0348 63.675 48.3229 63.6017 47.8318 63.2363C47.8135 63.2202 47.7941 63.205 47.7737 63.1909C47.658 63.0957 47.5562 62.9833 47.4738 62.8546C47.0411 62.18 47.2988 61.3142 48.0484 60.9247L49.0102 60.4249C49.2418 60.3046 49.3641 60.066 49.3155 59.8293C49.2492 59.5063 49.2155 59.1756 49.2155 58.8462C49.2155 58.5167 49.2491 58.1859 49.3155 57.8631C49.3641 57.6264 49.2418 57.3879 49.0102 57.2675L48.0484 56.7677C47.2988 56.3782 47.041 55.5124 47.4738 54.8378C47.6835 54.511 48.022 54.2773 48.427 54.1795C48.8323 54.082 49.2552 54.132 49.6183 54.3206L50.5811 54.8209C50.813 54.9414 51.1041 54.9172 51.3075 54.7605C51.8685 54.3284 52.5043 53.9976 53.1973 53.7771C53.4496 53.6968 53.6183 53.4821 53.6183 53.2412V52.2421C53.6183 51.4631 54.3224 50.8293 55.188 50.8293C56.0537 50.8293 56.7578 51.4631 56.7578 52.2421V53.2412C56.7578 53.4821 56.9265 53.6968 57.1788 53.7771C57.8719 53.9976 58.5077 54.3285 59.0686 54.7605C59.272 54.9172 59.5632 54.9414 59.795 54.8209L60.7578 54.3206C61.121 54.132 61.5438 54.0819 61.949 54.1795C62.3541 54.2772 62.6925 54.511 62.9022 54.8378C63.1119 55.1646 63.1675 55.5453 63.059 55.9098C62.9505 56.2744 62.6906 56.5791 62.3275 56.7677L61.3657 57.2675C61.1341 57.3878 61.0119 57.6264 61.0605 57.863C61.1268 58.1861 61.1604 58.5169 61.1604 58.8462C61.1604 59.1754 61.1268 59.5063 61.0605 59.8296C61.012 60.0662 61.1341 60.3047 61.3657 60.425L62.3275 60.9248C62.6906 61.1135 62.9504 61.4182 63.059 61.7827C63.1675 62.1473 63.1118 62.5279 62.9022 62.8547ZM68.7369 60.6105C68.7369 61.9687 67.5091 63.0737 66 63.0737H64.1831C64.4022 62.5707 64.4373 62.0201 64.2791 61.4885C64.0833 60.8307 63.6145 60.2809 62.9592 59.9404L62.3708 59.6346C62.4059 59.3731 62.4237 59.1093 62.4237 58.8464C62.4237 58.5835 62.406 58.3197 62.3708 58.0582L62.9592 57.7524C63.6145 57.4119 64.0834 56.8621 64.2791 56.2043C64.4749 55.5465 64.3745 54.8594 63.9961 54.2697C63.6177 53.6799 63.0068 53.2579 62.2759 53.0817C61.545 52.9054 60.7816 52.9959 60.1263 53.3365L59.5377 53.6423C59.0684 53.3237 58.5607 53.0595 58.021 52.853V52.2424C58.021 50.8365 56.7502 49.6928 55.1881 49.6928C53.6261 49.6928 52.3552 50.8366 52.3552 52.2424V52.8529C51.8155 53.0594 51.3079 53.3236 50.8385 53.6422L50.2499 53.3364C48.8972 52.6335 47.1612 53.0521 46.38 54.2696C45.5991 55.4871 46.0641 57.0495 47.4169 57.7525L48.0053 58.0583C47.9702 58.3197 47.9525 58.5835 47.9525 58.8464C47.9525 59.1095 47.9702 59.3732 48.0054 59.6346L47.417 59.9404C46.1907 60.5777 45.6938 61.9212 46.1934 63.0738H34C32.4909 63.0737 31.2631 61.9687 31.2631 60.6105V39.9579H68.7368L68.7369 60.6105ZM68.7369 38.8211H46.421V35.4105H66C67.5091 35.4105 68.7369 36.5155 68.7369 37.8737V38.8211Z" fill="#012547"/>
<path d="M46.5476 43.7472H65.0739C65.4227 43.7472 65.7055 43.4926 65.7055 43.1788C65.7055 42.8648 65.4227 42.6104 65.0739 42.6104H46.5476C46.1987 42.6104 45.916 42.8649 45.916 43.1788C45.916 43.4926 46.1988 43.7472 46.5476 43.7472Z" fill="#7CCCDB"/>
<path d="M36.4427 60.421H44.0216C44.3705 60.421 44.6532 60.1665 44.6532 59.8526C44.6532 59.5386 44.3704 59.2842 44.0216 59.2842H36.4427C35.8623 59.2842 35.3901 58.8592 35.3901 58.3368V48.4841C35.3901 47.9617 35.8623 47.5367 36.4427 47.5367H63.3901C63.9705 47.5367 64.4427 47.9617 64.4427 48.4841V52.2736C64.4427 52.5875 64.7255 52.842 65.0743 52.842C65.4231 52.842 65.7059 52.5875 65.7059 52.2736V48.4841C65.7059 47.3348 64.667 46.3999 63.3901 46.3999H36.4427C35.1658 46.3999 34.127 47.3348 34.127 48.4841V58.3367C34.127 59.486 35.1658 60.421 36.4427 60.421Z" fill="#7CCCDB"/>
<path d="M34.7585 43.7472H40.6533C41.0021 43.7472 41.2848 43.4926 41.2848 43.1788C41.2848 42.8648 41.002 42.6104 40.6533 42.6104H34.7585C34.4097 42.6104 34.127 42.8649 34.127 43.1788C34.127 43.4926 34.4097 43.7472 34.7585 43.7472Z" fill="#7CCCDB"/>
<path d="M55.1886 54.3154C52.4127 54.3154 50.1543 56.348 50.1543 58.8463C50.1543 61.3446 52.4127 63.3772 55.1886 63.3772C57.9645 63.3772 60.2229 61.3446 60.2229 58.8463C60.2229 56.348 57.9645 54.3154 55.1886 54.3154ZM55.1886 62.2402C53.1092 62.2402 51.4175 60.7177 51.4175 58.8462C51.4175 56.9747 53.1092 55.4522 55.1886 55.4522C57.268 55.4522 58.9597 56.9748 58.9597 58.8462C58.9597 60.7177 57.268 62.2402 55.1886 62.2402Z" fill="#7CCCDB"/>
<path d="M60.1062 36.5093C59.7573 36.5093 59.4746 36.7638 59.4746 37.0777V37.1535C59.4746 37.4674 59.7574 37.7219 60.1062 37.7219C60.455 37.7219 60.7377 37.4674 60.7377 37.1535V37.0777C60.7378 36.7637 60.455 36.5093 60.1062 36.5093Z" fill="#7CCCDB"/>
</svg>
