<svg width="45" height="45" viewBox="0 0 45 45" fill="none" xmlns="http://www.w3.org/2000/svg">
<g clip-path="url(#clip0_13401_39)">
<path d="M16.3671 16.7207C13.6405 16.7207 11.4219 18.9393 11.4219 21.6663C11.4219 24.393 13.6405 26.6116 16.3671 26.6116C19.0941 26.6116 21.3128 24.393 21.3128 21.6663C21.3128 18.9393 19.0941 16.7207 16.3671 16.7207ZM16.3671 25.275C14.3776 25.275 12.7588 23.6559 12.7588 21.666C12.7588 19.6761 14.3776 18.0573 16.3671 18.0573C18.357 18.0573 19.9761 19.6761 19.9761 21.666C19.9761 23.6559 18.357 25.275 16.3671 25.275Z" fill="#7CCCDB"/>
<path d="M16.3695 19.3945C15.1167 19.3945 14.0977 20.4134 14.0977 21.6666C14.0977 22.9194 15.1167 23.9387 16.3695 23.9387C17.6223 23.9387 18.6416 22.9194 18.6416 21.6666C18.6416 20.4134 17.6226 19.3945 16.3695 19.3945ZM16.3695 22.6018C15.8538 22.6018 15.4343 22.1823 15.4343 21.6662C15.4343 21.1507 15.8538 20.731 16.3695 20.731C16.8855 20.731 17.305 21.1507 17.305 21.6662C17.305 22.1823 16.8855 22.6018 16.3695 22.6018Z" fill="#7CCCDB"/>
<path d="M33.6759 21.666C33.6759 18.9393 31.4573 16.7207 28.7303 16.7207C26.0037 16.7207 23.7852 18.9393 23.7852 21.666C23.7852 24.393 26.0037 26.6116 28.7303 26.6116C31.4573 26.6116 33.6759 24.393 33.6759 21.666ZM28.7303 25.275C26.7408 25.275 25.1217 23.6559 25.1217 21.666C25.1217 19.6761 26.7408 18.0573 28.7303 18.0573C30.7202 18.0573 32.339 19.6761 32.339 21.666C32.339 23.6559 30.7202 25.275 28.7303 25.275Z" fill="#7CCCDB"/>
<path d="M28.7289 19.3945C27.4761 19.3945 26.457 20.4134 26.457 21.6666C26.457 22.9194 27.4761 23.9387 28.7289 23.9387C29.9815 23.9387 31.0009 22.9194 31.0009 21.6666C31.0009 20.4134 29.9815 19.3945 28.7289 19.3945ZM28.7289 22.6018C28.2132 22.6018 27.7936 22.1823 27.7936 21.6662C27.7936 21.1507 28.2132 20.731 28.7289 20.731C29.2448 20.731 29.6644 21.1507 29.6644 21.6662C29.6644 22.1823 29.2448 22.6018 28.7289 22.6018Z" fill="#7CCCDB"/>
<path d="M39.5057 17.7378H39.4414V16.805C39.4417 7.49029 31.8636 -0.0878906 22.5489 -0.0878906C13.2339 -0.0878906 5.65567 7.49029 5.65567 16.805V17.7378H5.59181C4.00978 17.7378 2.72266 19.0249 2.72266 20.607V27.1658C2.72266 28.7478 4.00978 30.0349 5.59181 30.0349H6.44771C7.01076 30.0349 7.53605 29.8712 7.97997 29.5896V29.5962C7.97997 33.6251 11.2577 36.9032 15.2869 36.9032H17.2257V39.1656H13.3866C10.6613 39.1656 8.44449 41.3828 8.44449 44.1078V44.2438C8.44449 44.6128 8.74352 44.9123 9.11259 44.9123H29.7247C30.0938 44.9123 30.3928 44.6128 30.3928 44.2438C30.3928 43.8747 30.0938 43.5756 29.7247 43.5756H9.82018C10.0784 41.8388 11.5793 40.5023 13.3866 40.5023H31.5725C33.3797 40.5023 34.8808 41.8388 35.1386 43.5756H31.9525C31.5831 43.5756 31.284 43.8747 31.284 44.2438C31.284 44.6128 31.5831 44.9123 31.9525 44.9123H35.8461C36.2156 44.9123 36.5146 44.6128 36.5146 44.2438V44.1078C36.5146 41.3828 34.2975 39.1656 31.5725 39.1656H27.7334V36.9032H29.8108C31.4303 36.9032 32.9963 36.3648 34.271 35.3819C34.5597 35.4962 34.8742 35.5597 35.2034 35.5597H35.8269C37.0004 35.5597 37.9898 34.7598 38.2803 33.677C39.3429 33.5654 40.1738 32.6642 40.1738 31.5723V29.9557C41.4345 29.6535 42.3749 28.5179 42.3749 27.1658V20.607C42.3749 19.0249 41.0877 17.7378 39.5057 17.7378ZM6.44771 28.6984H5.59181C4.74689 28.6984 4.05921 28.0107 4.05921 27.1658V20.607C4.05921 19.7621 4.74689 19.0747 5.59181 19.0747H6.44771C7.29126 19.0747 7.9779 19.7603 7.97997 20.6035V27.1692C7.9779 28.0128 7.29161 28.6984 6.44771 28.6984ZM9.31653 29.5962V27.1727C9.31653 27.1703 9.31653 27.1682 9.31653 27.1658V26.5867C10.2898 26.9609 11.1612 27.5892 11.8241 28.4083C12.6921 29.4809 13.1511 30.7787 13.1511 32.1615V35.1701C10.9109 34.3087 9.31653 32.1357 9.31653 29.5962ZM27.6277 35.5662H26.414V30.0779C27.1223 30.3481 27.6277 31.033 27.6277 31.835V35.5662ZM25.0775 35.5662H23.217V29.9529H25.0775V35.5662ZM21.8805 35.5662H20.02V29.9529H21.8805V35.5662ZM18.6835 35.5662H17.4698V31.835C17.4698 31.033 17.9752 30.3481 18.6835 30.0779V35.5662ZM26.3965 39.1656H18.5622V36.9032H26.3965V39.1656ZM28.9643 35.5662V31.835C28.9643 30.0603 27.5206 28.6164 25.7459 28.6164H19.3518C17.5769 28.6164 16.1332 30.0603 16.1332 31.835V35.5662H15.2869C15.0157 35.5662 14.7492 35.5463 14.4877 35.5113V32.1612C14.4877 30.493 13.9105 28.8619 12.8634 27.5675C11.9454 26.4331 10.7008 25.5971 9.31653 25.1735V18.2799C9.31653 14.9885 11.9948 12.3105 15.2869 12.3105H17.8289C18.1983 12.3105 18.4973 12.0115 18.4973 11.6424C18.4973 11.2734 18.1983 10.974 17.8289 10.974H15.2869C11.2896 10.974 8.03352 14.2002 7.98237 18.1848C7.68471 17.9956 7.35066 17.8597 6.99257 17.7903V16.805C6.99257 8.22741 13.971 1.24867 22.5489 1.24867C31.1265 1.24867 38.1049 8.22741 38.1049 16.805V17.7906C37.7472 17.8597 37.4127 17.9956 37.1155 18.1848C37.0639 14.2002 33.8079 10.974 29.8108 10.974H20.0571C19.688 10.974 19.3886 11.2734 19.3886 11.6424C19.3886 12.0115 19.688 12.3109 20.0571 12.3109H29.8108C33.103 12.3109 35.7812 14.9885 35.7812 18.2802L35.7809 25.1739C34.397 25.5978 33.1521 26.4339 32.2344 27.5678C31.1869 28.8622 30.6102 30.4934 30.6102 32.1615V35.5127C30.3465 35.5484 30.0794 35.5665 29.8108 35.5665H28.9643V35.5662ZM32.6638 33.0202C32.6638 33.5867 32.8504 34.1106 33.1651 34.5336C32.7838 34.7931 32.3748 35.007 31.9467 35.1708V32.1612C31.9467 30.7787 32.4053 29.4809 33.2733 28.4086C33.9362 27.5898 34.8076 26.9612 35.7809 26.5867V27.1658C35.7809 27.1692 35.7812 27.1727 35.7812 27.1761V29.5958C35.7812 29.8928 35.7589 30.1888 35.7157 30.4806H35.2034C33.803 30.4806 32.6638 31.6197 32.6638 33.0202ZM35.8272 34.2232H35.2034C34.5401 34.2232 34.0005 33.6835 34.0005 33.0202C34.0005 32.3569 34.5401 31.8171 35.2034 31.8171H35.8272C36.4905 31.8171 37.0303 32.3569 37.0303 33.0202C37.0303 33.6835 36.4905 34.2232 35.8272 34.2232ZM38.2687 32.3222C38.0778 31.6558 37.6215 31.1006 37.0213 30.7797C37.0849 30.3896 37.1178 29.9934 37.1178 29.5962V29.5896C37.5614 29.8712 38.0867 30.0349 38.6501 30.0349H38.8375V31.5723C38.8375 31.9291 38.5962 32.2298 38.2687 32.3222ZM41.0382 27.1658C41.0382 28.0107 40.3509 28.6984 39.5057 28.6984H38.6501C37.8069 28.6984 37.1205 28.0135 37.1178 27.171V20.6018C37.1205 19.7593 37.8069 19.0744 38.6501 19.0744H39.5057C40.3509 19.0744 41.0382 19.7621 41.0382 20.607V27.1658Z" fill="#022648"/>
</g>
<defs>
<clipPath id="clip0_13401_39">
<rect width="45" height="45" fill="white"/>
</clipPath>
</defs>
</svg>
