<svg width="45" height="45" viewBox="0 0 45 45" fill="none" xmlns="http://www.w3.org/2000/svg">
<path d="M20.7108 11.7773H8.4375C7.95208 11.7773 7.55859 12.1708 7.55859 12.6562C7.55859 13.1417 7.95208 13.5352 8.4375 13.5352H20.7108C21.1963 13.5352 21.5898 13.1417 21.5898 12.6562C21.5898 12.1708 21.1963 11.7773 20.7108 11.7773Z" fill="#7CCCDB"/>
<path d="M37.1839 12.0349C37.0204 11.8714 36.7937 11.7773 36.5625 11.7773C36.3313 11.7773 36.1046 11.8714 35.9411 12.0349C35.7776 12.1983 35.6836 12.4251 35.6836 12.6562C35.6836 12.8874 35.7776 13.1142 35.9411 13.2776C36.1046 13.4411 36.3313 13.5352 36.5625 13.5352C36.7937 13.5352 37.0204 13.4411 37.1839 13.2776C37.3474 13.1142 37.4414 12.8874 37.4414 12.6562C37.4414 12.4251 37.3474 12.1983 37.1839 12.0349Z" fill="#7CCCDB"/>
<path d="M33.3121 11.7773H24.9492C24.4638 11.7773 24.0703 12.1708 24.0703 12.6562C24.0703 13.1417 24.4638 13.5352 24.9492 13.5352H33.3121C33.7975 13.5352 34.191 13.1417 34.191 12.6562C34.191 12.1708 33.7975 11.7773 33.3121 11.7773Z" fill="#7CCCDB"/>
<path d="M28.5276 6.85547H8.4375C7.95208 6.85547 7.55859 7.24896 7.55859 7.73438C7.55859 8.21979 7.95208 8.61328 8.4375 8.61328H28.5276C29.013 8.61328 29.4065 8.21979 29.4065 7.73438C29.4065 7.24896 29.013 6.85547 28.5276 6.85547Z" fill="#7CCCDB"/>
<path d="M36.5636 6.85547H33.0586C32.5732 6.85547 32.1797 7.24896 32.1797 7.73438C32.1797 8.21979 32.5732 8.61328 33.0586 8.61328H36.5636C37.049 8.61328 37.4425 8.21979 37.4425 7.73438C37.4425 7.24896 37.049 6.85547 36.5636 6.85547Z" fill="#7CCCDB"/>
<path d="M36.5636 21.6196H33.0586C32.5732 21.6196 32.1797 22.0131 32.1797 22.4985C32.1797 22.984 32.5732 23.3774 33.0586 23.3774H36.5636C37.049 23.3774 37.4425 22.984 37.4425 22.4985C37.4425 22.0131 37.049 21.6196 36.5636 21.6196Z" fill="#7CCCDB"/>
<path d="M29.5757 21.6211H8.4375C7.95208 21.6211 7.55859 22.0146 7.55859 22.5C7.55859 22.9854 7.95208 23.3789 8.4375 23.3789H29.5757C30.0611 23.3789 30.4546 22.9854 30.4546 22.5C30.4546 22.0146 30.0611 21.6211 29.5757 21.6211Z" fill="#7CCCDB"/>
<path d="M15.6207 16.6987H8.4375C7.95208 16.6987 7.55859 17.0922 7.55859 17.5776C7.55859 18.0631 7.95208 18.4565 8.4375 18.4565H15.6207C16.1061 18.4565 16.4996 18.0631 16.4996 17.5776C16.4996 17.0922 16.1061 16.6987 15.6207 16.6987Z" fill="#7CCCDB"/>
<path d="M36.563 16.6987H22.1055C21.62 16.6987 21.2266 17.0922 21.2266 17.5776C21.2266 18.0631 21.62 18.4565 22.1055 18.4565H36.563C37.0484 18.4565 37.4419 18.0631 37.4419 17.5776C37.4419 17.0922 37.0484 16.6987 36.563 16.6987Z" fill="#7CCCDB"/>
<path d="M19.6019 16.9559C19.4384 16.7924 19.2116 16.6992 18.9805 16.6992C18.7493 16.6992 18.5226 16.7924 18.3591 16.9559C18.1956 17.1202 18.1016 17.3461 18.1016 17.5781C18.1016 17.8093 18.1956 18.036 18.3591 18.1995C18.5226 18.363 18.7493 18.457 18.9805 18.457C19.2116 18.457 19.4384 18.363 19.6019 18.1995C19.7653 18.036 19.8594 17.8093 19.8594 17.5781C19.8594 17.3461 19.7653 17.1202 19.6019 16.9559Z" fill="#7CCCDB"/>
<path d="M22.582 29.3555C22.0966 29.3555 21.7031 29.749 21.7031 30.2344C21.7031 30.7198 22.0966 31.1133 22.582 31.1133H22.5904C23.0758 31.1133 23.4651 30.7198 23.4651 30.2344C23.4651 29.749 23.0675 29.3555 22.582 29.3555Z" fill="#7CCCDB"/>
<path d="M41.3086 1.75781H3.69141C1.65595 1.75781 0 3.41376 0 5.44922V30.2344C0 32.6575 1.97139 34.6289 4.39453 34.6289H17.7539V37.9691H16.5234C14.488 37.9691 12.832 39.6251 12.832 41.6605V42.3636C12.832 42.8491 13.2255 43.2425 13.7109 43.2425H31.2891C31.7745 43.2425 32.168 42.8491 32.168 42.3636V41.6605C32.168 39.6251 30.512 37.9691 28.4766 37.9691H27.2461V34.6289H40.6055C43.0286 34.6289 45 32.6575 45 30.2344V5.44922C45 3.41376 43.3441 1.75781 41.3086 1.75781ZM28.4766 39.7269C29.4835 39.7269 30.3131 40.5005 30.4022 41.4847H14.5978C14.6868 40.5005 15.5165 39.7269 16.5234 39.7269H18.6328H26.3672H28.4766ZM19.5117 37.9691V34.6289H25.4883V37.9691H19.5117ZM43.2422 30.2344C43.2422 31.6883 42.0594 32.8711 40.6055 32.8711H26.3672H18.6328H4.39453C2.94064 32.8711 1.75781 31.6883 1.75781 30.2344V27.598H43.2422V30.2344ZM43.2422 25.8402H1.75781V5.44922C1.75781 4.38302 2.62521 3.51563 3.69141 3.51563H41.3086C42.3748 3.51563 43.2422 4.38302 43.2422 5.44922V25.8402Z" fill="#012547"/>
</svg>
