<svg width="290" height="277" viewBox="0 0 290 277" fill="none" xmlns="http://www.w3.org/2000/svg">
<path d="M145 269C225.081 269 290 232.021 290 186.406C290 140.79 225.081 103.812 145 103.812C64.9187 103.812 0 140.79 0 186.406C0 232.021 64.9187 269 145 269Z" fill="#F5F5F5"/>
<path d="M247.197 197.615L278.386 179.851C282.161 177.702 282.161 174.216 278.386 172.091L225.845 142.162C222.07 140.014 215.953 140.014 212.184 142.162L180.995 159.926C177.226 162.075 177.226 165.561 180.995 167.686L233.541 197.615C237.311 199.764 243.427 199.764 247.197 197.615Z" fill="#E0E0E0"/>
<path d="M164.101 256.136C181.774 256.136 196.101 247.974 196.101 237.906C196.101 227.838 181.774 219.677 164.101 219.677C146.428 219.677 132.102 227.838 132.102 237.906C132.102 247.974 146.428 256.136 164.101 256.136Z" fill="#E0E0E0"/>
<path d="M47.1849 230.785L9.83072 209.499C8.42101 208.694 8.42101 207.392 9.83072 206.592L89.0404 161.466C89.8311 161.072 90.7046 160.866 91.5906 160.866C92.4766 160.866 93.3501 161.072 94.1408 161.466L131.495 182.764C132.905 183.57 132.905 184.871 131.495 185.671L52.2852 230.785C51.4946 231.18 50.621 231.385 49.7351 231.385C48.8491 231.385 47.9755 231.18 47.1849 230.785V230.785Z" fill="#E0E0E0"/>
<path d="M203.002 28.4285L206.633 30.4997C206.614 30.3412 206.603 30.1818 206.602 30.0222V28.9895C206.602 27.1391 207.915 26.393 209.537 27.3122C210.234 27.7372 210.83 28.3052 211.285 28.9776C211.551 26.6497 213.397 25.7901 215.641 27.0675C216.92 27.8886 217.984 28.9963 218.746 30.3003C219.509 31.6042 219.948 33.0674 220.028 34.5706V36.1226C220.044 36.7401 219.916 37.3529 219.653 37.9133L222.678 39.6324C223.15 39.9391 223.543 40.3502 223.825 40.8331C224.108 41.3161 224.272 41.8574 224.305 42.414C224.305 43.4407 223.579 43.8585 222.678 43.3452L203.002 32.1412C202.53 31.8346 202.138 31.4234 201.855 30.9405C201.572 30.4576 201.408 29.9163 201.375 29.3596C201.375 28.3329 202.107 27.9211 203.002 28.4285Z" fill="#EBEBEB"/>
<path d="M227.008 18.9138L229.01 19.6838V15.3204C229.01 11.8703 231.8 11.0406 234.831 12.7656C237.856 14.4967 240.318 18.6929 240.318 22.1431V22.7758C240.744 22.6441 241.194 22.6106 241.635 22.6779C242.075 22.7452 242.494 22.9114 242.859 23.1638V23.1638C244.01 23.9021 244.967 24.8977 245.653 26.0698C246.34 27.2418 246.736 28.5572 246.81 29.9089V30.1954L249.599 31.7831C250.357 32.2689 250.987 32.9244 251.44 33.6961C251.892 34.4679 252.153 35.3341 252.201 36.2241C252.201 37.8597 251.039 38.5222 249.599 37.7045L227.008 24.8351C226.251 24.3487 225.621 23.693 225.169 22.9214C224.717 22.1498 224.456 21.284 224.406 20.3941C224.406 18.7586 225.574 18.096 227.008 18.9138Z" fill="#EBEBEB"/>
<path d="M43.4191 196.367C43.4191 196.367 46.4442 181.074 42.7233 167.279C39.0024 153.485 31.0464 143.135 21.7471 139.398C12.4479 135.661 1.94471 141.905 10.2517 151.056C18.5587 160.206 34.7249 171.947 35.9047 196.826L43.4191 196.367Z" fill="#7CCCDB"/>
<g opacity="0.15">
<path d="M43.4152 196.367C43.4152 196.367 46.4403 181.074 42.7194 167.279C38.9985 153.485 31.0425 143.135 21.7432 139.398C12.444 135.661 1.94081 141.905 10.2478 151.056C18.5548 160.206 34.721 171.947 35.9008 196.826L43.4152 196.367Z" fill="#1D92FF"/>
</g>
<path d="M41.849 191.675H41.9639C42.0339 191.67 42.1022 191.651 42.1648 191.62C42.2273 191.588 42.283 191.545 42.3285 191.492C42.3741 191.44 42.4086 191.379 42.4302 191.313C42.4517 191.247 42.4598 191.177 42.454 191.108C40.2699 163.489 24.388 147.259 16.2988 142.538C16.1769 142.467 16.0312 142.446 15.8939 142.481C15.7567 142.516 15.639 142.603 15.5667 142.723C15.4945 142.843 15.4737 142.987 15.5089 143.122C15.5441 143.258 15.6324 143.374 15.7543 143.445C23.6801 148.071 39.2353 164.003 41.3892 191.198C41.3991 191.317 41.4502 191.43 41.5338 191.517C41.6174 191.603 41.7286 191.66 41.849 191.675V191.675Z" fill="white"/>
<path d="M5.92349 179.397C6.18178 180.753 6.84799 182.001 7.83537 182.979C9.14827 184.316 10.7939 185.306 12.0342 186.709C12.3599 187.045 12.5967 187.455 12.724 187.903C12.9962 189.097 11.8648 190.135 11.1509 191.162C10.4066 192.296 10.0886 193.652 10.2522 194.993C10.4158 196.334 11.0506 197.577 12.0463 198.504C14.0611 200.295 16.9894 200.396 19.6333 200.892C21.67 201.259 23.4831 202.391 24.6913 204.049C26.0284 205.983 25.9558 208.574 26.6032 210.759C27.0936 212.294 27.9154 213.707 29.0121 214.899C30.1088 216.091 31.4543 217.035 32.956 217.665C34.7354 218.405 36.6303 218.84 38.5585 218.948C39.9625 219.116 41.3831 218.816 42.594 218.095C44.6813 216.656 44.8991 213.749 44.9233 211.242L45.0141 199.949C45.0141 197.412 45.0141 194.803 44.4091 192.332C43.9795 190.714 43.0054 189.407 42.4669 187.891C41.5957 185.432 41.632 182.155 39.1332 180.657C35.5878 178.532 30.8928 179.701 27.0328 178.179C25.7567 177.593 24.5271 176.912 23.3542 176.144C20.5409 174.496 17.304 173.392 14.0429 173.535C11.3205 173.617 8.72879 174.706 6.78262 176.586C6.4244 176.954 6.15976 177.401 6.01042 177.889C5.86108 178.378 5.83129 178.895 5.92349 179.397V179.397Z" fill="#7CCCDB"/>
<path d="M42.4735 214.871H42.5098C42.5635 214.872 42.6169 214.862 42.6667 214.842C42.7166 214.823 42.762 214.793 42.8003 214.756C42.8386 214.719 42.869 214.674 42.8897 214.625C42.9105 214.577 42.9212 214.524 42.9212 214.471C43.26 189.114 19.0288 178.728 13.0088 177.516C12.9029 177.495 12.7927 177.516 12.7025 177.575C12.6123 177.634 12.5495 177.725 12.5278 177.83C12.5061 177.934 12.5274 178.043 12.587 178.132C12.6466 178.221 12.7395 178.283 12.8454 178.304C18.7323 179.498 42.4311 189.646 42.1044 214.465C42.1038 214.566 42.1413 214.663 42.2095 214.738C42.2778 214.813 42.3718 214.861 42.4735 214.871V214.871Z" fill="white"/>
<path d="M16.9714 192.75C17.0493 192.76 17.1285 192.743 17.1952 192.702C17.2678 192.66 25.0121 188.44 34.6562 192.702C34.7467 192.73 34.8445 192.724 34.931 192.686C35.0175 192.648 35.0867 192.579 35.1255 192.494C35.1643 192.408 35.17 192.312 35.1415 192.223C35.113 192.133 35.0523 192.058 34.9708 192.01C24.9516 187.604 16.8927 192.01 16.8201 192.063C16.7313 192.113 16.6662 192.196 16.6389 192.293C16.6117 192.391 16.6247 192.495 16.6749 192.583C16.7074 192.632 16.7512 192.672 16.8028 192.701C16.8543 192.73 16.9121 192.747 16.9714 192.75V192.75Z" fill="white"/>
<path d="M238.139 187.587C237.99 186.285 237.532 185.037 236.804 183.942C236.076 182.847 235.097 181.936 233.946 181.283C232.803 180.686 231.811 180.74 231.145 181.242L228.652 182.835L234.648 191.699L237.117 190.112C237.806 189.682 238.212 188.81 238.139 187.587Z" fill="#455A64"/>
<path d="M231.37 182.948C232.521 183.6 233.501 184.51 234.228 185.606C234.956 186.701 235.411 187.95 235.557 189.252C235.696 191.639 234.044 192.72 231.866 191.639C230.717 190.986 229.739 190.075 229.012 188.98C228.284 187.885 227.828 186.637 227.679 185.336C227.546 182.93 229.198 181.862 231.37 182.948Z" fill="#37474F"/>
<path d="M230.32 186.625C230.266 185.688 230.816 185.228 231.53 185.593C231.943 185.85 232.288 186.201 232.536 186.616C232.784 187.031 232.929 187.499 232.958 187.98C233.012 188.917 232.462 189.377 231.748 189.013C231.336 188.754 230.992 188.403 230.744 187.988C230.496 187.573 230.351 187.106 230.32 186.625V186.625Z" fill="#263238"/>
<path d="M235.612 178.693C235.612 178.693 235.854 182.991 233.87 184.62C233.495 184.931 233.089 185.151 232.859 185.366C232.351 185.832 232.75 186.608 233.41 186.912C234.372 187.354 239.387 185.718 241.311 181.54L235.612 178.693Z" fill="#7CCCDB"/>
<path opacity="0.6" d="M235.612 178.693C235.612 178.693 235.854 182.991 233.87 184.62C233.495 184.931 233.089 185.151 232.859 185.366C232.351 185.832 232.75 186.608 233.41 186.912C234.372 187.354 239.387 185.718 241.311 181.54L235.612 178.693Z" fill="black"/>
<path d="M233.698 179.922C233.698 179.922 233.94 184.22 231.956 185.85C231.58 186.16 231.175 186.381 230.945 186.596C230.437 187.061 230.836 187.837 231.496 188.142C232.458 188.584 237.473 186.948 239.397 182.77L233.698 179.922Z" fill="#7CCCDB"/>
<path opacity="0.4" d="M233.698 179.922C233.698 179.922 233.94 184.22 231.956 185.85C231.58 186.16 231.175 186.381 230.945 186.596C230.437 187.061 230.836 187.837 231.496 188.142C232.458 188.584 237.473 186.948 239.397 182.77L233.698 179.922Z" fill="black"/>
<path d="M231.594 186.876C231.704 186.937 231.798 187.023 231.869 187.127C231.939 187.231 231.984 187.349 231.999 187.473C231.999 187.706 231.854 187.808 231.642 187.7C231.533 187.639 231.439 187.553 231.37 187.449C231.3 187.345 231.257 187.227 231.243 187.103C231.231 186.87 231.388 186.769 231.594 186.876Z" fill="#263238"/>
<path d="M265.266 169.739C265.117 168.438 264.661 167.19 263.934 166.095C263.206 165 262.229 164.089 261.079 163.435C259.936 162.868 258.943 162.898 258.272 163.394L255.785 164.987L261.781 173.852L264.243 172.264C264.933 171.834 265.332 170.962 265.266 169.739Z" fill="#455A64"/>
<path d="M258.492 165.101C259.641 165.755 260.619 166.666 261.346 167.761C262.073 168.856 262.53 170.104 262.678 171.405C262.818 173.792 261.166 174.873 258.988 173.792C257.838 173.138 256.859 172.226 256.132 171.13C255.405 170.034 254.949 168.785 254.801 167.483C254.662 165.083 256.332 164.021 258.492 165.101Z" fill="#37474F"/>
<path d="M257.41 168.784C257.356 167.841 257.906 167.381 258.62 167.745C259.032 168.004 259.375 168.356 259.623 168.771C259.872 169.185 260.017 169.652 260.048 170.133C260.102 171.07 259.552 171.536 258.838 171.166C258.426 170.908 258.081 170.558 257.833 170.144C257.585 169.73 257.44 169.264 257.41 168.784Z" fill="#263238"/>
<path d="M262.419 161.478C262.419 161.478 262.975 165.143 260.991 166.779C260.616 167.083 260.21 167.304 259.98 167.519C259.472 167.984 259.871 168.766 260.531 169.065C261.493 169.512 266.194 168.516 268.118 164.289L262.419 161.478Z" fill="#7CCCDB"/>
<path opacity="0.6" d="M262.419 161.478C262.419 161.478 262.975 165.143 260.991 166.779C260.616 167.083 260.21 167.304 259.98 167.519C259.472 167.984 259.871 168.766 260.531 169.065C261.493 169.512 266.194 168.516 268.118 164.289L262.419 161.478Z" fill="black"/>
<path d="M260.825 162.081C260.825 162.081 261.067 166.372 259.083 168.008C258.707 168.312 258.302 168.533 258.066 168.748C257.564 169.214 257.963 169.996 258.623 170.3C259.585 170.742 264.6 169.106 266.524 164.928L260.825 162.081Z" fill="#7CCCDB"/>
<path opacity="0.4" d="M260.825 162.081C260.825 162.081 261.067 166.372 259.083 168.008C258.707 168.312 258.302 168.533 258.066 168.748C257.564 169.214 257.963 169.996 258.623 170.3C259.585 170.742 264.6 169.106 266.524 164.928L260.825 162.081Z" fill="black"/>
<path d="M258.716 169.028C258.825 169.089 258.919 169.175 258.988 169.279C259.058 169.383 259.101 169.502 259.115 169.625C259.115 169.858 258.97 169.96 258.764 169.858C258.655 169.796 258.562 169.71 258.492 169.607C258.423 169.503 258.379 169.385 258.365 169.261C258.347 169.028 258.51 168.909 258.716 169.028Z" fill="#263238"/>
<path d="M211.324 174.401C211.177 173.099 210.721 171.85 209.993 170.754C209.266 169.658 208.288 168.746 207.138 168.091C206 167.524 205.008 167.554 204.336 168.056L201.844 169.649L207.84 178.513L210.308 176.92C210.998 176.496 211.397 175.624 211.324 174.401Z" fill="#455A64"/>
<path d="M204.556 169.763C205.709 170.414 206.69 171.325 207.417 172.421C208.145 173.518 208.599 174.769 208.743 176.072C208.882 178.46 207.23 179.54 205.058 178.46C203.906 177.809 202.926 176.899 202.198 175.804C201.471 174.708 201.016 173.458 200.871 172.156C200.732 169.745 202.384 168.676 204.556 169.763Z" fill="#37474F"/>
<path d="M203.476 173.44C203.422 172.502 203.979 172.043 204.686 172.407C205.1 172.664 205.446 173.015 205.695 173.43C205.944 173.845 206.09 174.313 206.12 174.795C206.175 175.732 205.618 176.191 204.91 175.827C204.497 175.569 204.152 175.218 203.903 174.803C203.654 174.388 203.507 173.921 203.476 173.44Z" fill="#263238"/>
<path d="M208.797 165.507C208.797 165.507 209.045 169.799 207.054 171.434C206.679 171.745 206.28 171.965 206.044 172.18C205.542 172.646 205.935 173.422 206.6 173.726C207.562 174.168 212.578 172.532 214.502 168.354L208.797 165.507Z" fill="#7CCCDB"/>
<path opacity="0.6" d="M208.797 165.507C208.797 165.507 209.045 169.799 207.054 171.434C206.679 171.745 206.28 171.965 206.044 172.18C205.542 172.646 205.935 173.422 206.6 173.726C207.562 174.168 212.578 172.532 214.502 168.354L208.797 165.507Z" fill="black"/>
<path d="M206.887 166.736C206.887 166.736 207.135 171.034 205.144 172.664C204.769 172.974 204.364 173.195 204.134 173.41C203.632 173.875 204.025 174.651 204.69 174.956C205.652 175.397 210.668 173.762 212.592 169.584L206.887 166.736Z" fill="#7CCCDB"/>
<path opacity="0.4" d="M206.887 166.736C206.887 166.736 207.135 171.034 205.144 172.664C204.769 172.974 204.364 173.195 204.134 173.41C203.632 173.875 204.025 174.651 204.69 174.956C205.652 175.397 210.668 173.762 212.592 169.584L206.887 166.736Z" fill="black"/>
<path d="M204.787 173.684C204.897 173.746 204.99 173.832 205.06 173.936C205.129 174.039 205.173 174.158 205.187 174.281C205.187 174.514 205.041 174.616 204.83 174.508C204.72 174.447 204.627 174.361 204.557 174.257C204.488 174.153 204.444 174.035 204.43 173.911C204.418 173.684 204.576 173.583 204.787 173.684Z" fill="#263238"/>
<path d="M239.532 156.171C239.386 154.869 238.93 153.62 238.203 152.525C237.475 151.43 236.496 150.519 235.345 149.868C234.201 149.271 233.209 149.33 232.543 149.826L230.051 151.42L236.047 160.284L238.515 158.696C239.205 158.266 239.604 157.395 239.532 156.171Z" fill="#455A64"/>
<path d="M232.739 151.533C233.899 152.179 234.888 153.087 235.624 154.182C236.36 155.278 236.823 156.53 236.974 157.836C237.113 160.224 235.461 161.304 233.283 160.224C232.133 159.57 231.155 158.658 230.427 157.562C229.7 156.466 229.244 155.216 229.096 153.915C228.939 151.521 230.591 150.452 232.739 151.533Z" fill="#37474F"/>
<path d="M231.679 155.216C231.625 154.279 232.182 153.814 232.89 154.178C233.302 154.436 233.647 154.788 233.896 155.202C234.145 155.617 234.291 156.084 234.323 156.565C234.372 157.502 233.821 157.968 233.083 157.598C232.677 157.337 232.338 156.986 232.094 156.572C231.85 156.158 231.708 155.694 231.679 155.216V155.216Z" fill="#263238"/>
<path d="M237.003 147.283C237.003 147.283 237.245 151.575 235.26 153.211C234.885 153.515 234.48 153.736 234.25 153.951C233.742 154.416 234.141 155.198 234.8 155.503C235.768 155.944 240.784 154.309 242.702 150.13L237.003 147.283Z" fill="#7CCCDB"/>
<path opacity="0.6" d="M237.003 147.283C237.003 147.283 237.245 151.575 235.26 153.211C234.885 153.515 234.48 153.736 234.25 153.951C233.742 154.416 234.141 155.198 234.8 155.503C235.768 155.944 240.784 154.309 242.702 150.13L237.003 147.283Z" fill="black"/>
<path d="M235.093 148.513C235.093 148.513 235.335 152.804 233.35 154.44C232.975 154.744 232.57 154.965 232.34 155.18C231.832 155.646 232.231 156.428 232.89 156.732C233.852 157.174 238.868 155.538 240.792 151.36L235.093 148.513Z" fill="#7CCCDB"/>
<path opacity="0.4" d="M235.093 148.513C235.093 148.513 235.335 152.804 233.35 154.44C232.975 154.744 232.57 154.965 232.34 155.18C231.832 155.646 232.231 156.428 232.89 156.732C233.852 157.174 238.868 155.538 240.792 151.36L235.093 148.513Z" fill="black"/>
<path d="M232.988 155.461C233.099 155.522 233.193 155.608 233.263 155.711C233.334 155.815 233.378 155.934 233.394 156.058C233.394 156.29 233.248 156.392 233.037 156.29C232.928 156.228 232.836 156.141 232.767 156.038C232.698 155.934 232.653 155.816 232.637 155.693C232.625 155.461 232.783 155.359 232.988 155.461Z" fill="#263238"/>
<path d="M247.674 185.581C246.289 185.685 244.9 185.439 243.639 184.865L205.268 165.925C203.108 164.851 200.682 162.063 200.531 159.425L198.504 124.04L200.5 123.932L202.521 159.359C202.624 161.15 204.53 163.4 206.151 164.212L244.522 183.128C245.483 183.526 246.523 183.702 247.563 183.643C248.603 183.584 249.616 183.291 250.524 182.788L271.796 170.641C272.365 170.271 272.692 169.829 272.668 169.447C272.644 169.065 272.293 168.701 271.688 168.396L233.384 146.46C231.23 145.391 228.81 142.598 228.658 139.954L227.212 115.785L229.203 115.677L230.661 139.858C230.764 141.649 232.664 143.905 234.291 144.711L272.589 166.647C273.872 167.286 274.61 168.241 274.676 169.345C274.671 169.947 274.504 170.536 274.192 171.053C273.881 171.57 273.436 171.996 272.904 172.288L251.631 184.429C250.433 185.14 249.071 185.536 247.674 185.581V185.581Z" fill="#7CCCDB"/>
<g opacity="0.5">
<path d="M247.678 185.581C246.293 185.685 244.904 185.439 243.643 184.865L205.272 165.925C203.112 164.851 200.686 162.063 200.535 159.425L198.508 124.04L200.504 123.932L202.525 159.359C202.628 161.15 204.534 163.4 206.155 164.212L244.526 183.128C245.487 183.526 246.527 183.702 247.567 183.643C248.607 183.584 249.62 183.291 250.528 182.788L271.8 170.641C272.369 170.271 272.696 169.829 272.672 169.447C272.647 169.065 272.297 168.701 271.691 168.396L233.387 146.46C231.234 145.391 228.813 142.598 228.662 139.954L227.216 115.785L229.207 115.677L230.665 139.858C230.768 141.649 232.667 143.905 234.295 144.711L272.593 166.647C273.876 167.286 274.614 168.241 274.68 169.345C274.675 169.947 274.508 170.536 274.196 171.053C273.885 171.57 273.44 171.996 272.908 172.288L251.635 184.429C250.437 185.14 249.075 185.536 247.678 185.581V185.581Z" fill="black"/>
</g>
<path d="M192.613 88.3267C192.275 87.0458 192.338 85.6941 192.792 84.4489C193.247 83.2037 194.072 82.1231 195.16 81.3488L216.838 67.2379C218.998 65.8411 221.363 66.8081 222.126 69.2494L225.423 79.8088L223.826 80.8414L220.637 71.0163C220.563 70.7309 220.419 70.468 220.217 70.251C220.015 70.0339 219.761 69.8694 219.48 69.772C219.198 69.6746 218.896 69.6473 218.601 69.6925C218.306 69.7378 218.026 69.8542 217.788 70.0314L196.739 83.8021C196.04 84.3044 195.508 85.0005 195.21 85.8019C194.913 86.6033 194.864 87.4738 195.069 88.3028L197.852 97.6563L195.934 98.8979L192.613 88.3267Z" fill="#7CCCDB"/>
<g opacity="0.5">
<path d="M192.613 88.3262C192.275 87.0453 192.338 85.6936 192.792 84.4484C193.247 83.2032 194.072 82.1226 195.16 81.3483L216.838 67.2374C218.998 65.8406 221.363 66.8076 222.126 69.249L225.423 79.8083L223.826 80.8409L220.637 71.0158C220.563 70.7304 220.419 70.4676 220.217 70.2505C220.015 70.0334 219.761 69.8689 219.48 69.7715C219.198 69.6741 218.896 69.6468 218.601 69.692C218.306 69.7373 218.026 69.8537 217.788 70.0309L196.739 83.8016C196.04 84.3039 195.508 85 195.21 85.8014C194.913 86.6028 194.864 87.4733 195.069 88.3023L197.852 97.6558L195.934 98.8974L192.613 88.3262Z" fill="black"/>
</g>
<path d="M195.91 98.8736L225.423 79.7964L228.533 118.763L199.014 137.84L195.91 98.8736Z" fill="#7CCCDB"/>
<path d="M225.426 79.7964L228.536 118.769L279.727 144.251L288.433 111.164L225.426 79.7964ZM243.861 117.575C243.187 117.783 242.457 117.72 241.83 117.399C241.203 117.078 240.73 116.525 240.515 115.862L232.795 96.086C232.633 95.7766 232.538 95.4371 232.518 95.0894C232.497 94.7416 232.551 94.3936 232.676 94.0677C232.801 93.7419 232.994 93.4456 233.242 93.1981C233.49 92.9506 233.789 92.7575 234.118 92.6312C234.447 92.5049 234.799 92.4482 235.152 92.465C235.504 92.4818 235.85 92.5716 236.165 92.7285C236.48 92.8855 236.758 93.1061 236.981 93.376C237.204 93.6459 237.367 93.9591 237.46 94.2953L245.18 114.053C245.329 114.369 245.413 114.712 245.428 115.061C245.442 115.409 245.386 115.757 245.264 116.085C245.141 116.412 244.954 116.712 244.713 116.968C244.473 117.224 244.183 117.43 243.861 117.575ZM258.442 124.344C257.767 124.55 257.037 124.487 256.41 124.166C255.782 123.845 255.308 123.294 255.09 122.631L247.376 102.873C247.214 102.563 247.119 102.224 247.099 101.876C247.078 101.529 247.132 101.18 247.257 100.855C247.382 100.529 247.575 100.232 247.823 99.985C248.072 99.7375 248.37 99.5443 248.699 99.418C249.028 99.2917 249.38 99.2351 249.733 99.2519C250.085 99.2686 250.431 99.3584 250.746 99.5154C251.061 99.6723 251.339 99.8929 251.562 100.163C251.785 100.433 251.948 100.746 252.041 101.082L259.755 120.84C260.045 121.474 260.07 122.196 259.824 122.849C259.579 123.502 259.082 124.032 258.442 124.326V124.344ZM273.017 131.107C272.344 131.315 271.614 131.253 270.988 130.933C270.361 130.613 269.888 130.062 269.671 129.399L261.957 109.642C261.795 109.332 261.701 108.993 261.68 108.645C261.66 108.297 261.713 107.949 261.838 107.624C261.963 107.298 262.156 107.001 262.404 106.754C262.653 106.506 262.951 106.313 263.28 106.187C263.609 106.061 263.961 106.004 264.314 106.021C264.667 106.038 265.012 106.127 265.327 106.284C265.642 106.441 265.92 106.662 266.143 106.932C266.366 107.202 266.529 107.515 266.622 107.851L274.336 127.609C274.627 128.243 274.652 128.965 274.405 129.617C274.158 130.27 273.659 130.799 273.017 131.089V131.107Z" fill="#7CCCDB"/>
<path opacity="0.55" d="M225.426 79.7964L228.536 118.769L279.727 144.251L288.433 111.164L225.426 79.7964ZM243.861 117.575C243.187 117.783 242.457 117.72 241.83 117.399C241.203 117.078 240.73 116.525 240.515 115.862L232.795 96.086C232.633 95.7766 232.538 95.4371 232.518 95.0894C232.497 94.7416 232.551 94.3936 232.676 94.0677C232.801 93.7419 232.994 93.4456 233.242 93.1981C233.49 92.9506 233.789 92.7575 234.118 92.6312C234.447 92.5049 234.799 92.4482 235.152 92.465C235.504 92.4818 235.85 92.5716 236.165 92.7285C236.48 92.8855 236.758 93.1061 236.981 93.376C237.204 93.6459 237.367 93.9591 237.46 94.2953L245.18 114.053C245.329 114.369 245.413 114.712 245.428 115.061C245.442 115.409 245.386 115.757 245.264 116.085C245.141 116.412 244.954 116.712 244.713 116.968C244.473 117.224 244.183 117.43 243.861 117.575ZM258.442 124.344C257.767 124.55 257.037 124.487 256.41 124.166C255.782 123.845 255.308 123.294 255.09 122.631L247.376 102.873C247.214 102.563 247.119 102.224 247.099 101.876C247.078 101.529 247.132 101.18 247.257 100.855C247.382 100.529 247.575 100.232 247.823 99.985C248.072 99.7375 248.37 99.5443 248.699 99.418C249.028 99.2917 249.38 99.2351 249.733 99.2519C250.085 99.2686 250.431 99.3584 250.746 99.5154C251.061 99.6723 251.339 99.8929 251.562 100.163C251.785 100.433 251.948 100.746 252.041 101.082L259.755 120.84C260.045 121.474 260.07 122.196 259.824 122.849C259.579 123.502 259.082 124.032 258.442 124.326V124.344ZM273.017 131.107C272.344 131.315 271.614 131.253 270.988 130.933C270.361 130.613 269.888 130.062 269.671 129.399L261.957 109.642C261.795 109.332 261.701 108.993 261.68 108.645C261.66 108.297 261.713 107.949 261.838 107.624C261.963 107.298 262.156 107.001 262.404 106.754C262.653 106.506 262.951 106.313 263.28 106.187C263.609 106.061 263.961 106.004 264.314 106.021C264.667 106.038 265.012 106.127 265.327 106.284C265.642 106.441 265.92 106.662 266.143 106.932C266.366 107.202 266.529 107.515 266.622 107.851L274.336 127.609C274.627 128.243 274.652 128.965 274.405 129.617C274.158 130.27 273.659 130.799 273.017 131.089V131.107Z" fill="white"/>
<path d="M228.531 118.763L199.012 137.84L250.209 163.322L279.722 144.251L228.531 118.763Z" fill="#7CCCDB"/>
<path opacity="0.1" d="M228.531 118.763L199.012 137.84L250.209 163.322L279.722 144.251L228.531 118.763Z" fill="black"/>
<path d="M195.91 98.874L199.02 137.87L250.211 163.352L258.917 130.259L195.91 98.874ZM214.345 136.634C213.671 136.843 212.941 136.781 212.313 136.461C211.686 136.141 211.211 135.59 210.993 134.927L203.279 115.188C203.117 114.878 203.023 114.539 203.002 114.191C202.982 113.843 203.036 113.495 203.16 113.169C203.285 112.843 203.478 112.547 203.726 112.3C203.975 112.052 204.273 111.859 204.602 111.733C204.931 111.606 205.284 111.55 205.636 111.567C205.989 111.583 206.334 111.673 206.649 111.83C206.964 111.987 207.242 112.208 207.466 112.478C207.689 112.747 207.852 113.061 207.944 113.397L215.658 133.154C215.948 133.788 215.973 134.509 215.727 135.161C215.481 135.813 214.985 136.342 214.345 136.634ZM228.92 143.403C228.247 143.612 227.518 143.549 226.891 143.23C226.264 142.91 225.791 142.359 225.574 141.696L217.86 121.939C217.698 121.629 217.604 121.29 217.583 120.942C217.563 120.594 217.617 120.246 217.742 119.92C217.866 119.594 218.059 119.298 218.308 119.051C218.556 118.803 218.854 118.61 219.183 118.484C219.512 118.357 219.865 118.301 220.217 118.318C220.57 118.334 220.915 118.424 221.23 118.581C221.545 118.738 221.823 118.959 222.047 119.229C222.27 119.498 222.433 119.812 222.525 120.148L230.239 139.906C230.386 140.221 230.469 140.561 230.482 140.908C230.495 141.254 230.439 141.6 230.317 141.925C230.194 142.25 230.008 142.548 229.768 142.802C229.528 143.055 229.24 143.26 228.92 143.403V143.403ZM243.501 150.172C242.827 150.381 242.097 150.317 241.47 149.996C240.844 149.675 240.371 149.123 240.156 148.459L232.441 128.702C232.279 128.392 232.185 128.053 232.164 127.705C232.144 127.357 232.198 127.009 232.323 126.683C232.447 126.357 232.64 126.061 232.889 125.814C233.137 125.566 233.435 125.373 233.764 125.247C234.093 125.12 234.446 125.064 234.798 125.081C235.151 125.097 235.496 125.187 235.811 125.344C236.126 125.501 236.405 125.722 236.628 125.992C236.851 126.261 237.014 126.575 237.106 126.911L244.838 146.686C245.129 147.324 245.151 148.049 244.901 148.702C244.65 149.356 244.147 149.884 243.501 150.172V150.172Z" fill="#7CCCDB"/>
<path opacity="0.65" d="M195.91 98.874L199.02 137.87L250.211 163.352L258.917 130.259L195.91 98.874ZM214.345 136.634C213.671 136.843 212.941 136.781 212.313 136.461C211.686 136.141 211.211 135.59 210.993 134.927L203.279 115.188C203.117 114.878 203.023 114.539 203.002 114.191C202.982 113.843 203.036 113.495 203.16 113.169C203.285 112.843 203.478 112.547 203.726 112.3C203.975 112.052 204.273 111.859 204.602 111.733C204.931 111.606 205.284 111.55 205.636 111.567C205.989 111.583 206.334 111.673 206.649 111.83C206.964 111.987 207.242 112.208 207.466 112.478C207.689 112.747 207.852 113.061 207.944 113.397L215.658 133.154C215.948 133.788 215.973 134.509 215.727 135.161C215.481 135.813 214.985 136.342 214.345 136.634ZM228.92 143.403C228.247 143.612 227.518 143.549 226.891 143.23C226.264 142.91 225.791 142.359 225.574 141.696L217.86 121.939C217.698 121.629 217.604 121.29 217.583 120.942C217.563 120.594 217.617 120.246 217.742 119.92C217.866 119.594 218.059 119.298 218.308 119.051C218.556 118.803 218.854 118.61 219.183 118.484C219.512 118.357 219.865 118.301 220.217 118.318C220.57 118.334 220.915 118.424 221.23 118.581C221.545 118.738 221.823 118.959 222.047 119.229C222.27 119.498 222.433 119.812 222.525 120.148L230.239 139.906C230.386 140.221 230.469 140.561 230.482 140.908C230.495 141.254 230.439 141.6 230.317 141.925C230.194 142.25 230.008 142.548 229.768 142.802C229.528 143.055 229.24 143.26 228.92 143.403V143.403ZM243.501 150.172C242.827 150.381 242.097 150.317 241.47 149.996C240.844 149.675 240.371 149.123 240.156 148.459L232.441 128.702C232.279 128.392 232.185 128.053 232.164 127.705C232.144 127.357 232.198 127.009 232.323 126.683C232.447 126.357 232.64 126.061 232.889 125.814C233.137 125.566 233.435 125.373 233.764 125.247C234.093 125.12 234.446 125.064 234.798 125.081C235.151 125.097 235.496 125.187 235.811 125.344C236.126 125.501 236.405 125.722 236.628 125.992C236.851 126.261 237.014 126.575 237.106 126.911L244.838 146.686C245.129 147.324 245.151 148.049 244.901 148.702C244.65 149.356 244.147 149.884 243.501 150.172V150.172Z" fill="white"/>
<path d="M258.917 130.229L288.43 111.164L279.724 144.251L250.211 163.322L258.917 130.229Z" fill="#7CCCDB"/>
<path opacity="0.2" d="M258.917 130.229L288.43 111.164L279.724 144.251L250.211 163.322L258.917 130.229Z" fill="white"/>
<path d="M115.075 23.3423V164.511C115.075 165.824 114.137 166.666 112.976 167.323L51.6445 202.266V59.4851L115.075 23.3423Z" fill="#5F737C"/>
<path opacity="0.23" d="M115.075 23.3423V164.511C115.075 165.824 114.137 166.666 112.976 167.323L51.6445 202.266V59.4851L115.075 23.3423Z" fill="black"/>
<path d="M123.226 4.96895L50.8107 46.2332C50.1058 46.6961 49.52 47.3148 49.0999 48.0401C48.6798 48.7654 48.4369 49.5775 48.3906 50.4116V224.243C48.3906 225.783 49.4918 226.41 50.8107 225.64L123.226 184.376C123.931 183.913 124.517 183.294 124.937 182.569C125.357 181.844 125.6 181.032 125.646 180.197V6.36571C125.695 4.82569 124.599 4.19893 123.226 4.96895ZM122.143 168.689C122.143 170.008 121.205 170.85 120.044 171.506L53.7451 209.291C52.5895 209.953 51.6457 209.416 51.6457 208.097V59.4667L122.167 19.2948V168.689H122.143Z" fill="#5F737C"/>
<path opacity="0.5" d="M123.226 4.96895L50.8107 46.2332C50.1058 46.6961 49.52 47.3148 49.0999 48.0401C48.6798 48.7654 48.4369 49.5775 48.3906 50.4116V224.243C48.3906 225.783 49.4918 226.41 50.8107 225.64L123.226 184.376C123.931 183.913 124.517 183.294 124.937 182.569C125.357 181.844 125.6 181.032 125.646 180.197V6.36571C125.695 4.82569 124.599 4.19893 123.226 4.96895ZM122.143 168.689C122.143 170.008 121.205 170.85 120.044 171.506L53.7451 209.291C52.5895 209.953 51.6457 209.416 51.6457 208.097V59.4667L122.167 19.2948V168.689H122.143Z" fill="black"/>
<path d="M122.176 19.3008V168.689C122.176 170.008 121.238 170.844 120.077 171.507L53.7479 209.291C52.5923 209.947 51.6484 209.416 51.6484 208.097V202.271L112.98 167.328C114.141 166.672 115.079 165.83 115.079 164.517V23.3478L122.176 19.3008Z" fill="#5F737C"/>
<path opacity="0.4" d="M53.7479 209.291L120.077 171.507C120.706 171.178 121.257 170.72 121.692 170.164L114.529 166.075C114.1 166.587 113.574 167.011 112.98 167.322L51.6484 202.265V208.091C51.6484 209.416 52.5923 209.947 53.7479 209.291Z" fill="black"/>
<path opacity="0.15" d="M114.528 166.075C114.1 166.587 113.574 167.011 112.98 167.322L51.8359 202.158V202.934L113.167 167.991C113.923 167.618 114.553 167.037 114.982 166.319L114.528 166.075Z" fill="black"/>
<path opacity="0.6" d="M122.175 168.689V19.3008L115.078 23.3478V164.511C115.08 165.079 114.886 165.63 114.527 166.075V166.075L121.691 170.163C122.006 169.735 122.176 169.219 122.175 168.689V168.689Z" fill="black"/>
<path d="M50.5043 225.79C49.7725 226.094 48.9824 226.238 48.1886 226.213C47.3948 226.187 46.616 225.992 45.9061 225.64L43.1048 224.041C42.3909 223.584 41.7962 222.968 41.3694 222.242C40.9425 221.516 40.6955 220.7 40.6484 219.862V46.0424C40.6683 45.4231 40.8144 44.8141 41.078 44.2517C41.1632 44.0474 41.2601 43.8481 41.3684 43.6548L49.0764 48.048C48.9133 48.3318 48.7718 48.6271 48.6529 48.9315C48.4649 49.4098 48.3625 49.9168 48.3504 50.4297V224.25C48.3625 225.664 49.3003 226.309 50.5043 225.79Z" fill="#5F737C"/>
<path opacity="0.6" d="M50.5043 225.79C49.7725 226.094 48.9824 226.238 48.1886 226.213C47.3948 226.187 46.616 225.992 45.9061 225.64L43.1048 224.041C42.3909 223.584 41.7962 222.968 41.3694 222.242C40.9425 221.516 40.6955 220.7 40.6484 219.862V46.0424C40.6683 45.4231 40.8144 44.8141 41.078 44.2517C41.1632 44.0474 41.2601 43.8481 41.3684 43.6548L49.0764 48.048C48.9133 48.3318 48.7718 48.6271 48.6529 48.9315C48.4649 49.4098 48.3625 49.9168 48.3504 50.4297V224.25C48.3625 225.664 49.3003 226.309 50.5043 225.79Z" fill="black"/>
<path d="M88.6394 193.98C89.8918 193.98 90.0249 195.371 90.0249 195.968C89.9484 197.161 89.5935 198.32 88.9879 199.356C88.3824 200.391 87.5426 201.275 86.534 201.937C86.1282 202.19 85.6638 202.335 85.1847 202.361C83.9263 202.361 83.7932 200.976 83.7932 200.379C83.8698 199.186 84.2246 198.027 84.8302 196.991C85.4357 195.956 86.2756 195.073 87.2842 194.41C87.6917 194.157 88.1584 194.011 88.6394 193.986M88.6394 193.246C88.0258 193.268 87.4289 193.449 86.9091 193.771C85.783 194.495 84.8459 195.47 84.1741 196.619C83.5023 197.767 83.1148 199.055 83.043 200.379C83.043 202.104 83.9142 203.101 85.1847 203.101C85.7954 203.078 86.3895 202.899 86.9091 202.582C88.0341 201.857 88.9704 200.881 89.6421 199.733C90.3138 198.585 90.7019 197.298 90.7752 195.974C90.7752 194.243 89.9039 193.246 88.6394 193.246V193.246Z" fill="#37474F"/>
<path d="M86.9756 28.0876C87.8831 27.5742 88.6212 27.992 88.6212 29.0247C88.5898 29.587 88.4244 30.1342 88.1385 30.6216C87.8526 31.1091 87.4541 31.5231 86.9756 31.8302C86.068 32.3495 85.3359 31.9316 85.3359 30.893C85.3667 30.3312 85.5311 29.7844 85.816 29.297C86.1009 28.8096 86.4981 28.3952 86.9756 28.0876V28.0876Z" fill="#37474F"/>
<path d="M78.1547 38.1093L95.9121 27.9619C96.6684 27.5321 97.2795 27.8365 97.2795 28.6483C97.2459 29.102 97.1046 29.5415 96.8671 29.9314C96.6295 30.3213 96.3024 30.6506 95.9121 30.8927L78.1547 41.0401C77.3984 41.4699 76.7812 41.1655 76.7812 40.3597C76.8141 39.9043 76.9557 39.4631 77.1944 39.072C77.433 38.6809 77.7621 38.351 78.1547 38.1093Z" fill="#37474F"/>
<path d="M125.649 5.98394C125.473 4.72446 124.439 4.27081 123.229 4.96919L50.8073 46.2335C50.0879 46.6764 49.4945 47.2926 49.083 48.0242L41.375 43.631C41.789 42.8993 42.3844 42.2832 43.1054 41.8402L115.539 0.581916C116.297 0.199434 117.137 0 117.989 0C118.841 0 119.681 0.199434 120.439 0.581916L123.229 2.17566C123.885 2.6027 124.44 3.16364 124.858 3.82062C125.275 4.4776 125.545 5.21531 125.649 5.98394V5.98394Z" fill="#5F737C"/>
<path opacity="0.3" d="M125.649 5.98394C125.473 4.72446 124.439 4.27081 123.229 4.96919L50.8073 46.2335C50.0879 46.6764 49.4945 47.2926 49.083 48.0242L41.375 43.631C41.789 42.8993 42.3844 42.2832 43.1054 41.8402L115.539 0.581916C116.297 0.199434 117.137 0 117.989 0C118.841 0 119.681 0.199434 120.439 0.581916L123.229 2.17566C123.885 2.6027 124.44 3.16364 124.858 3.82062C125.275 4.4776 125.545 5.21531 125.649 5.98394V5.98394Z" fill="black"/>
<path d="M62.8435 152.31L60.7804 151.116C60.4312 150.9 60.1393 150.605 59.9289 150.255C59.7185 149.905 59.5956 149.511 59.5703 149.105V71.1724C59.5956 70.7664 59.7185 70.3722 59.9289 70.0224C60.1393 69.6726 60.4312 69.3772 60.7804 69.1609L100.446 46.544C100.811 46.3601 101.215 46.2642 101.626 46.2642C102.036 46.2642 102.44 46.3601 102.805 46.544L104.868 47.7378C105.217 47.9559 105.509 48.2524 105.719 48.6031C105.93 48.9538 106.053 49.3487 106.078 49.7554V127.724C106.053 128.13 105.93 128.524 105.72 128.874C105.509 129.223 105.218 129.519 104.868 129.735L65.2031 152.31C64.8382 152.496 64.4337 152.592 64.0233 152.592C63.6129 152.592 63.2084 152.496 62.8435 152.31V152.31Z" fill="#5F737C"/>
<path opacity="0.6" d="M62.8435 152.31L60.7804 151.116C60.4312 150.9 60.1393 150.605 59.9289 150.255C59.7185 149.905 59.5956 149.511 59.5703 149.105V71.1724C59.5956 70.7664 59.7185 70.3722 59.9289 70.0224C60.1393 69.6726 60.4312 69.3772 60.7804 69.1609L100.446 46.544C100.811 46.3601 101.215 46.2642 101.626 46.2642C102.036 46.2642 102.44 46.3601 102.805 46.544L104.868 47.7378C105.217 47.9559 105.509 48.2524 105.719 48.6031C105.93 48.9538 106.053 49.3487 106.078 49.7554V127.724C106.053 128.13 105.93 128.524 105.72 128.874C105.509 129.223 105.218 129.519 104.868 129.735L65.2031 152.31C64.8382 152.496 64.4337 152.592 64.0233 152.592C63.6129 152.592 63.2084 152.496 62.8435 152.31V152.31Z" fill="white"/>
<path d="M65.2071 152.31L104.872 129.717C105.222 129.501 105.514 129.205 105.724 128.856C105.934 128.506 106.057 128.112 106.083 127.706V49.8209C106.083 49.0807 105.556 48.7763 104.872 49.1464L65.2071 71.6797C64.8636 71.8994 64.5777 72.1962 64.3726 72.5458C64.1676 72.8954 64.0493 73.2879 64.0273 73.6913V151.642C64.0273 152.382 64.5416 152.686 65.2071 152.31Z" fill="#5F737C"/>
<path opacity="0.8" d="M65.2071 152.31L104.872 129.717C105.222 129.501 105.514 129.205 105.724 128.856C105.934 128.506 106.057 128.112 106.083 127.706V49.8209C106.083 49.0807 105.556 48.7763 104.872 49.1464L65.2071 71.6797C64.8636 71.8994 64.5777 72.1962 64.3726 72.5458C64.1676 72.8954 64.0493 73.2879 64.0273 73.6913V151.642C64.0273 152.382 64.5416 152.686 65.2071 152.31Z" fill="white"/>
<path d="M106.052 49.7613V49.821C106.052 49.0808 105.526 48.7764 104.842 49.1465L65.207 71.6798C64.9211 71.852 64.6773 72.0843 64.493 72.3602L60.0703 69.8234C60.2529 69.546 60.497 69.3133 60.7842 69.1429L100.45 46.5439C100.814 46.3601 101.217 46.2642 101.626 46.2642C102.036 46.2642 102.439 46.3601 102.803 46.5439L104.872 47.7378C105.216 47.9597 105.503 48.2587 105.708 48.6103C105.913 48.9619 106.031 49.3562 106.052 49.7613V49.7613Z" fill="#5F737C"/>
<path opacity="0.95" d="M106.052 49.7613V49.821C106.052 49.0808 105.526 48.7764 104.842 49.1465L65.207 71.6798C64.9211 71.852 64.6773 72.0843 64.493 72.3602L60.0703 69.8234C60.2529 69.546 60.497 69.3133 60.7842 69.1429L100.45 46.5439C100.814 46.3601 101.217 46.2642 101.626 46.2642C102.036 46.2642 102.439 46.3601 102.803 46.5439L104.872 47.7378C105.216 47.9597 105.503 48.2587 105.708 48.6103C105.913 48.9619 106.031 49.3562 106.052 49.7613V49.7613Z" fill="white"/>
<path d="M86.146 133.77C78.8071 137.948 72.2305 137.465 72.2305 137.465C72.2305 124.804 77.1917 111.571 77.7846 108.986C78.3775 106.402 79.521 102.42 77.7846 100.546C76.0482 98.6717 75.0015 93.6935 75.0015 93.6935C75.0015 93.6935 77.7846 90.3926 77.7846 87.8916V80.3287L80.5616 78.7469V81.1346C80.5616 85.1697 83.0483 87.0261 86.1158 85.2771C89.1832 83.5282 91.6699 78.8424 91.6699 74.8073V72.4197L94.4469 70.8379V78.4007C94.4469 80.9018 97.224 81.0391 97.224 81.0391C97.224 81.0391 96.1894 87.1693 94.4469 91.0612C92.7045 94.953 93.8419 97.5854 94.4469 99.4955C95.052 101.406 100.001 108.992 100.001 121.647C100.001 121.647 93.4547 129.598 86.1158 133.776" fill="#6EC3E0"/>
<path d="M51.6484 59.4912L75.9643 73.3454L146.486 33.1735L122.164 19.3252L51.6484 59.4912Z" fill="#F5F5F5"/>
<path d="M51.6484 59.4917L75.9643 73.346L83.7994 68.8811L59.4835 55.0269L51.6484 59.4917Z" fill="#5F737C"/>
<path d="M67.3242 50.5674L91.6341 64.4157L99.4691 59.9568L75.1593 46.1025L67.3242 50.5674Z" fill="#5F737C"/>
<path d="M82.9961 41.6377L107.312 55.492L115.147 51.0271L90.8311 37.1729L82.9961 41.6377Z" fill="#5F737C"/>
<path d="M98.6641 32.7139L122.98 46.5622L130.815 42.0973L106.499 28.249L98.6641 32.7139Z" fill="#5F737C"/>
<path d="M114.34 23.7842L138.65 37.6385L146.485 33.1736L122.175 19.3193L114.34 23.7842Z" fill="#5F737C"/>
<path d="M83.7969 68.8804C83.7969 71.7277 85.5514 73.0588 87.7174 71.8053C89.8834 70.5518 91.638 67.2628 91.638 64.4155L83.7969 68.8804Z" fill="#E6E6E6"/>
<path d="M99.4766 59.9571C99.4766 62.8043 101.231 64.1354 103.397 62.8819C105.563 61.6284 107.318 58.3394 107.318 55.4922L99.4766 59.9571Z" fill="#E6E6E6"/>
<path d="M115.152 51.0332C115.152 53.8745 116.907 55.2116 119.073 53.9521C121.239 52.6926 122.993 49.4156 122.993 46.5684L115.152 51.0332Z" fill="#E6E6E6"/>
<path d="M130.828 42.1035C130.828 44.9508 132.583 46.2819 134.749 45.0284C136.915 43.7749 138.669 40.4859 138.669 37.6387L130.828 42.1035Z" fill="#E6E6E6"/>
<path d="M75.9648 73.3452C75.9648 76.1925 77.7194 77.5236 79.8854 76.2701C82.0514 75.0166 83.7999 71.7276 83.7999 68.8804L75.9648 73.3452Z" fill="#5F737C"/>
<path d="M91.6406 64.4512C91.6406 67.2985 93.3952 68.6296 95.5612 67.3701C97.7272 66.1106 99.4757 62.8336 99.4757 59.9863L91.6406 64.4512Z" fill="#5F737C"/>
<path d="M107.316 55.4981C107.316 58.3453 109.071 59.6764 111.231 58.4229C113.391 57.1694 115.151 53.8805 115.151 51.0332L107.316 55.4981Z" fill="#5F737C"/>
<path d="M122.992 46.5445C122.992 49.3917 124.747 50.7228 126.907 49.4693C129.067 48.2158 130.827 44.9268 130.827 42.0796L122.992 46.5445Z" fill="#5F737C"/>
<path d="M138.672 37.6386C138.672 40.4858 140.426 41.817 142.586 40.5634C144.746 39.3099 146.507 36.0269 146.507 33.1797L138.672 37.6386Z" fill="#5F737C"/>
<g opacity="0.2">
<path d="M75.9648 73.3457C75.9648 76.193 77.7194 77.5241 79.8854 76.2706C82.0514 75.0171 83.7999 71.7281 83.7999 68.8809L75.9648 73.3457Z" fill="black"/>
<path d="M91.6406 64.4517C91.6406 67.2989 93.3952 68.6301 95.5612 67.3706C97.7272 66.1111 99.4757 62.8341 99.4757 59.9868L91.6406 64.4517Z" fill="black"/>
<path d="M107.316 55.4981C107.316 58.3453 109.071 59.6764 111.231 58.4229C113.391 57.1694 115.151 53.8805 115.151 51.0332L107.316 55.4981Z" fill="black"/>
<path d="M122.996 46.5445C122.996 49.3917 124.751 50.7228 126.911 49.4693C129.071 48.2158 130.831 44.9268 130.831 42.0796L122.996 46.5445Z" fill="black"/>
<path d="M138.672 37.6386C138.672 40.4858 140.426 41.817 142.586 40.5634C144.746 39.3099 146.507 36.0269 146.507 33.1797L138.672 37.6386Z" fill="black"/>
</g>
<path d="M58.9336 163.484C58.9883 162.76 59.2151 162.058 59.5956 161.436C59.9761 160.814 60.4996 160.289 61.1238 159.903L81.3679 148.377C82.5779 147.684 83.552 148.174 83.552 149.463C83.497 150.187 83.2707 150.888 82.8914 151.51C82.5121 152.132 81.9903 152.657 81.3679 153.044L61.1238 164.577C59.9137 165.263 58.9336 164.774 58.9336 163.484Z" fill="#5F737C"/>
<path opacity="0.8" d="M58.9336 163.484C58.9883 162.76 59.2151 162.058 59.5956 161.436C59.9761 160.814 60.4996 160.289 61.1238 159.903L81.3679 148.377C82.5779 147.684 83.552 148.174 83.552 149.463C83.497 150.187 83.2707 150.888 82.8914 151.51C82.5121 152.132 81.9903 152.657 81.3679 153.044L61.1238 164.577C59.9137 165.263 58.9336 164.774 58.9336 163.484Z" fill="white"/>
<path d="M62.0176 169.507C62.2145 169.453 62.4207 169.441 62.6227 169.471C62.7879 169.495 62.9452 169.556 63.0825 169.65C63.2077 169.741 63.3093 169.86 63.3789 169.997C63.4508 170.135 63.4901 170.288 63.4939 170.444C63.4952 170.507 63.4784 170.569 63.4455 170.623C63.4243 170.672 63.3884 170.714 63.3426 170.743L62.3867 171.292C62.3374 171.322 62.2814 171.341 62.2233 171.346C62.1781 171.342 62.1343 171.328 62.0963 171.304L62.0237 171.244C61.9849 171.214 61.9392 171.193 61.8906 171.184C61.8191 171.166 61.7442 171.166 61.6728 171.184C61.5586 171.208 61.4499 171.253 61.3521 171.316C61.2576 171.364 61.1684 171.422 61.0859 171.489C61.0038 171.55 60.927 171.618 60.856 171.692C60.7924 171.766 60.7395 171.848 60.6987 171.936C60.6567 172.022 60.6359 172.116 60.6382 172.211C60.6331 172.247 60.6364 172.283 60.648 172.317C60.6595 172.351 60.6789 172.382 60.7047 172.408C60.7741 172.454 60.8587 172.471 60.9407 172.456C61.0869 172.443 61.2311 172.412 61.3703 172.366L62.0418 172.163C62.2688 172.09 62.505 172.047 62.7437 172.038C62.9194 172.027 63.0945 172.068 63.2458 172.157C63.3858 172.258 63.4896 172.4 63.5423 172.563C63.6149 172.799 63.6476 173.045 63.6391 173.291C63.6395 173.564 63.6008 173.835 63.5241 174.097C63.4435 174.369 63.334 174.631 63.1974 174.879C63.0523 175.137 62.8799 175.379 62.6832 175.601C62.4836 175.828 62.265 176.038 62.0297 176.228V176.909C62.0288 176.984 62.0079 177.058 61.9692 177.124C61.9397 177.188 61.8912 177.242 61.8301 177.279L60.8741 177.822C60.8535 177.835 60.8293 177.842 60.8046 177.842C60.7798 177.842 60.7557 177.835 60.735 177.822C60.7156 177.802 60.7007 177.779 60.6913 177.753C60.6819 177.727 60.6782 177.7 60.6805 177.673V176.962C60.4838 177.016 60.2788 177.034 60.0755 177.016C59.9038 177 59.7393 176.94 59.5975 176.843C59.4625 176.752 59.3557 176.626 59.289 176.479C59.21 176.315 59.1687 176.135 59.168 175.954C59.1706 175.893 59.1871 175.834 59.2164 175.781C59.2394 175.729 59.2773 175.686 59.3253 175.655L60.2812 175.112C60.3287 175.081 60.3824 175.061 60.4385 175.052C60.4797 175.052 60.5198 175.065 60.5535 175.088C60.5858 175.111 60.6162 175.137 60.6442 175.166C60.6886 175.206 60.7428 175.235 60.8015 175.249C60.8831 175.269 60.9681 175.269 61.0496 175.249C61.1808 175.225 61.3061 175.177 61.4187 175.106C61.6541 174.977 61.87 174.817 62.06 174.629C62.1386 174.56 62.2022 174.477 62.2469 174.383C62.2917 174.29 62.3166 174.189 62.3201 174.085C62.3201 173.99 62.2899 173.924 62.2294 173.9C62.1364 173.874 62.038 173.874 61.945 173.9C61.779 173.928 61.6152 173.968 61.455 174.02C61.2614 174.079 61.0254 174.151 60.7592 174.223C60.5847 174.301 60.3929 174.336 60.2016 174.322C60.0102 174.308 59.8254 174.248 59.6641 174.145C59.5286 173.993 59.4272 173.814 59.3667 173.621C59.3062 173.428 59.288 173.224 59.3132 173.023C59.3169 172.785 59.3494 172.549 59.41 172.318C59.4765 172.068 59.5677 171.824 59.6822 171.59C59.8068 171.344 59.9547 171.11 60.1239 170.892C60.3041 170.662 60.5067 170.45 60.7289 170.259V169.549C60.7298 169.474 60.7484 169.4 60.7834 169.334C60.8149 169.271 60.8629 169.217 60.9225 169.179L61.8785 168.63C61.8985 168.615 61.9229 168.606 61.948 168.606C61.9732 168.606 61.9976 168.615 62.0176 168.63C62.0396 168.647 62.0567 168.67 62.0673 168.697C62.0778 168.723 62.0816 168.751 62.0781 168.779L62.0176 169.507Z" fill="#37474F"/>
<path d="M64.0001 170.51C63.9808 170.486 63.9675 170.458 63.9612 170.428C63.9549 170.398 63.9558 170.367 63.9638 170.337C63.9758 170.261 64.0025 170.188 64.0425 170.122L65.6155 167.645C65.6518 167.585 65.7002 167.508 65.7547 167.43C65.8036 167.353 65.8698 167.287 65.9483 167.239L66.8377 166.732C66.8577 166.717 66.8821 166.708 66.9072 166.708C66.9324 166.708 66.9568 166.717 66.9768 166.732C66.9988 166.749 67.0159 166.773 67.0265 166.799C67.037 166.825 67.0408 166.853 67.0373 166.881V173.089C67.0373 173.164 67.0164 173.239 66.9768 173.304C66.9473 173.368 66.8988 173.422 66.8377 173.459L65.8817 174.002C65.8611 174.015 65.8369 174.022 65.8122 174.022C65.7874 174.022 65.7633 174.015 65.7426 174.002C65.7232 173.982 65.7083 173.959 65.6989 173.933C65.6895 173.907 65.6858 173.88 65.6881 173.853V169.674L64.8169 171.029C64.7866 171.091 64.7351 171.139 64.6717 171.167C64.6526 171.181 64.6292 171.189 64.6051 171.189C64.581 171.189 64.5576 171.181 64.5386 171.167L64.0001 170.51Z" fill="#37474F"/>
<path d="M70.0242 164.821C70.3085 164.641 70.6318 164.528 70.968 164.493C71.2028 164.479 71.4347 164.549 71.6215 164.69C71.8063 164.848 71.9408 165.055 72.0087 165.287C72.0975 165.582 72.1463 165.887 72.1539 166.194C72.1539 166.469 72.1539 166.749 72.1539 167.054C72.1539 167.358 72.1539 167.651 72.1539 167.907C72.1405 168.269 72.0919 168.629 72.0087 168.982C71.9233 169.346 71.7933 169.699 71.6215 170.032C71.4432 170.372 71.2238 170.688 70.968 170.975C70.6947 171.271 70.3762 171.523 70.0242 171.721C69.7431 171.903 69.4211 172.014 69.0864 172.044C68.8519 172.064 68.6183 171.996 68.433 171.853C68.2457 171.697 68.1106 171.489 68.0458 171.256C67.9538 170.962 67.903 170.656 67.8945 170.349C67.8945 170.092 67.8945 169.817 67.8945 169.513C67.8945 169.209 67.8945 168.916 67.8945 168.641C67.91 168.277 67.9607 167.916 68.0458 167.561C68.1294 167.196 68.2595 166.843 68.433 166.51C68.6071 166.171 68.8269 165.855 69.0864 165.573C69.3555 165.274 69.6723 165.02 70.0242 164.821V164.821ZM70.8047 168.635C70.8289 168.078 70.8289 167.541 70.8047 167.024C70.8005 166.885 70.7822 166.747 70.7502 166.612C70.7341 166.511 70.6902 166.416 70.6232 166.337C70.5953 166.304 70.5601 166.278 70.5202 166.26C70.4804 166.243 70.4369 166.234 70.3933 166.236C70.2618 166.243 70.1345 166.284 70.0242 166.355C69.8883 166.433 69.7658 166.532 69.6612 166.648C69.5658 166.76 69.4864 166.884 69.4252 167.018C69.3667 167.154 69.324 167.296 69.2982 167.442C69.2678 167.597 69.2496 167.755 69.2437 167.913C69.2195 168.462 69.2195 169 69.2437 169.525C69.2484 169.665 69.2646 169.805 69.2921 169.943C69.31 170.045 69.3561 170.14 69.4252 170.217C69.4548 170.25 69.4913 170.276 69.532 170.293C69.5727 170.311 69.6168 170.32 69.6612 170.319C69.7901 170.308 69.9145 170.267 70.0242 170.199C70.294 170.047 70.5063 169.812 70.6292 169.531C70.6906 169.396 70.7333 169.253 70.7563 169.107C70.7882 168.952 70.8045 168.794 70.8047 168.635V168.635Z" fill="#37474F"/>
<path d="M74.2215 169.006C74.2214 169.082 74.2005 169.156 74.161 169.221C74.1331 169.286 74.0842 169.341 74.0218 169.376L73.0659 169.925C73.0459 169.94 73.0214 169.948 72.9963 169.948C72.9712 169.948 72.9467 169.94 72.9267 169.925C72.9066 169.906 72.8913 169.883 72.8818 169.857C72.8724 169.831 72.8691 169.803 72.8723 169.776V168.522C72.8737 168.446 72.8922 168.37 72.9267 168.302C72.9582 168.239 73.0063 168.185 73.0659 168.146L74.0218 167.603C74.0418 167.588 74.0662 167.58 74.0914 167.58C74.1165 167.58 74.1409 167.588 74.161 167.603C74.1829 167.621 74.2 167.644 74.2106 167.67C74.2212 167.696 74.2249 167.725 74.2215 167.752V169.006Z" fill="#37474F"/>
<path d="M76.1705 166.146C76.2036 166.187 76.24 166.225 76.2794 166.26C76.3226 166.302 76.3741 166.334 76.4307 166.355C76.5007 166.368 76.5724 166.368 76.6424 166.355C76.7457 166.34 76.8446 166.303 76.9328 166.248C77.0397 166.185 77.1392 166.111 77.2293 166.027C77.3214 165.935 77.4044 165.836 77.4774 165.729C77.5484 165.616 77.6052 165.496 77.6468 165.37C77.6889 165.241 77.7093 165.106 77.7073 164.97C77.7188 164.889 77.7068 164.806 77.6725 164.731C77.6383 164.656 77.5832 164.592 77.5137 164.547C77.4244 164.522 77.3305 164.517 77.2392 164.534C77.1479 164.55 77.0617 164.587 76.9873 164.642C76.9164 164.683 76.8513 164.733 76.7937 164.791C76.734 164.848 76.6775 164.908 76.6243 164.97L76.4851 165.132C76.4505 165.169 76.412 165.203 76.3702 165.233L75.2327 165.925C75.2118 165.941 75.1863 165.949 75.1601 165.949C75.1339 165.949 75.1085 165.941 75.0875 165.925C75.0668 165.907 75.0513 165.884 75.0428 165.857C75.0343 165.831 75.0331 165.803 75.0391 165.776L75.2569 162.225C75.2625 162.148 75.283 162.073 75.3174 162.004C75.3469 161.943 75.393 161.891 75.4505 161.855L78.5785 160.064C78.5981 160.048 78.6227 160.039 78.6481 160.039C78.6735 160.039 78.6981 160.048 78.7177 160.064C78.7377 160.083 78.7531 160.106 78.7625 160.132C78.772 160.158 78.7753 160.186 78.7721 160.213V161.234C78.7706 161.309 78.752 161.382 78.7177 161.449C78.6861 161.512 78.6381 161.565 78.5785 161.604L76.4549 162.798L76.4004 163.687C76.4913 163.567 76.5926 163.455 76.7029 163.353C76.8171 163.248 76.9429 163.156 77.0781 163.078C77.3182 162.931 77.5855 162.831 77.8646 162.786C78.0701 162.75 78.282 162.779 78.4696 162.869C78.6598 162.974 78.8073 163.141 78.8871 163.341C78.9937 163.623 79.043 163.923 79.0323 164.224C79.0336 164.6 78.9785 164.974 78.8689 165.335C78.7626 165.687 78.6101 166.024 78.4152 166.337C78.2274 166.644 78.0018 166.927 77.7436 167.179C77.4935 167.422 77.2129 167.633 76.9086 167.806C76.6394 167.973 76.3392 168.087 76.0253 168.14C75.8032 168.184 75.573 168.159 75.3658 168.068C75.1822 167.98 75.0348 167.833 74.9484 167.651C74.8447 167.441 74.7929 167.21 74.7971 166.976C74.7974 166.914 74.8119 166.853 74.8395 166.797C74.8681 166.747 74.9074 166.705 74.9544 166.672L75.8801 166.146C75.9056 166.127 75.9348 166.113 75.966 166.104C75.9971 166.096 76.0297 166.094 76.0616 166.099C76.1012 166.106 76.1386 166.122 76.1705 166.146V166.146Z" fill="#37474F"/>
<path d="M79.5464 161.789C79.5471 161.414 79.6084 161.041 79.7279 160.685C79.8436 160.324 80.0041 159.979 80.2059 159.658C80.3997 159.346 80.6291 159.058 80.8896 158.798C81.1264 158.566 81.3928 158.366 81.6821 158.201C81.9281 158.057 82.1987 157.958 82.4808 157.909C82.712 157.868 82.9505 157.897 83.1644 157.992C83.3752 158.092 83.5442 158.261 83.6424 158.47C83.7741 158.752 83.8363 159.061 83.8239 159.371C83.8234 159.553 83.8072 159.735 83.7755 159.915C83.7445 160.088 83.7041 160.259 83.6545 160.428C83.6001 160.589 83.5456 160.756 83.4791 160.917C83.4125 161.078 83.352 161.234 83.2915 161.383L81.906 164.702L81.8213 164.863C81.7952 164.931 81.7431 164.987 81.6761 165.018L80.5144 165.681C80.4721 165.681 80.4358 165.681 80.4116 165.681C80.3833 165.645 80.3683 165.601 80.3692 165.555C80.3654 165.528 80.3654 165.499 80.3692 165.472C80.3692 165.472 80.3692 165.424 80.3692 165.406L81.307 163.15C81.0891 163.234 80.8574 163.279 80.6233 163.281C80.4198 163.285 80.2198 163.229 80.0486 163.12C79.8731 162.999 79.7366 162.832 79.6553 162.636C79.559 162.365 79.5219 162.076 79.5464 161.789V161.789ZM82.4747 160.123C82.4783 160.016 82.4555 159.91 82.4082 159.813C82.3709 159.738 82.3091 159.677 82.2327 159.64C82.1522 159.608 82.0645 159.598 81.9786 159.61C81.8736 159.626 81.7729 159.663 81.6821 159.718C81.5756 159.783 81.478 159.861 81.3917 159.95C81.2954 160.046 81.2102 160.152 81.1376 160.267C81.0646 160.381 81.0057 160.503 80.9622 160.631C80.92 160.756 80.8975 160.887 80.8956 161.019C80.8922 161.128 80.915 161.236 80.9622 161.335C80.9994 161.409 81.0613 161.468 81.1376 161.502C81.2174 161.537 81.3059 161.548 81.3917 161.532C81.4951 161.517 81.594 161.48 81.6821 161.425C81.7928 161.366 81.893 161.289 81.9786 161.198C82.0749 161.102 82.1601 160.996 82.2327 160.882C82.3057 160.765 82.3646 160.641 82.4082 160.511C82.4503 160.386 82.4728 160.255 82.4747 160.123V160.123Z" fill="#37474F"/>
<path d="M87.9961 158.583C87.9961 159.228 88.4862 159.473 89.0912 159.127L91.0091 158.034C91.3219 157.842 91.5841 157.58 91.7745 157.268C91.9648 156.957 92.0778 156.606 92.1042 156.243C92.1042 155.599 91.6141 155.354 91.0091 155.7L89.0912 156.787C88.7783 156.98 88.5161 157.244 88.3258 157.556C88.1355 157.868 88.0225 158.22 87.9961 158.583Z" fill="#37474F"/>
<path d="M94.1836 155.074C94.1836 155.718 94.6737 155.963 95.2726 155.623L97.1906 154.53C97.5027 154.337 97.7644 154.075 97.9547 153.764C98.1449 153.453 98.2583 153.102 98.2857 152.74C98.2857 152.095 97.7956 151.85 97.1906 152.19L95.2726 153.283C94.962 153.477 94.7017 153.74 94.5125 154.051C94.3234 154.362 94.2108 154.712 94.1836 155.074V155.074Z" fill="#37474F"/>
<path d="M100.309 151.6C100.309 152.244 100.799 152.489 101.404 152.143L103.316 151.057C103.628 150.864 103.889 150.601 104.08 150.29C104.27 149.979 104.383 149.628 104.411 149.266C104.411 148.621 103.921 148.377 103.316 148.723L101.404 149.809C101.092 150.002 100.83 150.264 100.64 150.576C100.449 150.887 100.336 151.238 100.309 151.6V151.6Z" fill="#37474F"/>
<path d="M106.465 148.066C106.465 148.711 106.955 148.956 107.56 148.609L109.478 147.517C109.789 147.324 110.049 147.061 110.239 146.75C110.428 146.439 110.54 146.088 110.567 145.726C110.567 145.082 110.077 144.837 109.478 145.183L107.56 146.276C107.247 146.468 106.985 146.73 106.795 147.041C106.604 147.352 106.491 147.704 106.465 148.066Z" fill="#37474F"/>
<path d="M96.8847 162.177C96.5535 162.02 96.1893 161.941 95.8216 161.947C95.4539 161.953 95.0927 162.044 94.7671 162.213L57.9756 183.171C57.6572 183.375 57.3922 183.651 57.2019 183.976C57.0117 184.3 56.9016 184.665 56.8805 185.039V191.898C56.8656 192.266 56.9532 192.632 57.1337 192.955C57.3143 193.278 57.581 193.547 57.905 193.731C58.229 193.916 58.5979 194.009 58.9719 194.001C59.3458 193.994 59.7106 193.886 60.0267 193.688L96.8182 172.731C97.1366 172.526 97.4016 172.25 97.5919 171.926C97.7821 171.601 97.8922 171.237 97.9133 170.862V164.004C97.8998 163.641 97.7997 163.287 97.6209 162.969C97.4422 162.652 97.1899 162.38 96.8847 162.177V162.177Z" fill="#5F737C"/>
<path opacity="0.3" d="M96.8847 162.177C96.5535 162.02 96.1893 161.941 95.8216 161.947C95.4539 161.953 95.0927 162.044 94.7671 162.213L57.9756 183.171C57.6572 183.375 57.3922 183.651 57.2019 183.976C57.0117 184.3 56.9016 184.665 56.8805 185.039V191.898C56.8656 192.266 56.9532 192.632 57.1337 192.955C57.3143 193.278 57.581 193.547 57.905 193.731C58.229 193.916 58.5979 194.009 58.9719 194.001C59.3458 193.994 59.7106 193.886 60.0267 193.688L96.8182 172.731C97.1366 172.526 97.4016 172.25 97.5919 171.926C97.7821 171.601 97.8922 171.237 97.9133 170.862V164.004C97.8998 163.641 97.7997 163.287 97.6209 162.969C97.4422 162.652 97.1899 162.38 96.8847 162.177V162.177Z" fill="black"/>
<path d="M60.0287 184.34L96.8202 163.383C97.4252 163.037 97.9153 163.317 97.9153 163.98V170.838C97.8943 171.213 97.7842 171.577 97.5939 171.902C97.4037 172.226 97.1386 172.502 96.8202 172.707L60.0287 193.664C59.4237 194.01 58.9336 193.73 58.9336 193.067V186.221C58.9527 185.844 59.062 185.478 59.2523 185.151C59.4426 184.824 59.7087 184.546 60.0287 184.34Z" fill="#5F737C"/>
<path d="M97.8992 163.831C97.8205 163.27 97.3668 163.067 96.8162 163.383L60.0247 184.341C59.7 184.538 59.4331 184.816 59.2502 185.147L57.1992 183.953C57.3838 183.624 57.6503 183.346 57.9736 183.147L94.7893 162.213C95.1151 162.042 95.4771 161.949 95.8461 161.942C96.2151 161.935 96.5806 162.013 96.913 162.171C97.1869 162.364 97.4164 162.611 97.5864 162.897C97.7564 163.183 97.863 163.501 97.8992 163.831V163.831Z" fill="#5F737C"/>
<path opacity="0.5" d="M97.8992 163.831C97.8205 163.27 97.3668 163.067 96.8162 163.383L60.0247 184.341C59.7 184.538 59.4331 184.816 59.2502 185.147L57.1992 183.953C57.3838 183.624 57.6503 183.346 57.9736 183.147L94.7893 162.213C95.1151 162.042 95.4771 161.949 95.8461 161.942C96.2151 161.935 96.5806 162.013 96.913 162.171C97.1869 162.364 97.4164 162.611 97.5864 162.897C97.7564 163.183 97.863 163.501 97.8992 163.831V163.831Z" fill="white"/>
<path d="M63.0973 184.741C63.1699 184.697 63.2243 184.697 63.2606 184.741C63.2962 184.771 63.3233 184.81 63.3393 184.854L64.5493 188.692C64.5557 188.724 64.5557 188.756 64.5493 188.788C64.5479 188.834 64.5354 188.879 64.513 188.919C64.4946 188.958 64.4652 188.991 64.4283 189.015L63.7447 189.403C63.6721 189.444 63.6176 189.456 63.5874 189.433C63.5597 189.412 63.5404 189.382 63.5329 189.349L63.3756 188.836L61.9296 189.665L61.7783 190.346C61.7657 190.398 61.7453 190.449 61.7178 190.495C61.6838 190.559 61.631 190.611 61.5666 190.644L60.8769 191.038C60.8645 191.047 60.8497 191.052 60.8345 191.052C60.8193 191.052 60.8045 191.047 60.7922 191.038C60.7794 191.027 60.7695 191.013 60.7632 190.998C60.7569 190.982 60.7544 190.965 60.7558 190.949C60.7533 190.907 60.7533 190.865 60.7558 190.823L61.9659 185.636C61.9872 185.567 62.0134 185.499 62.0446 185.433C62.0847 185.362 62.1431 185.302 62.214 185.26L63.0973 184.741ZM62.214 188.376L63.0973 187.869L62.6556 186.406L62.214 188.376Z" fill="white"/>
<path d="M66.8501 182.603C67.0572 182.474 67.2905 182.39 67.5337 182.359C67.7205 182.331 67.9112 182.369 68.0722 182.466C68.233 182.568 68.3561 182.719 68.4231 182.896C68.515 183.126 68.5642 183.371 68.5683 183.618C68.5683 183.72 68.5683 183.809 68.5683 183.893V184.37C68.5683 184.448 68.5683 184.537 68.5683 184.639C68.5551 184.939 68.5084 185.238 68.4292 185.528C68.3475 185.816 68.2296 186.093 68.0783 186.352C67.9364 186.61 67.7615 186.848 67.5579 187.062C67.3584 187.274 67.128 187.455 66.8743 187.6L65.4041 188.435C65.3889 188.445 65.371 188.451 65.3526 188.451C65.3343 188.451 65.3163 188.445 65.3012 188.435C65.2855 188.421 65.2734 188.403 65.266 188.384C65.2586 188.364 65.2562 188.343 65.2589 188.322V183.696C65.2584 183.639 65.273 183.584 65.3012 183.535C65.322 183.485 65.358 183.443 65.4041 183.415L66.8501 182.603ZM67.5579 184.167C67.5579 183.63 67.2917 183.493 66.8198 183.761L66.2632 184.078V186.818L66.8682 186.489C67.0873 186.366 67.2687 186.187 67.3932 185.97C67.5178 185.754 67.581 185.508 67.5761 185.26C67.5761 185.152 67.5761 185.057 67.5761 184.973V184.43C67.564 184.352 67.564 184.263 67.564 184.167H67.5579Z" fill="white"/>
<path d="M71.0589 180.204C71.2686 180.076 71.5037 179.992 71.7486 179.96C71.9332 179.938 72.12 179.975 72.281 180.067C72.4437 180.169 72.5689 180.32 72.638 180.497C72.7298 180.729 72.779 180.976 72.7832 181.225C72.7832 181.321 72.7832 181.41 72.7832 181.494V181.971C72.7832 182.055 72.7832 182.144 72.7832 182.24C72.7713 182.541 72.7226 182.84 72.638 183.129C72.5546 183.418 72.4389 183.696 72.2931 183.959C72.1479 184.216 71.9711 184.455 71.7667 184.669C71.5692 184.879 71.3408 185.058 71.0891 185.201L69.6189 186.042C69.5766 186.042 69.5463 186.042 69.5161 186.042C69.5003 186.028 69.4882 186.01 69.4809 185.991C69.4735 185.971 69.471 185.95 69.4737 185.929V181.303C69.4733 181.246 69.4879 181.191 69.5161 181.142C69.5369 181.094 69.573 181.054 69.6189 181.028L71.0589 180.204ZM71.7728 181.768C71.7728 181.231 71.5066 181.094 71.0347 181.362L70.478 181.679V184.431L71.0831 184.102C71.3046 183.981 71.4883 183.803 71.6141 183.586C71.74 183.369 71.8033 183.122 71.797 182.873C71.797 182.771 71.797 182.676 71.797 182.586V182.043C71.803 181.959 71.803 181.864 71.803 181.768H71.7728Z" fill="white"/>
<path d="M77.7691 176.378C77.7834 176.366 77.8017 176.359 77.8206 176.359C77.8395 176.359 77.8577 176.366 77.872 176.378C77.8877 176.392 77.8998 176.41 77.9072 176.429C77.9146 176.449 77.917 176.47 77.9143 176.491V177.267C77.9148 177.324 77.9002 177.379 77.872 177.428C77.8492 177.475 77.8136 177.514 77.7691 177.542L76.8132 178.091V181.762C76.8112 181.819 76.7946 181.874 76.7648 181.923C76.7443 181.973 76.7083 182.015 76.6619 182.042L75.948 182.448C75.9333 182.459 75.9152 182.466 75.8966 182.466C75.878 182.466 75.8599 182.459 75.8452 182.448C75.8294 182.434 75.8173 182.416 75.81 182.397C75.8026 182.377 75.8001 182.356 75.8028 182.335V178.664L74.8469 179.207C74.8317 179.217 74.8138 179.223 74.7955 179.223C74.7771 179.223 74.7592 179.217 74.744 179.207C74.7276 179.193 74.7146 179.176 74.7062 179.156C74.6978 179.136 74.6942 179.115 74.6956 179.094V178.336C74.6976 178.279 74.7142 178.223 74.744 178.174C74.7645 178.125 74.8005 178.083 74.8469 178.055L77.7691 176.378Z" fill="white"/>
<path d="M78.491 177.865C78.5002 177.584 78.5449 177.305 78.6241 177.035C78.7831 176.468 79.0754 175.947 79.4772 175.513C79.6823 175.292 79.9211 175.105 80.185 174.958C80.3996 174.82 80.6443 174.734 80.899 174.707C81.0804 174.685 81.2639 174.725 81.4193 174.82C81.5722 174.927 81.6883 175.077 81.752 175.25C81.8351 175.468 81.8801 175.698 81.8852 175.931C81.8852 176.128 81.8852 176.342 81.8852 176.563C81.8852 176.784 81.8852 177.005 81.8852 177.202C81.8734 177.483 81.8287 177.761 81.752 178.032C81.6752 178.315 81.5634 178.587 81.4193 178.843C81.2771 179.103 81.1023 179.344 80.899 179.56C80.6872 179.775 80.4471 179.962 80.185 180.115C79.9694 180.246 79.7283 180.332 79.4772 180.366C79.2948 180.388 79.1102 180.346 78.9568 180.246C78.8028 180.141 78.6864 179.991 78.6241 179.816C78.5382 179.599 78.493 179.369 78.491 179.136C78.491 178.945 78.491 178.736 78.491 178.539C78.491 178.342 78.4849 178.05 78.491 177.865ZM80.8808 177.739C80.8808 177.656 80.8808 177.554 80.8808 177.447C80.8808 177.339 80.8808 177.232 80.8808 177.124C80.8808 177.017 80.8808 176.909 80.8808 176.808C80.8808 176.707 80.8808 176.617 80.8808 176.539C80.876 176.437 80.8556 176.337 80.8203 176.241C80.797 176.168 80.7528 176.104 80.6933 176.056C80.6314 176.013 80.5569 175.992 80.4815 175.996C80.3758 176.01 80.2745 176.046 80.185 176.104C80.077 176.164 79.9791 176.241 79.8946 176.33C79.8133 176.422 79.7423 176.522 79.6829 176.629C79.6281 176.735 79.5854 176.847 79.5558 176.963C79.5264 177.083 79.5061 177.205 79.4953 177.327C79.4953 177.411 79.4953 177.506 79.4953 177.608V178.253C79.4953 178.354 79.4953 178.449 79.4953 178.527C79.4918 178.708 79.559 178.883 79.6829 179.017C79.7978 179.112 79.9612 179.094 80.185 178.969C80.4034 178.849 80.5788 178.666 80.6872 178.444C80.7981 178.215 80.8619 177.968 80.8748 177.715L80.8808 177.739Z" fill="white"/>
<path d="M84.3703 177.632C84.3552 177.642 84.3373 177.648 84.3189 177.648C84.3005 177.648 84.2826 177.642 84.2675 177.632C84.251 177.618 84.2381 177.6 84.2297 177.581C84.2213 177.561 84.2176 177.54 84.2191 177.518V172.892C84.221 172.835 84.2377 172.78 84.2675 172.731C84.2879 172.682 84.324 172.64 84.3703 172.612L86.1249 171.615C86.3071 171.498 86.5141 171.425 86.7299 171.4C86.8008 171.391 86.8727 171.397 86.9414 171.416C87.01 171.436 87.0739 171.469 87.1292 171.513C87.2384 171.607 87.3147 171.733 87.347 171.872C87.4141 172.16 87.4141 172.46 87.347 172.749C87.3247 172.856 87.2964 172.962 87.2623 173.065C87.2351 173.146 87.2007 173.224 87.1595 173.298C87.1353 173.352 87.107 173.404 87.0748 173.453C87.1424 173.473 87.2045 173.508 87.2559 173.556C87.3074 173.604 87.3469 173.663 87.3712 173.728C87.4368 173.91 87.4656 174.102 87.4559 174.295C87.4554 174.496 87.4352 174.695 87.3954 174.892C87.3465 175.099 87.2734 175.299 87.1776 175.489C87.0776 175.705 86.9473 175.906 86.7904 176.086C86.6164 176.273 86.4119 176.43 86.1854 176.551L84.3703 177.632ZM86.4032 172.982C86.4032 172.857 86.4032 172.773 86.3185 172.731C86.2338 172.689 86.1854 172.695 86.0704 172.761L85.2294 173.239V174.056L86.0704 173.579C86.1776 173.52 86.2641 173.431 86.3185 173.322C86.3769 173.218 86.4061 173.101 86.4032 172.982V172.982ZM85.2294 176.032L86.1309 175.525C86.2396 175.456 86.3291 175.362 86.3911 175.25C86.4513 175.136 86.4844 175.009 86.4879 174.88C86.4927 174.833 86.4865 174.785 86.4697 174.741C86.453 174.696 86.426 174.656 86.3911 174.623C86.3525 174.598 86.3073 174.585 86.261 174.585C86.2148 174.585 86.1695 174.598 86.1309 174.623L85.2294 175.137V176.032Z" fill="white"/>
<path d="M90.3174 169.239C90.39 169.199 90.4445 169.199 90.4808 169.239C90.5189 169.267 90.5465 169.307 90.5594 169.352L91.7695 173.184C91.7758 173.216 91.7758 173.248 91.7695 173.28C91.7696 173.326 91.757 173.371 91.7332 173.411C91.7168 173.452 91.6869 173.485 91.6485 173.507L90.9648 173.901C90.8922 173.942 90.8378 173.948 90.8075 173.901C90.779 173.881 90.7594 173.851 90.7531 173.817L90.6018 173.31L89.1497 174.133L88.9985 174.814C88.9887 174.869 88.9682 174.922 88.938 174.969C88.9023 175.032 88.85 175.083 88.7867 175.118L88.097 175.506C88.0846 175.515 88.0698 175.52 88.0546 175.52C88.0394 175.52 88.0246 175.515 88.0123 175.506C88.0011 175.478 88.0011 175.446 88.0123 175.417C88.0085 175.377 88.0085 175.337 88.0123 175.297L89.2223 170.11C89.2416 170.04 89.2679 169.972 89.301 169.907C89.3393 169.835 89.3982 169.775 89.4704 169.734L90.3174 169.239ZM89.4341 172.868L90.3174 172.367L89.8758 170.898L89.4341 172.868Z" fill="white"/>
<path d="M93.948 168.242C93.8309 168.302 93.7262 168.383 93.6394 168.481C93.5579 168.573 93.4887 168.675 93.4337 168.785C93.3802 168.889 93.3415 168.999 93.3188 169.113C93.2898 169.227 93.2696 169.343 93.2582 169.46C93.2582 169.525 93.2582 169.615 93.2582 169.728V170.069C93.2582 170.188 93.2582 170.301 93.2582 170.409C93.2582 170.516 93.2582 170.606 93.2582 170.665C93.2689 170.762 93.2871 170.858 93.3127 170.952C93.3354 171.027 93.3771 171.094 93.4337 171.149C93.492 171.194 93.5656 171.215 93.6394 171.209C93.7503 171.201 93.8571 171.164 93.948 171.101C94.0442 171.048 94.1336 170.984 94.2142 170.91C94.2996 170.834 94.373 170.745 94.432 170.648C94.4959 170.545 94.5447 170.435 94.5772 170.319C94.6147 170.191 94.6331 170.059 94.6317 169.925L94.1779 170.188C94.1623 170.197 94.1445 170.202 94.1265 170.202C94.1084 170.202 94.0907 170.197 94.075 170.188C94.0586 170.174 94.0456 170.157 94.0372 170.137C94.0288 170.117 94.0252 170.096 94.0266 170.074V169.316C94.0286 169.259 94.0452 169.204 94.075 169.155C94.0941 169.106 94.1307 169.066 94.1779 169.042L95.4908 168.29C95.5065 168.278 95.5256 168.272 95.5452 168.272C95.5649 168.272 95.584 168.278 95.5997 168.29C95.6142 168.304 95.6255 168.32 95.6328 168.339C95.6402 168.357 95.6433 168.377 95.642 168.397V169.316C95.6432 169.62 95.5984 169.922 95.5089 170.212C95.4251 170.502 95.3052 170.781 95.152 171.041C95.0005 171.292 94.8198 171.525 94.6135 171.734C94.4176 171.935 94.1935 172.108 93.948 172.247C93.7361 172.381 93.496 172.465 93.2461 172.492C93.062 172.514 92.8759 172.471 92.7198 172.373C92.5643 172.269 92.4474 172.118 92.387 171.943C92.3046 171.729 92.2595 171.503 92.2539 171.274C92.2539 171.083 92.2539 170.874 92.2539 170.677C92.2539 170.48 92.2539 170.236 92.2539 170.027C92.2616 169.748 92.3063 169.471 92.387 169.203C92.5467 168.634 92.8412 168.11 93.2461 167.675C93.4489 167.456 93.6859 167.271 93.948 167.126C94.1547 166.995 94.3882 166.912 94.6317 166.881C94.809 166.858 94.9894 166.885 95.152 166.959C95.2912 167.025 95.4071 167.131 95.4847 167.263C95.5631 167.396 95.6067 167.545 95.6118 167.699C95.6158 167.745 95.6052 167.791 95.5815 167.83C95.5612 167.87 95.5297 167.903 95.4908 167.926L94.789 168.314C94.7345 168.343 94.6921 168.349 94.6619 168.314L94.5711 168.236C94.5155 168.179 94.4439 168.139 94.3654 168.123C94.2161 168.11 94.0673 168.153 93.948 168.242V168.242Z" fill="white"/>
<path d="M109.946 132.117C109.748 132.018 109.53 131.967 109.308 131.967C109.086 131.967 108.868 132.018 108.67 132.117L88.9761 143.339C88.7844 143.461 88.6248 143.627 88.5102 143.822C88.3956 144.017 88.3293 144.236 88.3166 144.461V148.806C88.2978 149.032 88.3442 149.258 88.4504 149.458C88.5567 149.658 88.7184 149.825 88.9168 149.938C89.1152 150.051 89.3421 150.106 89.5711 150.097C89.8001 150.088 90.0218 150.015 90.2103 149.887L109.916 138.695C110.107 138.57 110.267 138.404 110.381 138.208C110.496 138.012 110.562 137.792 110.575 137.567V133.221C110.566 133.001 110.504 132.786 110.395 132.595C110.286 132.403 110.132 132.239 109.946 132.117Z" fill="#5F737C"/>
<path d="M110.558 133.096C110.504 132.767 110.232 132.654 109.905 132.839L101.695 137.519L90.1994 144.055C90.006 144.178 89.8461 144.346 89.7335 144.544L88.5234 143.84C88.6344 143.641 88.7947 143.472 88.9893 143.351L108.683 132.135C108.863 132.015 109.072 131.944 109.289 131.932C109.506 131.919 109.723 131.964 109.916 132.063C110.109 132.161 110.272 132.309 110.387 132.491C110.502 132.672 110.565 132.881 110.571 133.096H110.558Z" fill="#455A64"/>
<path d="M89.5508 145.189V149.535C89.5508 149.952 89.8472 150.132 90.2103 149.911L109.916 138.695C110.107 138.57 110.267 138.404 110.381 138.208C110.496 138.012 110.562 137.792 110.575 137.567V133.221C110.575 132.809 110.279 132.624 109.916 132.845L90.2224 144.067C90.0285 144.188 89.8665 144.353 89.7497 144.548C89.633 144.743 89.5648 144.963 89.5508 145.189V145.189Z" fill="#37474F"/>
<path d="M92.9019 143.78L93.2226 144.454C93.2258 144.464 93.2312 144.473 93.2384 144.481C93.2456 144.489 93.2544 144.495 93.2642 144.499C93.274 144.503 93.2845 144.504 93.2951 144.504C93.3057 144.504 93.3161 144.501 93.3255 144.496L94.0454 144.227C94.1604 144.18 94.2027 144.341 94.1241 144.496L93.6038 145.457C93.5704 145.513 93.5556 145.577 93.5614 145.642L93.6824 146.513C93.6824 146.651 93.5856 146.836 93.4828 146.824L92.8414 146.746C92.8151 146.747 92.7894 146.754 92.7663 146.767C92.7432 146.779 92.7234 146.797 92.7083 146.818L92.067 147.63C91.9642 147.761 91.8432 147.713 91.8613 147.552L91.9884 146.537C91.9942 146.513 91.9933 146.487 91.9859 146.463C91.9784 146.439 91.9647 146.417 91.946 146.4L91.4257 146.03C91.341 145.97 91.3894 145.761 91.5043 145.672L92.2243 145.123C92.2744 145.083 92.3105 145.029 92.3272 144.967L92.6478 143.923C92.7023 143.762 92.8475 143.678 92.9019 143.78Z" fill="#5F737C"/>
<path d="M96.5404 141.726L96.8671 142.401C96.8752 142.42 96.8905 142.435 96.9098 142.443C96.9291 142.451 96.9507 142.45 96.97 142.443L97.69 142.168C97.8049 142.126 97.8473 142.281 97.7686 142.437L97.2483 143.398C97.2157 143.454 97.2009 143.518 97.206 143.583L97.327 144.46C97.327 144.597 97.2302 144.776 97.1273 144.765L96.486 144.687C96.4589 144.687 96.4324 144.695 96.4091 144.709C96.3858 144.722 96.3664 144.741 96.3529 144.765L95.7115 145.57C95.6087 145.702 95.4877 145.654 95.5058 145.493L95.6329 144.484C95.6376 144.459 95.6362 144.432 95.6288 144.407C95.6215 144.383 95.6084 144.36 95.5905 144.341L95.0702 143.971C94.9855 143.911 95.0339 143.702 95.1489 143.618L95.8688 143.069C95.918 143.026 95.9537 142.97 95.9717 142.908L96.2924 141.87C96.3468 141.702 96.492 141.619 96.5404 141.726Z" fill="#5F737C"/>
<path d="M100.181 139.661L100.508 140.335C100.511 140.345 100.516 140.355 100.524 140.362C100.531 140.37 100.54 140.376 100.549 140.38C100.559 140.384 100.57 140.386 100.58 140.385C100.591 140.385 100.601 140.382 100.611 140.377L101.331 140.103C101.446 140.061 101.488 140.222 101.409 140.371L100.883 141.338C100.854 141.395 100.841 141.459 100.847 141.523L100.968 142.395C100.968 142.532 100.871 142.717 100.768 142.705L100.121 142.628C100.095 142.628 100.07 142.635 100.048 142.647C100.025 142.66 100.007 142.678 99.9935 142.699L99.3522 143.511C99.2493 143.636 99.1283 143.595 99.1465 143.433L99.2735 142.419C99.2782 142.394 99.2768 142.369 99.2694 142.345C99.262 142.321 99.2489 142.299 99.2312 142.281L98.7108 141.911C98.6261 141.852 98.6745 141.643 98.7895 141.553L99.5095 141.004C99.5634 140.967 99.6054 140.915 99.6305 140.855L99.9511 139.816C99.9874 139.661 100.133 139.559 100.181 139.661Z" fill="#5F737C"/>
<path d="M103.822 137.614L104.142 138.288C104.147 138.298 104.153 138.306 104.161 138.314C104.169 138.321 104.179 138.326 104.189 138.329C104.199 138.333 104.21 138.334 104.221 138.333C104.231 138.332 104.242 138.329 104.251 138.324L104.971 138.055C105.086 138.014 105.129 138.169 105.044 138.324L104.524 139.285C104.492 139.341 104.479 139.406 104.487 139.47L104.608 140.342C104.608 140.485 104.511 140.664 104.409 140.652L103.761 140.574C103.736 140.576 103.711 140.583 103.689 140.595C103.667 140.608 103.648 140.625 103.634 140.646L102.993 141.452C102.89 141.583 102.769 141.535 102.787 141.374L102.908 140.365C102.915 140.34 102.916 140.314 102.909 140.289C102.903 140.264 102.89 140.241 102.872 140.222L102.351 139.852C102.267 139.792 102.315 139.583 102.43 139.494L103.144 138.951C103.195 138.908 103.233 138.852 103.253 138.79L103.574 137.751C103.622 137.59 103.773 137.506 103.822 137.614Z" fill="#5F737C"/>
<path d="M107.494 135.554L107.814 136.229C107.824 136.248 107.84 136.264 107.86 136.271C107.881 136.279 107.903 136.279 107.923 136.271L108.643 135.996C108.752 135.954 108.801 136.116 108.716 136.265L108.196 137.232C108.164 137.288 108.151 137.353 108.159 137.417L108.28 138.288C108.28 138.426 108.177 138.611 108.081 138.593L107.433 138.515C107.407 138.517 107.382 138.524 107.36 138.538C107.338 138.552 107.319 138.57 107.306 138.593L106.659 139.404C106.562 139.53 106.441 139.488 106.459 139.327L106.58 138.312C106.587 138.288 106.588 138.263 106.581 138.238C106.575 138.214 106.562 138.192 106.544 138.175L106.024 137.799C105.939 137.745 105.987 137.53 106.096 137.447L106.816 136.897C106.867 136.855 106.905 136.799 106.925 136.736L107.246 135.698C107.264 135.531 107.415 135.447 107.494 135.554Z" fill="#5F737C"/>
<path d="M109.519 154.524C109.181 154.366 108.809 154.287 108.434 154.294C108.06 154.302 107.692 154.395 107.359 154.566L101.218 158.064C100.893 158.273 100.623 158.554 100.428 158.884C100.234 159.215 100.121 159.586 100.099 159.968V166.964C100.085 167.34 100.175 167.713 100.359 168.043C100.544 168.372 100.816 168.646 101.146 168.835C101.477 169.023 101.853 169.119 102.234 169.112C102.616 169.106 102.988 168.996 103.312 168.797L109.453 165.329C109.777 165.119 110.047 164.837 110.241 164.505C110.434 164.173 110.546 163.801 110.566 163.418V156.375C110.55 156.007 110.448 155.648 110.266 155.327C110.084 155.005 109.828 154.731 109.519 154.524Z" fill="#E0E0E0"/>
<path d="M103.311 159.258L109.452 155.778C110.057 155.426 110.565 155.706 110.565 156.411V163.406C110.545 163.789 110.433 164.161 110.24 164.493C110.046 164.825 109.776 165.107 109.452 165.316L103.311 168.814C102.706 169.166 102.191 168.88 102.191 168.176V161.15C102.214 160.77 102.327 160.4 102.521 160.072C102.716 159.743 102.986 159.464 103.311 159.258V159.258Z" fill="white"/>
<path d="M110.554 156.214C110.475 155.617 110.015 155.432 109.453 155.754L103.312 159.252C102.981 159.456 102.708 159.739 102.519 160.076L100.426 158.882C100.615 158.547 100.888 158.265 101.218 158.064L107.359 154.584C107.692 154.414 108.06 154.321 108.435 154.315C108.81 154.309 109.181 154.389 109.519 154.548C109.803 154.736 110.043 154.982 110.221 155.269C110.4 155.557 110.513 155.879 110.554 156.214V156.214Z" fill="#F0F0F0"/>
<path d="M103.527 163.09C103.534 162.525 103.656 161.967 103.884 161.449V161.449C104.089 160.905 104.459 160.436 104.943 160.106C105.669 159.682 106.274 160.542 106.371 161.55C106.462 160.434 107.055 158.882 107.781 158.464C107.939 158.344 108.138 158.287 108.336 158.306C108.535 158.325 108.72 158.418 108.852 158.566V158.566C109.12 158.919 109.251 159.355 109.221 159.796C109.221 161.503 108.186 163.055 107.315 164.684L106.371 166.26L105.463 165.759C104.586 165.138 103.539 164.804 103.527 163.09Z" fill="#5F737C"/>
<path d="M173.59 111.651L174.769 123.436L185.74 122.781L184.865 109.713L173.59 111.651Z" fill="#FFA8A7"/>
<path d="M159.891 88.9078C159.764 88.3364 159.7 87.7537 159.699 87.1693C159.67 86.4727 159.828 85.7808 160.158 85.16C161.063 83.6352 162.807 83.6352 164.394 83.6566C167.543 83.7461 170.682 83.2626 173.644 82.2315C174.86 81.7898 176.032 81.2269 177.256 80.8065C180.349 79.7377 183.932 79.5667 186.855 80.9561C187.922 81.4558 188.869 82.1637 189.635 83.0348C190.402 83.9059 190.97 84.9209 191.305 86.015C191.602 87.0553 191.476 88.1098 191.684 89.1572C191.943 90.4397 192.507 91.6439 192.752 92.9336C192.991 94.3238 193.128 95.7286 193.16 97.1374C193.397 102.959 179.333 106.742 179.608 110.732L172.116 101.968C172.116 101.605 171.055 100.7 170.818 100.394C170.365 99.8165 169.965 99.1966 169.557 98.591C168.777 97.4749 167.767 96.5243 166.59 95.7979C165.484 95.0854 164.223 94.6579 163.17 93.8812C161.507 92.6414 160.347 90.8821 159.891 88.9078V88.9078Z" fill="#263238"/>
<path d="M165.452 98.7119C165.452 98.7119 163.026 102.182 163.345 102.545C163.914 102.903 164.545 103.161 165.207 103.308L165.452 98.7119Z" fill="#F28F8F"/>
<path d="M172.878 87.725C170.52 88.8793 166.44 91.0097 165.387 99.2179C164.311 107.654 166.299 110.618 167.515 111.687C168.339 112.4 172.574 112.699 174.792 112.05C177.559 111.245 183.552 108.445 186.364 104.092C189.672 98.9757 190.354 92.1497 186.534 89.4778C181.142 85.7157 174.881 86.756 172.878 87.725Z" fill="#FFA8A7"/>
<path d="M167.746 111.836C168.74 112.364 171.559 112.549 173.68 112.285L173.621 110.768C172.718 111.146 171.779 111.44 170.817 111.644C169.809 111.857 168.774 111.921 167.746 111.836Z" fill="#F28F8F"/>
<path d="M171.84 87.4762C170.842 87.8305 169.913 88.3462 169.096 89.001C168.686 89.3283 168.355 89.7366 168.124 90.1981C167.939 90.6283 167.87 91.0964 167.924 91.559C167.996 92.1913 168.24 92.7944 168.63 93.3082C169.02 93.822 169.544 94.2285 170.149 94.4874C169.835 94.9062 169.619 95.3856 169.516 95.8925C169.414 96.3994 169.427 96.9216 169.556 97.423C169.989 98.5854 170.733 99.6176 171.714 100.416C171.764 100.472 171.828 100.516 171.9 100.544C171.969 100.551 172.038 100.544 172.105 100.525C172.171 100.505 172.232 100.473 172.285 100.43C173.769 99.475 174.681 97.8291 176.78 98.4918C179.532 99.361 179.681 101.926 178.056 104.192C177.784 104.639 177.413 105.024 176.97 105.319C176.526 105.614 176.021 105.813 175.49 105.902C175.185 105.953 174.871 105.937 174.573 105.855C174.276 105.774 174.001 105.629 173.769 105.432C173.769 105.432 174.229 110.305 178.079 111.994C178.079 111.994 182.596 112.977 184.999 111.474C186.446 109.707 188.886 107.441 190.889 105.417C197.491 98.7483 197.869 89.0651 188.13 86.0084C187.796 85.9016 187.454 85.8018 187.113 85.7163C182.404 84.5495 177.417 85.0033 173.02 86.9988C172.589 87.177 172.241 87.3266 171.84 87.4762Z" fill="#263238"/>
<path d="M171.5 103.386C171.246 103.302 171.011 103.169 170.811 102.997C170.61 102.825 170.447 102.616 170.331 102.382C170.215 102.149 170.149 101.896 170.135 101.638C170.122 101.38 170.162 101.121 170.254 100.878C170.449 100.386 170.837 99.9868 171.334 99.7658C171.832 99.5448 172.4 99.5195 172.917 99.6954L171.5 103.386Z" fill="#263238"/>
<path d="M190.992 88.039C191.181 88.1774 191.397 88.2785 191.627 88.3363C191.856 88.394 192.096 88.4074 192.331 88.3756C192.567 88.3438 192.793 88.2674 192.997 88.1509C193.202 88.0344 193.38 87.8801 193.522 87.697C193.805 87.3204 193.924 86.8518 193.852 86.3921C193.78 85.9324 193.523 85.5183 193.136 85.2388L190.992 88.039Z" fill="#263238"/>
<path d="M186.926 117.593C195.152 118.035 195.879 119.36 198.319 125.068C200.76 130.775 204.617 145.246 205.618 149.087C206.071 150.797 192.563 167.014 193.053 166.786C193.201 166.714 188.654 159.411 188.654 159.411L194.722 148.509L191.102 139.247L186.926 117.593Z" fill="#FFA8A7"/>
<path d="M195.05 168.011C194.626 164.477 193.53 161.047 191.815 157.894L178.619 180.602L176.312 188.624C176.312 188.624 176.468 207.007 176.765 211.425C177.062 215.843 180.133 251.597 180.133 251.597L180.689 258.658C185.881 260.047 186.987 258.729 187.038 257.639C187.09 256.549 187.662 252.188 187.662 252.188C187.662 252.188 188.863 251.754 189.145 249.887C189.301 248.889 188.218 246.738 188.403 245.198C189.382 237.268 191.719 225.191 191.86 222.633C192.092 218.175 191.286 213.723 189.501 209.601C190.547 200.388 196.548 180.438 195.05 168.011Z" fill="#FFA8A7"/>
<path d="M180.133 251.583L180.689 258.644C185.882 260.033 186.987 258.715 187.039 257.625C187.039 257.376 187.091 256.948 187.143 256.442C186.304 258.252 184.584 257.725 183.597 255.145C182.61 252.566 178.301 230.093 178.301 230.093C179.191 240.624 180.133 251.583 180.133 251.583Z" fill="#F28F8F"/>
<path d="M177.078 268.22C177.078 268.22 177.872 269.552 182.159 267.821C186.447 266.09 187.656 264.03 187.656 264.03C187.656 264.03 186.543 255.758 183.888 257.839C181.232 259.919 177.078 268.22 177.078 268.22Z" fill="#7CCCDB"/>
<path opacity="0.3" d="M177.078 268.22C177.078 268.22 177.872 269.552 182.159 267.821C186.447 266.09 187.656 264.03 187.656 264.03C187.656 264.03 186.543 255.758 183.888 257.839C181.232 259.919 177.078 268.22 177.078 268.22Z" fill="black"/>
<path d="M188.65 247.806C187.775 247.358 185.446 248.284 184.073 249.424C182.271 250.913 181.848 252.929 180.913 255.302C179.927 257.832 178.139 261.309 176.693 262.085C175.246 262.862 172.606 262.142 170.425 262.128C168.244 262.114 166.56 263.076 166.434 264.608C166.375 265.805 172.042 268.569 175.625 268.712C178.592 268.826 179.608 269.31 181.247 265.149C182.886 260.988 183.517 258.623 184.822 261.458C186.128 264.294 186.67 270.721 186.67 270.721C187.168 270.896 187.717 270.884 188.206 270.687C188.696 270.49 189.09 270.123 189.31 269.659C189.29 267.795 189.399 265.931 189.637 264.08C190.007 261.515 191.432 257.475 191.246 254.383C191.061 251.291 189.518 248.22 188.65 247.806Z" fill="#263238"/>
<path d="M190.287 158.834L159.192 167.933C159.192 167.933 156.076 200.446 156.158 210.35C156.21 217.325 156.595 218.023 157.805 220.66C159.236 223.759 160.482 226.944 161.766 230.101C163.761 234.996 171.676 253.322 171.409 255.815C171.245 257.54 169.295 262.285 168.301 265.349C167.307 268.413 164.762 268.512 164.762 268.512C164.762 268.512 168.783 271.17 171.186 270.607C172.974 270.194 173.515 268.021 174.153 266.617C175.057 264.751 176.602 263.241 178.53 262.342C179.327 261.961 180.093 261.522 180.822 261.031C181.552 260.529 182.091 259.81 182.357 258.986C182.698 257.725 182.112 256.428 181.541 255.245L180.569 253.257C180.077 252.241 179.723 251.168 179.516 250.065C178.945 247.023 178.485 243.952 177.981 240.895C177.395 237.333 176.809 233.699 176.163 230.115C175.848 227.76 175.352 225.431 174.68 223.146C173.562 220.204 172.104 217.391 170.333 214.76L178.626 180.609C188.64 177.759 191.911 173.641 193.068 167.784C194.01 162.967 192.156 161.77 190.287 158.834Z" fill="#FFA8A7"/>
<path d="M159.014 224.172C155.705 217.51 154.8 213.484 156.158 199.49C157.515 185.497 159.014 167.463 159.014 167.463L192.267 157.316C194.708 162.838 196.51 170.526 196.154 176.932C195.798 183.338 190.554 209.109 190.554 209.109C191.184 211.627 191.679 214.174 192.037 216.74C192.323 219.27 192.373 221.819 192.186 224.357C191.963 227.649 190.049 236.605 190.049 236.605C188.423 237.376 186.599 237.68 184.798 237.482C182.624 237.228 180.514 236.606 178.567 235.644C178.567 235.644 177.654 224.393 177.291 221.863C176.927 219.334 176.549 214.888 176.349 211.589C176.097 207.314 176.349 191.638 176.349 191.638L171.023 214.168L173.404 218.308C175.451 222.148 177.194 231.169 177.855 237.624C177.855 237.624 176.371 239.22 172.759 240.182C170.517 240.686 168.21 240.868 165.912 240.724C165.912 240.724 160.453 227.307 159.014 224.172Z" fill="#37474F"/>
<path d="M176.312 191.617L178.856 181.642C178.856 181.642 187.565 180.573 192.149 174.73C192.149 174.73 189.182 182.611 180.933 183.174L177.069 191.496L176.23 198.671L176.312 191.617Z" fill="#263238"/>
<path d="M169.582 274.298C169.582 274.298 170.376 275.638 174.663 273.906C178.951 272.175 180.16 270.116 180.16 270.116C180.16 270.116 179.047 261.843 176.391 263.924C173.736 266.005 169.582 274.298 169.582 274.298Z" fill="#7CCCDB"/>
<path opacity="0.3" d="M169.582 274.298C169.582 274.298 170.376 275.638 174.663 273.906C178.951 272.175 180.16 270.116 180.16 270.116C180.16 270.116 179.047 261.843 176.391 263.924C173.736 266.005 169.582 274.298 169.582 274.298Z" fill="black"/>
<path d="M181.142 253.885C180.267 253.443 177.93 254.369 176.558 255.502C174.755 256.999 174.332 259.015 173.398 261.381C172.411 263.91 170.624 267.387 169.177 268.164C167.731 268.94 165.09 268.221 162.909 268.214C160.728 268.207 159.045 269.161 158.918 270.686C158.859 271.89 164.526 274.655 168.109 274.79C171.076 274.911 172.092 275.396 173.739 271.228C175.386 267.059 176.001 264.694 177.307 267.537C178.612 270.38 179.154 276.8 179.154 276.8C179.654 276.972 180.202 276.958 180.692 276.762C181.182 276.565 181.578 276.2 181.802 275.738C181.777 273.873 181.884 272.01 182.121 270.159C182.492 267.587 183.916 263.547 183.731 260.454C183.545 257.362 182.025 254.305 181.142 253.885Z" fill="#263238"/>
<path d="M193.312 121.969C192.444 118.962 191.235 117.594 187.333 117.615L185.382 117.501C185.145 118.926 177.104 119.368 174.152 117.28C173.321 117.245 170.362 117.437 168.663 117.594L168.151 118.89C166.668 120.622 161.32 123.486 157.351 134.359C156.881 135.941 156.98 137.629 157.633 139.15C158.286 140.671 159.454 141.935 160.949 142.738C160.845 145.147 161.06 145.104 163.115 152.928L159.094 165.361C159.094 165.361 166.638 169.757 178.996 168.838C190.048 168.019 195.263 162.062 194.84 162.839C194.84 162.839 192.934 159.411 189.373 151.474L190.189 147.975L191.48 142.617C194.566 131.231 194.491 125.973 193.312 121.969Z" fill="#455A64"/>
<path d="M190.311 150.861C187.699 154.424 171.514 158.386 163.013 153.035C163.013 153.035 149.513 171.667 147.34 188.39C147.34 188.39 158.058 200.916 182.804 197.987C200.858 195.85 207 185.041 207 185.041C205.556 177.365 202.836 169.963 198.945 163.117C196.653 159.141 191.438 154.545 190.311 150.861Z" fill="#7CCCDB"/>
<path opacity="0.1" d="M190.311 150.861C187.699 154.424 171.514 158.386 163.013 153.035C163.013 153.035 149.513 171.667 147.34 188.39C147.34 188.39 158.058 200.916 182.804 197.987C200.858 195.85 207 185.041 207 185.041C205.556 177.365 202.836 169.963 198.945 163.117C196.653 159.141 191.438 154.545 190.311 150.861Z" fill="black"/>
<path d="M194.849 195.85L193.158 195.479C193.158 195.479 191.489 173.391 182.031 154.075L183.211 153.797C183.211 153.797 190.198 165.952 193.818 177.716C197.438 189.48 194.849 195.85 194.849 195.85Z" fill="#7CCCDB"/>
<path opacity="0.2" d="M194.849 195.85L193.158 195.479C193.158 195.479 191.489 173.391 182.031 154.075L183.211 153.797C183.211 153.797 190.198 165.952 193.818 177.716C197.438 189.48 194.849 195.85 194.849 195.85Z" fill="black"/>
<path d="M166.559 199.618L167.827 197.88C167.827 197.88 167.419 166.942 170.498 154.879L169.682 154.794C169.682 154.794 164.133 171.631 166.559 199.618Z" fill="#7CCCDB"/>
<path opacity="0.2" d="M166.559 199.618L167.827 197.88C167.827 197.88 167.419 166.942 170.498 154.879L169.682 154.794C169.682 154.794 164.133 171.631 166.559 199.618Z" fill="black"/>
<path d="M166.521 197.666C166.521 198.913 166.521 199.619 166.521 199.619C153.755 198.194 151.359 193.819 151.359 193.819C151.471 193.213 151.574 192.608 151.686 191.995C155.521 171.439 165.364 153.861 165.364 153.861C166.754 154.31 168.188 154.623 169.644 154.794V154.794C166.343 164.698 166.425 190.413 166.521 197.666Z" fill="#7CCCDB"/>
<path opacity="0.3" d="M166.521 197.666C166.521 198.913 166.521 199.619 166.521 199.619C153.755 198.194 151.359 193.819 151.359 193.819C151.471 193.213 151.574 192.608 151.686 191.995C155.521 171.439 165.364 153.861 165.364 153.861C166.754 154.31 168.188 154.623 169.644 154.794V154.794C166.343 164.698 166.425 190.413 166.521 197.666Z" fill="#7CCCDB"/>
<path d="M187.156 198.137C179.842 201.329 172.068 199.812 172.068 199.812C172.068 199.313 172.024 198.814 172.009 198.323C171.267 178.593 174.234 159.134 174.872 154.994C176.158 154.947 177.44 154.838 178.714 154.667C184.708 170.071 186.726 192.608 187.096 197.275C187.133 197.838 187.156 198.137 187.156 198.137Z" fill="#7CCCDB"/>
<path d="M204.878 189.565C200.82 193.776 194.827 195.85 194.827 195.85C194.827 195.5 194.79 195.137 194.775 194.802C193.677 177.174 184.331 156.276 183.203 153.797C184.431 153.489 185.636 153.101 186.808 152.635C197.193 160.473 203.127 182.276 204.536 188.112C204.781 189.045 204.878 189.565 204.878 189.565Z" fill="#7CCCDB"/>
<path d="M162.211 149.543C162.441 150.662 162.708 152.301 162.953 153.106C162.953 153.106 167.93 155.956 176.356 155.614C184.783 155.272 189.441 153.22 190.294 150.883L190.176 147.997C186.237 152.586 171.209 154.787 162.211 149.543Z" fill="#37474F"/>
<path d="M137.376 135.186C135.848 133.504 135.588 129.792 133.548 127.234C131.508 124.676 131.879 122.104 130.581 123.251C129.283 124.398 130.255 128.588 130.255 128.588C130.255 128.588 127.881 132.82 127.681 135.001C127.48 137.181 133.452 142.61 133.452 142.61L137.376 135.186Z" fill="#FFA8A7"/>
<path d="M130.619 128.296C129.477 129.892 125.708 127.277 124.685 126.543C124.074 126.037 123.376 125.636 122.623 125.36C122.245 125.228 121.837 125.2 121.443 125.279C121.05 125.358 120.688 125.542 120.397 125.809C120.102 126.172 119.915 126.606 119.856 127.063C119.588 128.499 119.648 129.973 120.032 131.384C120.417 132.796 121.116 134.11 122.081 135.236C124.395 137.957 128.164 138.342 131.116 140.259C131.014 139.651 130.992 139.034 131.049 138.421C130.997 137.06 130.938 135.699 130.879 134.338C130.797 132.321 130.7 130.305 130.619 128.296Z" fill="#FFA8A7"/>
<path d="M168.665 117.594C163.851 117.273 159.423 117.957 156.337 123.943C152.814 130.761 145.834 143.957 145.834 143.957L137.377 135.186C137.377 135.186 136.153 133.526 133.869 137.146C131.584 140.765 132.593 141.777 132.593 141.777C132.593 141.777 142.407 154.403 144.209 156.027C146.012 157.652 148.971 156.384 150.885 153.89C152.799 151.396 163.384 133.868 163.384 133.868C163.384 133.868 170.972 124.904 168.665 117.594Z" fill="#FFA8A7"/>
<path d="M154.884 157.431L152.451 156.084C152.429 154.774 152.29 153.467 152.035 152.18C152.517 151.424 153.103 150.484 153.734 149.437C154.498 152.038 154.885 154.728 154.884 157.431V157.431Z" fill="#263238"/>
<path d="M154.98 158.179L154.883 157.431L154.802 157.481V157.431L152.376 156.084C152.057 156.953 151.686 158.136 151.293 159.454C146.279 162.226 137.867 166.9 137.867 166.9L140.449 185.675L157.316 176.27C157.654 176.088 157.904 175.786 158.014 175.429C158.726 173.448 155.766 161.321 154.98 158.179Z" fill="#37474F"/>
<path d="M154.883 157.431L137.867 166.864L135.434 165.518L152.45 156.084L154.883 157.431Z" fill="#455A64"/>
<path opacity="0.1" d="M154.883 157.431L137.867 166.864L135.434 165.518L152.45 156.084L154.883 157.431Z" fill="white"/>
<path opacity="0.2" d="M138.861 170.912C138.861 170.912 138.757 171.346 140.411 171.688C142.065 172.03 148.934 171.945 149.846 171.425C150.759 170.904 153.184 168.04 154.297 166.116C154.971 164.934 155.546 163.702 156.018 162.433L138.861 170.912Z" fill="black"/>
<path d="M135.433 165.518C134.023 169.451 131.323 179.547 131.724 181.058C132.124 182.568 134.201 183.715 135.433 184.392C136.664 185.069 140.269 187.071 141.092 184.834C141.916 182.597 137.866 166.9 137.866 166.9L135.433 165.518Z" fill="#263238"/>
<path d="M137.867 166.9C137.867 167.135 138.231 170.007 138.861 170.947C139.492 171.888 147.837 171.332 149.246 170.947C150.655 170.562 155.803 163.558 155.981 162.468C156.159 161.378 154.861 157.48 154.861 157.48L137.867 166.9Z" fill="#455A64"/>
<path d="M148.948 169.458C148.985 169.807 149.26 169.921 149.556 169.708C149.711 169.586 149.833 169.43 149.912 169.255C149.992 169.079 150.028 168.887 150.016 168.696C149.972 168.347 149.705 168.233 149.408 168.446C149.252 168.567 149.129 168.722 149.049 168.898C148.969 169.074 148.935 169.266 148.948 169.458V169.458Z" fill="#7CCCDB"/>
<path d="M146.657 142.396C137.755 143.879 135.434 165.518 135.434 165.518L137.867 166.864C138.304 154.075 143.912 145.068 145.885 143.95L146.657 142.396Z" fill="#263238"/>
</svg>
